<svg width="30" height="30" viewBox="0 0 30 30" fill="none" xmlns="http://www.w3.org/2000/svg">
<path d="M15 20.6251C14.8769 20.6252 14.7549 20.601 14.6412 20.5538C14.5274 20.5067 14.4241 20.4376 14.3372 20.3504L4.96219 10.9754C4.59586 10.609 4.59586 10.0158 4.96219 9.64975C5.32851 9.28365 5.92172 9.28342 6.28781 9.64975L15 18.3619L23.7122 9.64975C24.0785 9.28342 24.6717 9.28342 25.0378 9.64975C25.4039 10.0161 25.4041 10.6093 25.0378 10.9754L15.6628 20.3504C15.5759 20.4376 15.4726 20.5067 15.3588 20.5538C15.2451 20.601 15.1231 20.6252 15 20.6251Z" fill="black"/>
</svg>
