<svg width="50" height="50" viewBox="0 0 50 50" fill="none" xmlns="http://www.w3.org/2000/svg">
<g clip-path="url(#clip0_60_21)">
<path d="M50 25C50 11.1929 38.8071 0 25 0C11.1929 0 0 11.1929 0 25C0 38.8071 11.1929 50 25 50C38.8071 50 50 38.8071 50 25Z" fill="url(#paint0_linear_60_21)"/>
<path d="M43.8158 8.55263C40.1711 15.2434 35.0165 22.1447 28.5757 28.5855C22.1349 35.0263 15.2336 40.1711 8.55265 43.8158C8.13379 43.4518 7.727 43.0724 7.33226 42.6776C4.94626 40.3713 3.04331 37.613 1.73435 34.5636C0.425402 31.5142 -0.263353 28.2347 -0.291748 24.9164C-0.320143 21.598 0.312389 18.3072 1.56897 15.2359C2.82554 12.1645 4.68102 9.37409 7.0272 7.02725C9.37338 4.68042 12.1633 2.82416 15.2343 1.56673C18.3053 0.309293 21.5959 -0.324159 24.9143 -0.29669C28.2326 -0.269221 31.5123 0.418619 34.5621 1.72672C37.6118 3.03482 40.3706 4.93701 42.6776 7.32236C43.0724 7.7171 43.4518 8.12719 43.8158 8.55263Z" fill="white" fill-opacity="0.063"/>
<path d="M30.921 11.8421H19.0789C17.1596 11.8421 15.3189 12.6046 13.9617 13.9617C12.6046 15.3189 11.8421 17.1596 11.8421 19.0789V30.921C11.8421 32.8404 12.6046 34.6811 13.9617 36.0383C15.3189 37.3954 17.1596 38.1579 19.0789 38.1579H30.921C32.8404 38.1579 34.6811 37.3954 36.0383 36.0383C37.3954 34.6811 38.1579 32.8404 38.1579 30.921V19.0789C38.1579 17.1596 37.3954 15.3189 36.0383 13.9617C34.6811 12.6046 32.8404 11.8421 30.921 11.8421ZM35.8553 29.8816C35.8553 31.4659 35.2259 32.9853 34.1056 34.1056C32.9853 35.2259 31.4659 35.8553 29.8816 35.8553H20.1184C18.5341 35.8553 17.0147 35.2259 15.8944 34.1056C14.7741 32.9853 14.1447 31.4659 14.1447 29.8816V20.1184C14.1447 18.5341 14.7741 17.0147 15.8944 15.8944C17.0147 14.7741 18.5341 14.1447 20.1184 14.1447H29.8816C31.4659 14.1447 32.9853 14.7741 34.1056 15.8944C35.2259 17.0147 35.8553 18.5341 35.8553 20.1184V29.8816Z" fill="white"/>
<path d="M29.7994 20.25L29.7369 20.1875L29.6842 20.1349C28.4405 18.8954 26.7559 18.1998 25 18.2006C24.1133 18.2067 23.2365 18.3874 22.4196 18.7324C21.6028 19.0774 20.8619 19.5799 20.2393 20.2114C19.6168 20.8428 19.1247 21.5907 18.7913 22.4123C18.4578 23.234 18.2896 24.1133 18.2961 25C18.2947 26.7995 19.0041 28.5267 20.2698 29.8059C20.8897 30.4334 21.6285 30.9311 22.4429 31.27C23.2573 31.6089 24.1311 31.7821 25.0132 31.7796C26.3363 31.7519 27.6228 31.3397 28.7157 30.5933C29.8087 29.847 30.6608 28.7988 31.1682 27.5764C31.6756 26.3541 31.8164 25.0106 31.5733 23.7097C31.3302 22.4087 30.7139 21.2066 29.7994 20.25ZM25 29.4605C24.1153 29.4729 23.2468 29.2219 22.5051 28.7394C21.7634 28.2568 21.182 27.5646 20.8347 26.7507C20.4875 25.9368 20.3902 25.0381 20.5552 24.1687C20.7202 23.2994 21.14 22.4988 21.7613 21.8687C22.3825 21.2386 23.1772 20.8075 24.0441 20.6303C24.911 20.4531 25.811 20.5377 26.6297 20.8734C27.4485 21.2091 28.1488 21.7807 28.6418 22.5155C29.1347 23.2503 29.398 24.1151 29.3981 25C29.4024 25.5817 29.292 26.1586 29.0733 26.6977C28.8546 27.2367 28.5318 27.7274 28.1234 28.1416C27.7149 28.5559 27.2289 28.8856 26.6929 29.1119C26.157 29.3382 25.5818 29.4566 25 29.4605ZM33.6941 17.8881C33.6958 18.0992 33.6559 18.3086 33.5766 18.5042C33.4974 18.6999 33.3803 18.8779 33.2321 19.0283C33.0839 19.1786 32.9075 19.2982 32.713 19.3803C32.5186 19.4624 32.3098 19.5053 32.0987 19.5066C31.8894 19.5065 31.6822 19.4648 31.4891 19.3841C31.296 19.3034 31.1208 19.1851 30.9737 19.0362C30.7509 18.8101 30.5993 18.5235 30.5378 18.2121C30.4762 17.9006 30.5075 17.578 30.6276 17.2841C30.7477 16.9903 30.9515 16.7381 31.2136 16.559C31.4757 16.3798 31.7846 16.2815 32.102 16.2763C32.4735 16.2762 32.8333 16.4066 33.1185 16.6447L33.1513 16.6776C33.2044 16.7208 33.2529 16.7693 33.2961 16.8224L33.3323 16.8618C33.5677 17.1519 33.6956 17.5145 33.6941 17.8881Z" fill="white"/>
</g>
<defs>
<linearGradient id="paint0_linear_60_21" x1="7.32237" y1="7.32237" x2="42.6776" y2="42.6776" gradientUnits="userSpaceOnUse">
<stop stop-color="#FAE100"/>
<stop offset="0.15" stop-color="#FCB720"/>
<stop offset="0.3" stop-color="#FF7950"/>
<stop offset="1" stop-color="#FF1C74"/>
</linearGradient>
<clipPath id="clip0_60_21">
<rect width="50" height="50" fill="white"/>
</clipPath>
</defs>
</svg>
