<svg width="931" height="653" viewBox="0 0 931 653" fill="none" xmlns="http://www.w3.org/2000/svg">
<path d="M285.061 645.862C115.626 620.216 -22.0691 460.098 2.94702 282.131C24.2886 130.354 157.423 12.238 317.078 1.08409C328.638 0.274406 340.332 0.0237712 352.134 0.366076C441.2 2.93751 520.334 38.5443 578.861 92.4261C637.113 146.049 674.96 217.772 681.851 293.018C700.201 493.217 495.802 677.762 285.061 645.862Z" fill="#867FFF"/>
<path d="M126.05 636.662C86.4269 631.574 36.1894 618.204 16.0126 580.506C11.2123 571.538 6.39619 554.116 18.5111 547.555C29.5853 541.558 43.9065 547.893 52.1377 555.696C58.1893 561.434 62.912 574.241 69.712 578.29C79.6643 584.217 85.0222 568.045 84.8129 561.37C84.3448 546.447 65.9791 540.338 53.7735 537.098C33.5135 531.719 9.92461 527.109 11.194 504.289C12.4634 481.469 34.7241 467.781 51.8493 477.764C65.9587 485.99 63.9723 503.548 73.6134 514.083C82.1784 523.441 85.1588 508.251 84.587 500.804C83.3447 484.627 69.1141 472.926 58.6435 462.087C46.8049 449.831 33.7259 425.172 46.3446 408.967C53.6061 399.642 72.053 397.457 82.9556 399.031C136.324 406.733 100.935 475.763 110.639 483.465C120.342 491.167 129.523 477.685 129.499 457.184C129.475 436.684 132.614 421.566 154.019 428.126C175.423 434.687 179.498 488.234 155.057 508.812C130.616 529.391 156.591 551.842 163.152 537.095C167.889 526.446 172.054 498.56 185.744 495.501C208.555 490.414 208.217 536.969 201.652 547.805C192.449 562.994 171.64 566.293 160.019 579.398C156.643 583.205 149.021 592.633 151.982 598.197C156.112 605.958 167.632 597.656 171.865 594.059C181.381 585.973 194.552 558.492 207.958 576.742C224.511 599.278 196.827 632.684 126.05 636.662Z" fill="url(#paint0_linear_203_946)"/>
<g opacity="0.8">
<path d="M120.342 633.306C121.273 633.306 122.036 632.242 122.053 631.308C122.069 630.499 123.172 549.159 87.7019 452.608C87.3753 451.721 86.3903 451.187 85.5041 451.512C84.6162 451.838 84.1608 452.781 84.487 453.669C119.738 549.624 118.645 630.461 118.63 631.264C118.612 632.209 119.364 633.306 120.309 633.306C120.321 633.306 120.332 633.306 120.342 633.306Z" fill="white"/>
</g>
<path d="M94.5229 629.974C95.8511 621.65 111.776 619.275 118.194 618.065C121.916 617.363 127.213 616.639 129.125 612.796C131.133 608.759 128.079 605.639 124.164 604.925C117.154 603.646 109.613 608.096 103.099 610.121C96.1016 612.297 88.8418 613.32 81.9023 610.316C76.369 607.921 70.7038 602.231 69.4995 596.242C66.1672 579.668 82.7809 580.62 93.6077 582.949C98.8612 584.079 109.191 584.931 110.117 577.51C111.103 569.616 101.052 565.636 94.8444 565.4C86.7309 565.091 78.7556 566.875 70.707 567.458C63.4496 567.984 54.8577 567.194 52.8448 558.847C51.29 552.398 54.9238 544.987 60.169 541.161C72.2962 532.316 88.2745 547.399 101.219 547.368C105.796 547.357 113.35 544.001 114.617 539.089C115.902 534.085 109.398 530.715 105.833 528.89C95.2654 523.481 46.7268 516.555 64.1138 495.608C68.4899 490.336 76.9454 485.903 83.7696 485.716C96.6439 485.364 111.111 494.098 121.03 501.633C136.632 513.484 150.282 529.795 159.145 547.27C178.732 585.894 169.244 611.791 169.244 611.791C163.565 621.151 154.777 630.885 145.098 636.158C133.721 642.356 116.1 645.079 103.725 640.26C99.7223 638.701 93.6999 635.13 94.5229 629.974Z" fill="url(#paint1_linear_203_946)"/>
<path opacity="0.7" d="M624.332 399.8L607.887 400.909C605.999 393.575 603.52 386.49 600.444 379.736L614.087 370.585C617.809 368.088 618.765 363.036 616.224 359.298L600.312 335.898C597.764 332.153 592.673 331.134 588.939 333.625L575.113 342.847C569.863 337.47 564.16 332.538 558.058 328.122L565.348 313.16C567.314 309.126 565.594 304.226 561.505 302.215L535.886 289.616C531.782 287.597 526.851 289.235 524.874 293.277L517.533 308.286C510.353 306.198 502.923 304.735 495.32 303.89L494.042 287.058C493.699 282.539 489.719 279.094 485.149 279.363L456.514 281.051C451.925 281.322 448.482 285.216 448.826 289.747L450.108 306.63C442.651 308.391 435.446 310.752 428.574 313.709L418.916 299.635C416.312 295.839 411.1 294.797 407.275 297.308L383.308 313.039C379.469 315.559 378.476 320.686 381.093 324.487L390.783 338.564C385.279 343.762 380.252 349.432 375.745 355.5L360.24 348.013C356.042 345.986 350.994 347.663 348.968 351.761L336.282 377.416C334.25 381.522 336.018 386.491 340.228 388.51L355.62 395.894C353.519 403.104 352.081 410.571 351.285 418.21L334.242 419.359C329.577 419.674 326.074 423.635 326.421 428.206L328.591 456.794C328.939 461.365 333.004 464.804 337.667 464.476L354.571 463.287C356.477 470.784 359.011 478.016 362.156 484.907L348.251 494.184C344.39 496.759 343.391 501.918 346.021 505.704L362.451 529.353C365.075 533.13 370.323 534.098 374.172 531.516L387.969 522.262C393.383 527.742 399.278 532.736 405.573 537.196L398.362 551.94C396.346 556.06 398.103 560.997 402.283 562.965L428.377 575.248C432.542 577.208 437.541 575.461 439.545 571.349L446.661 556.744C454.024 558.782 461.637 560.156 469.412 560.889L470.638 577.034C470.982 581.566 474.977 584.947 479.559 584.586L508.151 582.331C512.714 581.971 516.132 578.016 515.789 573.498L514.567 557.401C522.088 555.492 529.339 552.979 536.233 549.858L545.361 563.118C547.927 566.846 553.054 567.792 556.811 565.232L580.26 549.252C584.003 546.701 584.965 541.617 582.41 537.894L573.256 524.554C578.677 519.268 583.626 513.527 588.032 507.39L602.664 514.409C606.735 516.362 611.62 514.656 613.575 510.6L625.787 485.263C627.737 481.216 626.028 476.347 621.967 474.386L607.307 467.307C609.303 460.162 610.663 452.775 611.382 445.218L627.692 444.07C632.18 443.754 635.541 439.866 635.201 435.386L633.074 407.365C632.734 402.885 628.82 399.498 624.332 399.8ZM476.103 349.451C522.189 346.525 562.143 381.013 565.594 426.466C569.045 471.919 534.716 511.526 488.667 514.949C442.34 518.394 401.75 483.95 398.262 437.998C394.773 392.045 429.737 352.394 476.103 349.451Z" fill="#D8DEE8"/>
<path opacity="0.7" d="M572.363 151.204L563.323 151.814C562.285 147.782 560.922 143.887 559.231 140.174L566.731 135.143C568.777 133.77 569.303 130.992 567.906 128.937L559.158 116.073C557.757 114.014 554.958 113.453 552.905 114.823L545.305 119.893C542.418 116.937 539.283 114.226 535.928 111.798L539.936 103.572C541.017 101.354 540.071 98.6605 537.823 97.5551L523.739 90.6281C521.482 89.5183 518.771 90.4187 517.685 92.641L513.649 100.893C509.702 99.745 505.617 98.9404 501.437 98.4762L500.734 89.2223C500.546 86.7379 498.357 84.844 495.845 84.992L480.103 85.9199C477.58 86.0687 475.687 88.2093 475.876 90.7008L476.58 99.982C472.481 100.951 468.52 102.248 464.742 103.874L459.432 96.1364C458 94.0497 455.135 93.4767 453.032 94.8569L439.856 103.505C437.745 104.891 437.199 107.71 438.638 109.799L443.966 117.539C440.94 120.396 438.176 123.514 435.698 126.849L427.174 122.733C424.866 121.619 422.091 122.541 420.977 124.794L414.002 138.898C412.885 141.156 413.857 143.887 416.172 144.997L424.633 149.057C423.479 153.021 422.688 157.125 422.25 161.326L412.881 161.957C410.316 162.13 408.39 164.308 408.581 166.821L409.774 182.538C409.965 185.051 412.2 186.942 414.764 186.761L424.057 186.108C425.104 190.229 426.498 194.205 428.227 197.994L420.582 203.094C418.459 204.51 417.91 207.346 419.357 209.427L428.389 222.428C429.832 224.505 432.717 225.037 434.833 223.618L442.418 218.53C445.395 221.543 448.636 224.288 452.096 226.741L448.132 234.846C447.024 237.111 447.99 239.826 450.288 240.907L464.633 247.66C466.923 248.738 469.672 247.778 470.773 245.517L474.686 237.487C478.733 238.607 482.919 239.363 487.193 239.766L487.867 248.642C488.056 251.134 490.253 252.993 492.772 252.794L508.491 251.555C510.999 251.357 512.878 249.182 512.69 246.698L512.018 237.849C516.153 236.799 520.14 235.418 523.929 233.702L528.948 240.992C530.359 243.042 533.177 243.562 535.243 242.154L548.134 233.369C550.192 231.966 550.721 229.171 549.316 227.124L544.284 219.791C547.264 216.884 549.985 213.728 552.407 210.354L560.451 214.213C562.69 215.287 565.375 214.349 566.45 212.119L573.164 198.189C574.236 195.964 573.296 193.288 571.064 192.21L563.004 188.318C564.102 184.39 564.849 180.328 565.245 176.174L574.211 175.543C576.679 175.37 578.526 173.232 578.339 170.769L577.17 155.364C576.983 152.9 574.831 151.038 572.363 151.204ZM490.871 123.524C516.208 121.915 538.174 140.876 540.071 165.864C541.968 190.853 523.095 212.628 497.779 214.51C472.31 216.404 449.995 197.467 448.077 172.204C446.159 146.941 465.381 125.142 490.871 123.524Z" fill="#D8DEE8"/>
<path d="M587.329 617.677C592.271 621.669 592.551 624.507 592.391 625.889C592.134 628.118 590.453 628.982 586.43 633.189C580.99 638.88 581.822 639.642 579.05 641.7C572.934 646.241 564.286 645.941 563.764 644.396C563.398 643.311 567.309 642.428 571.761 637.275C575.868 632.52 577.259 627.808 577.631 626.426C578.306 623.912 578.482 621.739 578.515 620.236L587.329 617.677Z" fill="url(#paint2_linear_203_946)"/>
<path d="M570.776 605.509L580.508 622.461C582.852 623.497 585.094 622.974 587.172 619.952L583.375 599.344L570.776 605.509Z" fill="url(#paint3_linear_203_946)"/>
<path d="M558.978 388.096C549.496 404.094 534.116 434.97 531.005 476.722C527.933 517.932 538.334 549.338 542.69 561.051C550.853 582.997 565.049 606.041 573.296 617.025C578.858 614.7 582.132 611.054 587.694 608.729C586.858 605.704 584.279 595.715 582.656 589.766C581.398 585.156 579.079 576.627 578.603 574.804C574.609 559.542 577.762 548.089 576.663 529.212C575.381 507.197 570.335 509.756 571.094 496.539C572.227 476.804 583.415 472.197 596.26 443.63C605.052 424.077 614.286 403.541 605.799 392.312C595.116 378.18 562.607 387.065 558.978 388.096Z" fill="url(#paint4_linear_203_946)"/>
<path d="M627.59 633.179C630.555 635.064 632.344 639.544 630.993 642.364C629.665 645.136 626.281 644.26 618.06 646.785C609.255 649.49 607.513 652.223 601.023 652.217C598.4 652.214 593.646 651.763 593.249 650C592.97 648.762 594.988 647.528 601.634 643.065C611.067 636.731 610.969 636.554 613.075 635.582C618.364 633.142 623.675 630.691 627.59 633.179Z" fill="url(#paint5_linear_203_946)"/>
<path d="M613.506 619.754L617.12 636.254C617.625 636.993 622.771 638.757 626.376 636.254L625.047 619.754H613.506Z" fill="url(#paint6_linear_203_946)"/>
<path opacity="0.3" d="M605.798 392.312C595.116 378.18 562.607 387.065 558.978 388.096C555.082 394.669 550.194 403.793 545.567 415.112C557.089 412.848 562.089 414.904 564.42 417.634C573.465 428.235 545.145 451.641 550.968 487.158C553.246 501.049 559.19 507.301 558.103 524.266C557.294 536.892 553.37 543.282 550.657 552.525C549.029 558.071 547.769 564.89 547.709 573.132C555.854 591.029 566.559 608.051 573.296 617.025C578.858 614.7 582.132 611.054 587.694 608.729C586.858 605.705 584.279 595.715 582.656 589.766C581.398 585.156 579.079 576.627 578.603 574.805C574.609 559.542 577.762 548.089 576.663 529.212C575.381 507.197 570.335 509.756 571.094 496.539C572.227 476.804 583.415 472.197 596.26 443.63C605.052 424.077 614.286 403.54 605.798 392.312Z" fill="url(#paint7_linear_203_946)"/>
<path d="M584.368 396.767C583.45 433.581 584.84 476.239 590.9 523.259C595.834 561.539 603.01 596.075 610.913 626.376C612.006 626.993 615.84 628.978 620.751 628.049C624.228 627.391 626.555 625.591 627.59 624.676C626.727 618.487 625.853 609.121 626.568 597.803C627.799 578.348 632.382 574.384 634.349 554.251C636.073 536.595 634.256 522.172 633.375 515.484C630.663 494.899 626.982 494.476 626.909 482.148C626.796 463.164 635.48 456.367 640.254 438.28C643.439 426.215 645.127 408.202 637.119 383.501C619.536 387.922 601.952 392.345 584.368 396.767Z" fill="url(#paint8_linear_203_946)"/>
<path d="M565.575 249.878C559.118 253.503 550.148 259.507 541.788 269.077C522.506 291.146 510.582 327.462 522.975 339.345C531.406 347.428 551.403 344.979 558.291 335.386C563.357 328.33 559.711 319.663 557.961 307.345C556.079 294.09 556.146 274.867 565.575 249.878Z" fill="url(#paint9_linear_203_946)"/>
<path d="M640.451 392.379C633.311 298.317 610.548 259.811 612.537 248.381C609.673 246.322 598.354 243.05 572.711 246.423C570.52 247.228 564.671 249.587 558.873 254.884C558.873 254.884 557.526 256.112 555.683 258.27C573.697 261.67 592.046 271.923 598.652 286.447C610.094 314.222 588.844 345.264 598.652 369.771C603.806 382.65 612.052 394.065 621.895 404.737C633.149 401.932 640.862 397.801 640.451 392.379Z" fill="url(#paint10_linear_203_946)"/>
<path opacity="0.3" d="M637.119 383.5C631.972 384.795 626.824 386.09 621.677 387.384C624.369 396.654 626.955 410.566 623.846 426.361C619.554 448.171 608.461 452.956 606.829 472.623C605.362 490.316 613.719 493.925 617.72 517.525C621.82 541.71 615.615 553.083 614.317 573.311C613.429 587.154 614.87 605.265 623.297 627.306C625.379 626.483 626.833 625.345 627.59 624.676C626.727 618.486 625.853 609.121 626.568 597.802C627.799 578.347 632.382 574.384 634.349 554.25C636.073 536.595 634.256 522.172 633.375 515.484C630.663 494.899 626.982 494.475 626.909 482.148C626.796 463.164 635.48 456.367 640.254 438.28C643.439 426.215 645.128 408.202 637.119 383.5Z" fill="url(#paint11_linear_203_946)"/>
<path d="M558.873 254.884C558.873 254.884 552.05 261.09 548.072 270.206C542.079 283.941 548.534 295.731 550.47 318.16C552.593 342.764 549.589 383.75 542.664 398.434C542.543 398.69 542.243 399.42 542.365 400.345C544.237 414.537 641.889 411.321 640.451 392.379C633.311 298.317 610.548 259.811 612.537 248.381C609.673 246.322 598.354 243.05 572.711 246.423C570.52 247.228 564.67 249.587 558.873 254.884Z" fill="url(#paint12_linear_203_946)"/>
<path d="M587.899 222.804C587.899 222.804 594.206 242.588 596.248 244.968C598.29 247.349 588.051 253.572 580.202 250.766C572.994 248.19 580.208 237.209 580.208 237.209L587.899 222.804Z" fill="url(#paint13_linear_203_946)"/>
<path d="M568.329 218.183C565.857 214.286 566.204 207.856 569.721 204.057C572.746 200.788 577.106 200.639 579.715 200.549C587.278 200.287 596.481 204.175 599.213 211.333C600.832 215.575 595.933 223.723 595.149 225.195C594.263 226.861 592.86 227.343 591.501 228.547C589.618 230.216 586.666 232.873 581.839 237.327C581.608 235.879 581.225 234.08 580.545 232.108C580.284 231.349 579.226 228.381 577.469 225.849C573.948 220.775 570.672 221.878 568.329 218.183Z" fill="url(#paint14_linear_203_946)"/>
<path d="M588.498 233.791C588.498 233.791 582.92 241.472 573.164 240.043C564.429 238.765 564.731 218.979 570.676 215.254C572.66 214.012 576.454 213.735 579.432 214.834C581.191 215.483 581.741 216.28 584.635 217.285C587.306 218.211 588.1 217.971 588.867 218.73C589.827 219.68 590.41 221.864 588.227 227.479C590.039 225.919 592.102 225.43 593.473 226.217C593.691 226.343 594.261 226.801 594.55 227.45C595.596 229.797 593.311 232.502 588.498 233.791Z" fill="url(#paint15_linear_203_946)"/>
<path d="M569.512 230.531C569.512 230.531 571.329 231.674 574.621 231.754C574.781 231.758 574.953 231.819 574.967 231.903C575.017 232.219 572.802 233.443 570.909 232.743C569.565 232.246 568.599 230.858 568.811 230.542C568.901 230.409 569.211 230.452 569.512 230.531Z" fill="url(#paint16_linear_203_946)"/>
<path opacity="0.3" d="M612.916 309.324C602.26 313.064 588.12 323.571 587.171 337.036C585.715 357.715 616.526 369.061 612.421 383.551C611.302 387.501 607.763 391.065 584.696 399.386C575.362 402.753 566.691 405.499 558.819 407.771C587.044 411.929 641.527 406.564 640.45 392.38C637.717 356.371 632.695 328.529 627.647 307.206C622.534 307.005 617.562 307.694 612.916 309.324Z" fill="url(#paint17_linear_203_946)"/>
<path d="M579.366 351.635C596.7 369.224 621.446 374.764 640.472 365.965C666.894 353.745 670.98 319.098 664.819 297.414C654.534 261.213 609.711 240.102 595.59 249.746C585.378 256.72 585.475 283.703 597.646 297.21C608.585 309.35 625.388 306.283 629.958 318.651C633.381 327.915 626.767 337.249 626.198 338.027C618.842 348.093 602.808 351.508 587.645 344.596C584.885 346.942 582.126 349.288 579.366 351.635Z" fill="url(#paint18_linear_203_946)"/>
<path d="M545.047 321.323C546.458 316.791 551.044 314.469 554.651 313.967C558.183 313.475 564.002 314.277 566.318 318.891C568.485 323.206 566.781 329.244 561.8 332.518C561.099 330.779 559.843 328.492 557.631 327.798C553.561 326.523 550.035 331.822 547.028 330.438C544.632 329.334 544.011 324.649 545.047 321.323Z" fill="url(#paint19_linear_203_946)"/>
<path d="M561.691 348.793L575.03 351.111C577.615 351.56 579.833 349.253 579.281 346.69L574.429 324.136C574.077 322.504 572.676 321.31 571.009 321.221L555.039 320.367C552.403 320.226 550.472 322.81 551.354 325.296L558.838 346.386C559.284 347.645 560.375 348.565 561.691 348.793Z" fill="white"/>
<path d="M584.972 346.868C583.877 339.015 580.565 336.96 579.366 336.376C577.356 335.397 576.365 336.157 569.348 336.046C563.079 335.946 561.594 335.304 560.801 336.376C559.299 338.406 562.385 343.741 565.882 346.868C570.785 351.253 576.864 351.629 579.366 351.635L584.972 346.868Z" fill="url(#paint20_linear_203_946)"/>
<path d="M390.526 31.374L448.247 611.609C449.106 620.249 443.154 627.803 434.998 628.398L153.759 651.943C136.615 652.544 127.363 643.313 126.432 634.17L63.8922 19.9894C62.9528 10.7632 71.5179 2.59743 88.8368 2.94997L373.908 14.9626C382.19 15.2747 389.659 22.6601 390.526 31.374Z" fill="url(#paint21_linear_203_946)"/>
<path d="M403.312 30.6343L461.276 613.859C462.139 622.544 456.163 630.138 447.975 630.738L156.401 652.101C147.297 652.768 139.063 645.795 138.128 636.604L75.3079 19.1678C74.3647 9.89242 81.1815 2.58966 90.431 2.93903L386.626 14.1364C394.943 14.4511 402.441 21.875 403.312 30.6343Z" fill="#26264F"/>
<path d="M397.174 62.8159L450.935 603.379C451.742 611.493 446.147 618.576 438.483 619.121L164.239 638.604C155.774 639.206 148.118 632.697 147.247 624.137L89.266 53.8392C88.3883 45.2081 94.7185 38.3694 103.31 38.6427L381.575 47.4943C389.349 47.7418 396.36 54.6364 397.174 62.8159Z" fill="#280041"/>
<path d="M249.671 27.0638C249.985 30.1838 247.781 32.6302 244.747 32.528C241.708 32.4256 238.989 29.8086 238.674 26.683C238.36 23.5569 240.571 21.1103 243.61 21.2188C246.646 21.3271 249.358 23.9438 249.671 27.0638Z" fill="white"/>
<g opacity="0.3">
<path d="M222.676 311.75C193.698 226.171 244.136 183.058 215.573 103.793C200.032 60.6657 168.923 28.5385 134.699 4.61279L90.4313 2.93929C81.1815 2.58968 74.3649 9.89242 75.3077 19.1678L138.128 636.604C139.063 645.795 147.297 652.767 156.4 652.101L408.132 633.657C407.342 569.188 390.955 523.305 372.731 490.687C322.651 401.058 252.682 400.365 222.676 311.75Z" fill="#F4F7FA"/>
</g>
<path d="M388.543 106.513C431.956 142.458 475.369 178.404 518.783 214.349C406.785 264.687 419.819 418.547 307.822 468.885C264.408 432.94 220.995 396.994 177.582 361.049C289.579 310.711 276.545 156.851 388.543 106.513Z" fill="url(#paint22_linear_203_946)"/>
<path d="M496.826 212.51C401.817 266.02 405.397 401.16 310.388 454.67C273.438 424.076 236.488 393.482 199.539 362.889C294.548 309.379 290.967 174.239 385.976 120.729C422.926 151.322 459.876 181.916 496.826 212.51Z" fill="white"/>
<path d="M219.239 347.108C219.727 347.512 220.156 347.895 220.598 348.32C220.637 348.358 220.673 348.392 220.711 348.43C225.765 353.29 228.136 359.435 227.552 365.314C227.048 370.452 224.262 375.364 218.981 378.986C218.211 379.514 217.379 380.008 216.506 380.478C213.204 382.254 209.414 383.436 205.398 384.08C196.126 376.403 186.854 368.726 177.582 361.049C189.486 355.698 199.979 349.178 209.358 341.737C212.735 342.724 216.313 344.685 219.239 347.108Z" fill="url(#paint23_linear_203_946)"/>
<path d="M332.674 441.03C335.721 443.552 337.751 446.324 339.45 449.691C330.108 457.083 319.664 463.563 307.822 468.885C298.334 461.03 288.847 453.175 279.359 445.319C281.56 443.171 284.345 441.157 287.647 439.381C288.52 438.912 289.413 438.469 290.319 438.053C303.837 431.855 320.412 431.857 331.468 440.085C331.51 440.115 331.552 440.148 331.597 440.182C331.96 440.449 332.335 440.749 332.674 441.03Z" fill="url(#paint24_linear_203_946)"/>
<path d="M388.543 106.513C397.815 114.19 407.087 121.867 416.358 129.544C414.158 131.692 411.373 133.706 408.071 135.482C407.198 135.952 406.305 136.395 405.399 136.81C392.018 142.943 375.688 143.039 364.632 135.061C364.114 134.692 363.693 134.372 363.206 133.967C360.281 131.546 357.914 128.584 356.766 125.825C366.146 118.384 376.638 111.863 388.543 106.513Z" fill="url(#paint25_linear_203_946)"/>
<path d="M490.321 190.783C499.808 198.639 509.295 206.494 518.783 214.349C506.94 219.672 496.496 226.152 487.154 233.545C483.036 232.094 479.689 230.414 476.641 227.889C476.302 227.608 475.94 227.297 475.617 226.998C475.578 226.961 475.536 226.926 475.501 226.891C470.576 222.35 468.044 216.61 468.14 210.992C468.239 205.35 471.019 199.857 476.776 195.909C477.546 195.381 478.358 194.872 479.232 194.402C482.533 192.625 486.304 191.428 490.321 190.783Z" fill="url(#paint26_linear_203_946)"/>
<path d="M370.88 242.765C391.67 259.978 397.812 293.596 385.832 318.872C373.853 344.149 346.137 349.733 325.161 332.366C304.372 315.152 298.229 281.534 310.209 256.258C322.189 230.981 349.904 225.397 370.88 242.765Z" fill="url(#paint27_linear_203_946)"/>
<path d="M355.646 272.934C351.987 273.792 348.201 276.277 343.827 281.37C340.745 278.818 337.663 276.266 334.581 273.714C334.702 273.503 334.822 273.291 334.943 273.08C336.153 271.015 337.509 269.155 338.966 267.6C339.801 266.706 340.693 265.866 341.616 265.121C342.651 264.29 342.651 262.488 341.642 261.471C340.371 260.193 339.1 258.915 337.829 257.637C337.03 256.839 335.881 256.815 335.137 257.571C333.886 258.829 332.655 260.24 331.527 261.626C329.994 263.504 328.583 265.479 327.245 267.64C326.168 266.748 325.09 265.856 324.013 264.964C323.07 264.183 321.833 264.306 321.203 265.353C320.568 266.401 320.865 267.806 321.816 268.592C322.916 269.502 324.016 270.413 325.116 271.324C322.479 276.766 321.373 281.859 321.878 286.465C322.39 291.105 324.47 294.939 328.133 297.971C331.674 300.904 335.273 301.932 338.909 301.058C342.529 300.188 346.288 297.411 350.16 292.758C353.583 295.609 357.006 298.459 360.429 301.31C359.088 303.646 357.57 305.794 355.88 307.75C354.796 309.003 353.637 310.173 352.41 311.261C351.36 312.194 351.343 314.086 352.409 315.137C354.052 316.76 355.696 318.382 357.339 320.004C358.16 320.814 359.313 320.788 360.058 319.979C361.289 318.64 362.465 317.19 363.583 315.637C365.093 313.542 366.554 311.172 367.918 308.648C368.083 308.338 368.249 308.029 368.414 307.719C369.586 308.689 370.758 309.66 371.93 310.63C372.881 311.417 374.104 311.303 374.648 310.179C374.654 310.168 374.66 310.156 374.666 310.144C375.21 309.021 374.903 307.645 373.956 306.861C372.768 305.877 371.58 304.893 370.392 303.909C372.085 299.865 373.022 295.997 373.165 292.384C373.236 290.82 373.167 289.266 372.94 287.777C372.202 282.885 369.973 278.955 366.269 275.888C362.844 273.052 359.292 272.084 355.646 272.934ZM352.921 289.444C354.392 287.939 355.856 286.883 357.136 286.629C358.411 286.373 359.689 286.74 360.933 287.77C362.304 288.904 363.097 290.319 363.358 291.947C363.617 293.577 363.299 295.314 362.354 297.255C359.209 294.651 356.065 292.047 352.921 289.444ZM337.305 287.244C336.134 287.528 334.995 287.213 333.896 286.304C332.732 285.341 332.043 284.092 331.824 282.556C331.606 281.018 331.953 279.165 332.6 277.521C335.43 279.865 338.26 282.208 341.09 284.551C339.705 286.128 338.478 286.957 337.305 287.244Z" fill="white"/>
<path opacity="0.2" d="M518.359 213.999C518.501 214.115 518.642 214.232 518.783 214.349C406.786 264.687 419.819 418.547 307.822 468.885C265.326 433.7 222.831 398.514 180.335 363.329C186.517 362.674 193.191 362.285 200.39 362.406C208.701 362.549 217.71 363.369 227.552 365.314C238.482 367.474 250.438 371.017 263.686 376.616C329.14 404.376 347.95 381.002 359.294 341.525C362.41 331.059 365.101 319.539 368.361 307.827C369.799 302.677 371.404 297.486 373.191 292.332C376.699 282.241 380.92 272.287 386.016 263.043C402.686 231.43 431.948 210.036 468.14 210.992C474.771 211.084 481.534 211.864 488.31 213.335C490.076 213.717 491.93 214.007 493.879 214.214C500.924 214.976 509.114 214.678 518.359 213.999Z" fill="url(#paint28_linear_203_946)"/>
<path d="M409.164 237.008C413.049 238.548 415.063 242.661 413.636 246.151L323.661 467.281C322.123 471.041 316.729 473.746 312.72 472.08L166.146 411.164C162.222 409.533 160.595 403.849 162.21 400.171L252.939 182.517C254.432 179.1 258.763 177.538 262.567 179.046L409.164 237.008Z" fill="url(#paint29_linear_203_946)"/>
<path d="M411.56 232.629C415.473 234.178 417.498 238.324 416.057 241.846L324.416 465.793C322.867 469.578 318.296 471.305 314.261 469.629L166.771 408.365C162.822 406.724 160.923 402.351 162.548 398.649L254.253 177.833C255.759 174.384 260.121 172.805 263.951 174.321L411.56 232.629Z" fill="url(#paint30_linear_203_946)"/>
<g opacity="0.7">
<path d="M300.857 385.852L285.331 422.196C284.638 423.818 282.705 424.688 281.035 424.128L271.88 421.056C270.209 420.495 269.412 418.71 270.111 417.088L285.748 380.763C286.436 379.166 288.354 378.316 290.011 378.874L299.088 381.932C300.744 382.49 301.54 384.253 300.857 385.852Z" fill="#F4F7FA"/>
<path d="M321.287 338.027L306.045 373.706C305.365 375.298 303.456 376.146 301.802 375.588L292.736 372.532C291.082 371.974 290.289 370.215 290.974 368.624L306.325 332.964C307.001 331.395 308.895 330.566 310.536 331.122L319.525 334.165C321.164 334.719 321.957 336.457 321.287 338.027Z" fill="#F4F7FA"/>
<path d="M341.346 291.069L326.381 326.102C325.713 327.665 323.827 328.491 322.189 327.936L313.212 324.895C311.574 324.34 310.784 322.607 311.456 321.045L326.529 286.031C327.193 284.491 329.064 283.684 330.689 284.236L339.591 287.264C341.214 287.816 342.004 289.528 341.346 291.069Z" fill="#F4F7FA"/>
<path d="M361.044 244.957L346.348 279.36C345.693 280.895 343.829 281.7 342.207 281.148L333.317 278.123C331.694 277.57 330.907 275.862 331.568 274.328L346.37 239.944C347.021 238.431 348.87 237.644 350.479 238.194L359.296 241.206C360.904 241.755 361.691 243.443 361.044 244.957Z" fill="#F4F7FA"/>
</g>
<path d="M257.008 388.328L249.686 405.564C248.354 408.701 244.514 410.133 241.156 408.746L222.867 401.188C219.519 399.805 217.882 396.116 219.227 392.993L226.615 375.827C227.951 372.723 231.771 371.307 235.107 372.678L253.329 380.164C256.675 381.538 258.332 385.211 257.008 388.328Z" fill="url(#paint31_linear_203_946)"/>
<path d="M254.736 388.817L248.443 403.619C247.21 406.519 243.678 407.837 240.572 406.554L224.865 400.066C221.767 398.786 220.259 395.392 221.502 392.503L227.845 377.754C229.081 374.881 232.598 373.576 235.686 374.845L251.342 381.28C254.439 382.552 255.962 385.933 254.736 388.817ZM222.282 392.824C221.212 395.313 222.51 398.235 225.178 399.337L240.883 405.823C243.557 406.928 246.599 405.793 247.661 403.296L253.955 388.495C255.011 386.012 253.7 383.1 251.033 382.004L235.375 375.569C232.716 374.476 229.687 375.599 228.623 378.074L222.282 392.824Z" fill="url(#paint32_linear_203_946)"/>
<path d="M237.859 376.164L227.356 400.666L226.576 400.344L237.08 375.844L237.859 376.164Z" fill="url(#paint33_linear_203_946)"/>
<path d="M243.744 378.583L233.261 403.104L232.479 402.782L242.966 378.263L243.744 378.583Z" fill="url(#paint34_linear_203_946)"/>
<path d="M249.635 381.004L239.17 405.545L238.388 405.222L248.856 380.684L249.635 381.004Z" fill="url(#paint35_linear_203_946)"/>
<path d="M249.83 391.453L246.909 398.314C246.167 400.058 244.03 400.854 242.161 400.083L228.452 394.427C226.587 393.658 225.673 391.605 226.42 389.866L229.358 383.024C230.103 381.29 232.235 380.499 234.097 381.265L247.783 386.896C249.649 387.664 250.57 389.714 249.83 391.453Z" fill="#FEC045"/>
<path d="M250.22 391.614L247.3 398.476C246.47 400.425 244.094 401.31 242.005 400.448L228.296 394.792C226.211 393.932 225.195 391.65 226.03 389.706L228.969 382.864C229.802 380.926 232.171 380.046 234.253 380.902L247.937 386.533C250.023 387.391 251.048 389.67 250.22 391.614ZM226.809 390.027C226.147 391.57 226.953 393.381 228.608 394.064L242.316 399.719C243.974 400.403 245.86 399.701 246.518 398.153L249.44 391.292C250.096 389.75 249.283 387.94 247.628 387.259L233.941 381.628C232.289 380.948 230.408 381.646 229.747 383.185L226.809 390.027Z" fill="url(#paint36_linear_203_946)"/>
<path opacity="0.15" d="M317.139 376.272C311.796 395.706 307.062 407.54 296.921 418.889C282.995 434.474 265.643 441.579 254.797 444.929L314.261 469.629C318.296 471.305 322.867 469.577 324.416 465.793L416.057 241.845C417.499 238.324 415.473 234.177 411.56 232.629L387.928 223.273C351.891 247.821 338.291 272.862 332.625 291.634C325.78 314.315 329.832 330.111 317.139 376.272Z" fill="url(#paint37_linear_203_946)"/>
<g opacity="0.42">
<path d="M333.799 386.464L313.103 436.593C312.709 437.548 311.551 437.983 310.529 437.561L302.115 434.084C301.094 433.663 300.583 432.538 300.979 431.585L321.751 381.538C322.14 380.6 323.288 380.172 324.301 380.586L332.658 384.002C333.673 384.417 334.186 385.525 333.799 386.464Z" fill="url(#paint38_linear_203_946)"/>
<path d="M373.789 290.31L346.25 356.993C345.858 357.944 344.7 358.381 343.678 357.966L335.263 354.544C334.243 354.129 333.73 353.013 334.124 352.064L361.762 285.486C362.148 284.557 363.291 284.129 364.303 284.535L372.645 287.879C373.658 288.285 374.173 289.379 373.789 290.31Z" fill="url(#paint39_linear_203_946)"/>
</g>
<path opacity="0.26" d="M288.312 209.895C298.458 213.931 303.131 225.66 298.773 235.998C294.456 246.238 282.901 251.226 272.94 247.234C262.992 243.247 258.26 231.755 262.393 221.473C266.566 211.091 278.18 205.865 288.312 209.895Z" fill="url(#paint40_linear_203_946)"/>
<g opacity="0.53">
<path d="M250.447 366.101C251.111 367.713 250.335 369.583 248.704 370.273C247.066 370.967 245.2 370.203 244.545 368.571C243.893 366.948 244.692 365.088 246.321 364.414C247.944 363.742 249.787 364.496 250.447 366.101Z" fill="#F4F7FA"/>
<path d="M265.851 361.598C265.741 361.878 265.524 362.115 265.225 362.241C264.625 362.494 263.924 362.208 263.661 361.603C259.784 352.665 249.415 348.438 240.254 352.048C239.635 352.293 238.936 352.008 238.697 351.413C238.457 350.819 238.765 350.142 239.384 349.9C249.729 345.858 261.425 350.624 265.831 360.692C265.963 360.993 265.961 361.317 265.851 361.598Z" fill="#F4F7FA"/>
<path d="M261.493 363.434C261.38 363.717 261.159 363.956 260.856 364.084C260.248 364.34 259.544 364.052 259.284 363.442C256.456 356.807 248.78 353.675 242.012 356.387C241.39 356.637 240.687 356.35 240.444 355.747C240.201 355.145 240.509 354.458 241.13 354.211C249.099 351.044 258.128 354.726 261.479 362.519C261.61 362.824 261.606 363.151 261.493 363.434Z" fill="#F4F7FA"/>
<path d="M257.081 365.293C256.964 365.579 256.739 365.82 256.433 365.95C255.818 366.209 255.109 365.919 254.852 365.304C253.063 361.029 248.131 359.015 243.793 360.784C243.168 361.038 242.46 360.749 242.214 360.139C241.968 359.529 242.276 358.831 242.899 358.579C245.602 357.486 248.547 357.486 251.209 358.573C253.871 359.66 255.952 361.713 257.074 364.37C257.204 364.676 257.197 365.007 257.081 365.293Z" fill="#F4F7FA"/>
</g>
<path d="M295.439 344.731C295.439 384.737 264.141 416.207 224.139 414.979C182.51 413.701 147.498 377.766 147.498 334.762C147.498 291.759 182.51 260.542 224.139 264.874C264.141 269.037 295.439 304.725 295.439 344.731Z" fill="url(#paint41_linear_203_946)"/>
<path d="M306.248 341.281C306.248 381.287 274.95 412.757 234.949 411.529C193.319 410.251 158.307 374.316 158.307 331.312C158.307 288.309 193.319 257.092 234.949 261.424C274.95 265.588 306.248 301.276 306.248 341.281Z" fill="url(#paint42_linear_203_946)"/>
<path d="M303.108 341.07C303.108 379.314 273.162 409.347 234.948 408.11C195.252 406.826 161.922 372.531 161.922 331.556C161.922 290.582 195.252 260.779 234.948 264.844C273.162 268.757 303.108 302.826 303.108 341.07Z" fill="url(#paint43_linear_203_946)"/>
<path d="M300.859 340.918C300.859 377.9 271.883 406.908 234.949 405.668C196.631 404.383 164.498 371.259 164.498 331.73C164.498 292.2 196.631 263.408 234.949 267.286C271.883 271.024 300.859 303.937 300.859 340.918Z" fill="url(#paint44_linear_203_946)"/>
<path d="M234.57 279.867C236.536 280.054 238.127 281.822 238.127 283.818V290.627C242.057 291.065 245.992 291.748 249.933 292.674C252.839 293.356 255.726 294.169 258.593 295.111C260.311 295.676 261.481 297.409 261.306 299.197L260.469 307.735C260.248 310.001 258.007 311.331 255.898 310.391C254.009 309.549 252.073 308.828 250.089 308.228C246.626 307.181 242.974 306.498 239.132 306.181L238.127 306.099V325.599C248.38 328.466 255.909 332.323 260.776 337.174C265.618 342.003 268.031 348.02 268.031 355.244C268.031 363.056 265.363 369.311 260.007 374.029C254.622 378.771 247.073 381.439 237.31 382.016V389.531C237.31 391.528 235.718 393.082 233.751 393.004L233.688 393.002C231.717 392.923 230.116 391.236 230.116 389.233V381.82L228.532 381.748C223.955 381.542 219.571 381.075 215.382 380.347C212.28 379.808 209.251 379.112 206.296 378.258C204.508 377.742 203.281 376.04 203.445 374.212L204.43 363.236C204.642 360.863 207.027 359.483 209.284 360.373C211.915 361.41 214.579 362.284 217.276 362.995C221.478 364.102 225.737 364.813 230.053 365.128L230.116 343.437C220.275 341.003 212.906 337.398 208.065 332.623C203.202 327.825 200.761 321.685 200.761 314.22C200.761 306.494 203.407 300.53 208.68 296.345C213.925 292.181 221.382 290.109 231.002 290.115V283.153C231.002 281.151 232.601 279.68 234.57 279.867ZM231.002 305.897C227.96 306.118 225.588 306.953 223.891 308.403C222.19 309.855 221.339 311.807 221.339 314.256C221.339 316.577 222.127 318.516 223.7 320.073C225.27 321.628 227.706 322.869 231.002 323.797L231.002 305.897ZM237.309 345.175V365.067C240.616 365.073 243.151 364.284 244.921 362.702C246.688 361.122 247.571 358.891 247.571 356.006C247.571 353.375 246.75 351.194 245.109 349.459C243.464 347.721 240.867 346.294 237.309 345.175Z" fill="url(#paint45_linear_203_946)"/>
<path opacity="0.3" d="M223.021 349.975C225.248 327.991 245.462 318.685 242.824 298.464C241.198 286.001 231.747 275.498 221.204 267.297C189.226 270.649 164.498 297.115 164.498 331.73C164.498 371.26 196.63 404.383 234.948 405.668C238.669 405.793 242.302 405.6 245.835 405.137C230.618 390.002 221.108 368.861 223.021 349.975Z" fill="url(#paint46_linear_203_946)"/>
<path d="M257.298 185.263C257.298 212.207 236.219 233.403 209.277 232.576C181.239 231.715 157.658 207.512 157.658 178.549C157.658 149.585 181.239 128.56 209.277 131.478C236.219 134.282 257.298 158.319 257.298 185.263Z" fill="url(#paint47_linear_203_946)"/>
<path d="M264.578 182.94C264.578 209.884 243.499 231.08 216.557 230.253C188.519 229.392 164.938 205.189 164.938 176.226C164.938 147.262 188.519 126.237 216.557 129.155C243.499 131.959 264.578 155.996 264.578 182.94Z" fill="url(#paint48_linear_203_946)"/>
<path d="M262.464 182.797C262.464 208.555 242.295 228.783 216.557 227.95C189.821 227.085 167.373 203.987 167.373 176.39C167.373 148.793 189.821 128.72 216.557 131.458C242.295 134.093 262.464 157.04 262.464 182.797Z" fill="url(#paint49_linear_203_946)"/>
<path d="M260.949 182.695C260.949 207.603 241.433 227.14 216.557 226.305C190.749 225.439 169.107 203.13 169.107 176.506C169.107 149.882 190.749 130.49 216.557 133.102C241.433 135.62 260.949 157.787 260.949 182.695Z" fill="url(#paint50_linear_203_946)"/>
<path d="M216.303 141.576C217.626 141.702 218.698 142.893 218.698 144.236V148.822C221.345 149.118 223.995 149.578 226.65 150.201C228.607 150.661 230.551 151.208 232.482 151.843C233.639 152.223 234.427 153.39 234.309 154.595L233.746 160.346C233.596 161.871 232.087 162.767 230.667 162.134C229.395 161.567 228.091 161.082 226.754 160.677C224.422 159.972 221.962 159.512 219.374 159.299L218.697 159.243V172.377C225.603 174.308 230.674 176.906 233.951 180.173C237.213 183.425 238.838 187.478 238.838 192.343C238.838 197.604 237.042 201.817 233.434 204.995C229.807 208.189 224.722 209.986 218.147 210.375V215.436C218.147 216.781 217.075 217.828 215.75 217.775L215.707 217.773C214.38 217.721 213.302 216.584 213.302 215.235V210.242L212.235 210.194C209.152 210.055 206.199 209.741 203.378 209.25C201.289 208.887 199.249 208.418 197.258 207.843C196.054 207.496 195.228 206.35 195.338 205.118L196.001 197.726C196.144 196.128 197.75 195.198 199.271 195.797C201.043 196.496 202.837 197.085 204.653 197.563C207.483 198.309 210.352 198.788 213.259 199L213.301 184.391C206.673 182.752 201.71 180.324 198.45 177.107C195.174 173.876 193.531 169.74 193.531 164.712C193.531 159.509 195.313 155.493 198.864 152.674C202.397 149.869 207.419 148.474 213.898 148.477V143.789C213.899 142.441 214.976 141.45 216.303 141.576ZM213.899 159.107C211.851 159.256 210.253 159.818 209.11 160.795C207.964 161.773 207.391 163.087 207.391 164.737C207.391 166.3 207.921 167.607 208.981 168.655C210.039 169.702 211.68 170.538 213.899 171.163V159.107ZM218.147 185.562V198.959C220.374 198.963 222.082 198.432 223.274 197.366C224.464 196.302 225.058 194.799 225.058 192.856C225.058 191.085 224.506 189.615 223.4 188.447C222.292 187.277 220.543 186.315 218.147 185.562Z" fill="url(#paint51_linear_203_946)"/>
<path opacity="0.3" d="M208.524 188.794C210.024 173.988 223.638 167.72 221.861 154.101C220.766 145.707 214.401 138.633 207.3 133.11C185.762 135.368 169.108 153.193 169.108 176.507C169.108 203.13 190.75 225.439 216.557 226.305C219.063 226.389 221.51 226.259 223.89 225.947C213.641 215.753 207.235 201.515 208.524 188.794Z" fill="url(#paint52_linear_203_946)"/>
<path d="M412.681 387.026L428.748 574.535C429.163 579.371 427.694 583.915 424.61 587.168C421.971 589.966 418.427 591.863 414.289 592.211L177.603 612.134C167.575 612.978 158.984 605.85 158.272 596.297L143.4 396.808C142.7 387.418 150.152 379.246 160.122 378.922L395.339 371.276C404.265 370.986 411.924 378.197 412.681 387.026Z" fill="#460072"/>
<path opacity="0.2" d="M424.869 587.168C422.23 589.966 418.591 591.86 414.453 592.208L177.682 612.133C167.654 612.977 158.984 605.85 158.272 596.297L143.4 396.808C142.7 387.418 150.152 379.246 160.122 378.922L162.861 378.833C163.854 383.982 165.186 389.764 166.458 395.311C166.635 396.082 166.816 396.915 166.99 397.654C168.466 404.057 169.732 409.323 169.957 410.001C177.338 432.09 187.772 457.472 209.817 469.821C243.503 488.705 286.154 485.313 321.578 495.653C344.907 502.463 368.857 511.667 387.418 527.07C400.978 538.325 412.423 552.204 419.117 568.442C421.542 574.32 423.441 580.663 424.869 587.168Z" fill="#350055"/>
<g opacity="0.7">
<path d="M395.356 584.05C395.353 584.05 395.349 584.05 395.346 584.05L387.192 584.553C386.265 584.629 385.445 583.86 385.367 582.936C385.29 582.012 385.973 581.324 386.9 581.248L395.037 580.71C395.04 580.71 395.044 580.71 395.046 580.71C396.441 580.71 397.798 580.16 399.101 579.73C399.975 579.436 400.928 579.835 401.22 580.712C401.513 581.589 401.051 582.657 400.175 582.948C398.62 583.463 397.018 584.05 395.356 584.05ZM374.424 585.435L361.591 586.484C360.653 586.561 359.83 585.87 359.753 584.94C359.675 584.01 360.374 583.195 361.312 583.119L374.144 582.079C375.076 582.004 375.894 582.693 375.971 583.619C376.049 584.545 375.356 585.359 374.424 585.435ZM348.681 587.541L335.695 588.603C334.745 588.681 333.913 587.985 333.837 587.05C333.76 586.115 334.468 585.294 335.417 585.217L348.403 584.165C349.346 584.089 350.173 584.782 350.25 585.714C350.327 586.646 349.624 587.464 348.681 587.541ZM322.631 589.672L309.489 590.747C308.528 590.826 307.687 590.126 307.612 589.185C307.536 588.244 308.253 587.418 309.214 587.341L322.354 586.276C323.309 586.199 324.144 586.896 324.22 587.833C324.297 588.77 323.585 589.594 322.631 589.672ZM296.267 591.829L282.966 592.917C281.993 592.996 281.144 592.293 281.068 591.346C280.993 590.4 281.72 589.568 282.693 589.49L295.993 588.412C296.959 588.334 297.803 589.035 297.879 589.978C297.955 590.921 297.233 591.749 296.267 591.829ZM269.584 594.011L256.12 595.113C255.136 595.193 254.278 594.486 254.203 593.534C254.128 592.581 254.865 591.744 255.849 591.665L269.312 590.574C270.289 590.495 271.143 591.2 271.218 592.149C271.293 593.097 270.561 593.932 269.584 594.011ZM242.575 596.221L228.947 597.336C227.951 597.417 227.083 596.707 227.009 595.748C226.934 594.789 227.682 593.947 228.678 593.866L242.305 592.762C243.295 592.682 244.157 593.391 244.232 594.346C244.307 595.3 243.565 596.14 242.575 596.221ZM215.236 598.458L201.44 599.586C200.431 599.669 199.554 598.953 199.48 597.989C199.407 597.024 200.165 596.176 201.173 596.095L214.968 594.977C215.97 594.896 216.841 595.609 216.915 596.569C216.989 597.53 216.237 598.376 215.236 598.458ZM187.561 600.316C187.439 600.326 187.314 600.325 187.187 600.31C182.152 599.748 177.403 597.544 173.823 594.1C173.108 593.413 173.122 592.297 173.853 591.609C174.586 590.92 175.757 590.921 176.47 591.608C179.47 594.494 183.447 596.345 187.665 596.82C188.673 596.932 189.383 597.805 189.252 598.77C189.137 599.612 188.415 600.246 187.561 600.316ZM409.615 575.274C409.255 575.303 408.884 575.216 408.558 575C407.79 574.49 407.576 573.453 408.083 572.686C410.23 569.433 411.188 565.651 410.856 561.748C410.778 560.831 411.457 560.031 412.372 559.961C413.287 559.891 414.091 560.577 414.169 561.493C414.565 566.145 413.424 570.654 410.866 574.535C410.574 574.978 410.106 575.234 409.615 575.274ZM169.401 582.766C168.41 582.843 167.504 582.198 167.397 581.252C167.367 580.993 167.314 580.769 167.295 580.507L166.351 567.926C166.279 566.957 166.89 566.101 167.912 566.026C168.933 565.951 169.661 566.665 169.733 567.632L170.677 580.201C170.694 580.42 170.902 580.614 170.927 580.832C171.036 581.797 170.395 582.68 169.374 582.759C169.351 582.76 169.423 582.764 169.401 582.766ZM412.301 556.943C411.386 557.013 410.892 556.33 410.814 555.413L409.745 542.842C409.667 541.926 410.035 541.128 410.95 541.062C411.864 540.995 412.357 541.681 412.435 542.596L413.504 555.156C413.582 556.071 413.215 556.874 412.301 556.943ZM167.178 556.25C166.157 556.323 165.428 555.607 165.355 554.639L164.36 541.367C164.288 540.401 164.899 539.553 165.92 539.484C166.94 539.415 167.668 540.134 167.74 541.099L168.736 554.359C168.809 555.325 168.199 556.177 167.178 556.25ZM410.164 531.821C409.249 531.885 408.755 531.198 408.678 530.283L407.611 517.737C407.533 516.824 407.901 516.033 408.815 515.972C409.729 515.912 410.221 516.602 410.299 517.514L411.366 530.049C411.444 530.962 411.078 531.757 410.164 531.821ZM165.188 529.73C164.168 529.797 163.439 529.075 163.366 528.11L162.374 514.867C162.301 513.902 162.913 513.063 163.933 513C164.952 512.937 165.68 513.661 165.752 514.624L166.746 527.855C166.818 528.819 166.208 529.663 165.188 529.73ZM408.03 506.751C407.116 506.809 406.623 506.117 406.545 505.204L405.481 492.684C405.403 491.773 405.771 490.989 406.685 490.934C407.598 490.879 408.091 491.574 408.168 492.484L409.233 504.993C409.311 505.905 408.944 506.692 408.03 506.751ZM163.202 503.267C162.183 503.328 161.454 502.601 161.382 501.638L160.391 488.423C160.319 487.461 160.931 486.631 161.95 486.573C162.969 486.516 163.695 487.245 163.768 488.207L164.759 501.408C164.831 502.371 164.222 503.206 163.202 503.267ZM405.902 481.732C404.988 481.785 404.495 481.088 404.417 480.177L403.355 467.683C403.278 466.773 403.646 465.997 404.559 465.948C405.472 465.898 405.964 466.597 406.042 467.506L407.104 479.989C407.182 480.899 406.815 481.678 405.902 481.732ZM161.221 476.861C160.202 476.916 159.474 476.185 159.402 475.223L158.413 462.037C158.341 461.077 158.953 460.255 159.971 460.204C160.989 460.153 161.716 460.887 161.788 461.846L162.777 475.019C162.849 475.98 162.239 476.806 161.221 476.861ZM403.778 456.764C402.864 456.812 402.371 456.111 402.294 455.201L401.234 442.733C401.156 441.825 401.525 441.057 402.438 441.012C403.35 440.968 403.842 441.671 403.919 442.579L404.98 455.036C405.057 455.944 404.69 456.716 403.778 456.764ZM159.244 450.513C158.225 450.562 157.497 449.825 157.426 448.866L156.439 435.708C156.367 434.751 156.978 433.937 157.996 433.892C159.014 433.846 159.74 434.585 159.812 435.543L160.799 448.687C160.872 449.646 160.262 450.464 159.244 450.513ZM401.658 431.847C400.745 431.89 400.252 431.184 400.175 430.277L399.117 417.835C399.04 416.928 399.408 416.168 400.321 416.129C401.233 416.09 401.725 416.798 401.802 417.703L402.86 430.134C402.937 431.04 402.57 431.805 401.658 431.847ZM157.271 424.221C156.253 424.264 155.526 423.523 155.454 422.565L154.713 412.687C154.625 411.508 154.671 410.318 154.787 409.157C154.883 408.206 155.802 407.539 156.814 407.648C157.829 407.765 158.394 408.632 158.3 409.581C158.202 410.555 158.01 411.554 158.085 412.544L158.826 422.413C158.898 423.369 158.288 424.178 157.271 424.221ZM399.542 406.982C398.63 407.019 398.137 406.309 398.06 405.404L397.855 402.998C397.594 399.928 396.258 396.958 394.458 394.399C393.925 393.64 393.973 392.627 394.718 392.134C395.464 391.642 396.375 391.861 396.908 392.62C399.053 395.672 400.228 399.222 400.539 402.88L400.744 405.283C400.821 406.188 400.454 406.945 399.542 406.982ZM162.474 399.551C161.976 399.57 161.465 399.399 161.075 399.039C160.338 398.36 160.309 397.266 161.009 396.596C164.512 393.243 169.199 391.111 174.201 390.588C175.198 390.502 176.129 391.165 176.274 392.11C176.419 393.055 175.727 393.906 174.727 394.012C170.536 394.453 166.612 396.242 163.677 399.054C163.347 399.369 162.916 399.535 162.474 399.551ZM385.618 387.634C385.419 387.642 385.215 387.613 385.012 387.545C382.972 386.864 380.853 386.558 378.712 386.635L373.054 386.838C372.132 386.871 371.322 386.161 371.246 385.253C371.169 384.344 371.855 383.581 372.777 383.549L378.435 383.35C380.986 383.26 383.513 383.627 385.946 384.442C386.829 384.737 387.335 385.671 387.077 386.527C386.879 387.188 386.284 387.61 385.618 387.634ZM360.366 387.294L347.602 387.753C346.67 387.786 345.852 387.072 345.776 386.158C345.7 385.244 346.395 384.477 347.328 384.444L360.09 383.995C361.017 383.962 361.83 384.674 361.906 385.585C361.982 386.495 361.292 387.261 360.366 387.294ZM334.764 388.214L321.85 388.678C320.906 388.712 320.08 387.994 320.004 387.074C319.929 386.155 320.634 385.382 321.577 385.349L334.491 384.895C335.428 384.862 336.25 385.578 336.325 386.494C336.401 387.41 335.702 388.18 334.764 388.214ZM308.86 389.144L295.792 389.614C294.836 389.648 294.001 388.926 293.926 388.001C293.852 387.076 294.566 386.299 295.521 386.265L308.588 385.806C309.537 385.772 310.367 386.492 310.442 387.414C310.517 388.335 309.808 389.11 308.86 389.144ZM282.646 390.086L269.422 390.561C268.455 390.596 267.611 389.87 267.537 388.939C267.463 388.009 268.187 387.227 269.153 387.193L282.376 386.728C283.336 386.694 284.175 387.418 284.25 388.345C284.324 389.272 283.606 390.052 282.646 390.086ZM256.117 391.04L242.734 391.52C241.756 391.555 240.903 390.825 240.829 389.889C240.755 388.952 241.489 388.166 242.468 388.131L255.849 387.661C256.821 387.627 257.669 388.355 257.743 389.288C257.817 390.22 257.089 391.004 256.117 391.04ZM229.27 392.004L215.723 392.491C214.733 392.526 213.871 391.791 213.798 390.849C213.725 389.908 214.469 389.116 215.459 389.081L229.004 388.604C229.988 388.57 230.845 389.302 230.918 390.241C230.991 391.179 230.253 391.969 229.27 392.004ZM202.095 392.98L188.383 393.473C187.381 393.509 186.51 392.77 186.437 391.822C186.365 390.874 187.119 390.078 188.121 390.042L201.832 389.56C202.827 389.525 203.693 390.262 203.766 391.206C203.839 392.15 203.091 392.945 202.095 392.98Z" fill="white"/>
</g>
<path d="M422.218 438.666C420.776 437.786 419.049 437.648 417.542 438.299L369.412 458.879C362.508 461.862 357.795 468.851 358.42 476.369L360.081 496.349C360.747 504.348 367.217 511.032 375.147 512.778L424.955 523.679C426.529 524.026 428.235 523.612 429.432 522.563C430.627 521.514 431.325 519.954 431.187 518.351L424.683 442.713C424.54 441.058 423.659 439.545 422.218 438.666Z" fill="url(#paint53_linear_203_946)"/>
<path d="M390.422 484.088C390.889 489.616 386.752 494.375 381.169 494.715C375.572 495.056 370.647 490.829 370.183 485.275C369.718 479.723 373.889 474.969 379.484 474.654C385.064 474.34 389.955 478.563 390.422 484.088Z" fill="url(#paint54_linear_203_946)"/>
<circle cx="799.085" cy="131.085" r="90" transform="rotate(-73.0211 799.085 131.085)" stroke="#6050E0" stroke-width="30"/>
<mask id="path-80-inside-1_203_946" fill="white">
<path d="M829.747 30.6621C816.56 26.6355 802.708 25.2459 788.983 26.5725C775.258 27.8992 761.929 31.9162 749.757 38.3941C737.584 44.872 726.807 53.6841 718.04 64.3271C709.273 74.9701 702.689 87.2356 698.662 100.423L727.398 109.197C730.273 99.7833 734.973 91.0275 741.231 83.43C747.49 75.8325 755.183 69.5421 763.872 64.9178C772.561 60.2935 782.076 57.426 791.874 56.479C801.671 55.532 811.559 56.524 820.973 59.3984L829.747 30.6621Z"/>
</mask>
<path d="M829.747 30.6621C816.56 26.6355 802.708 25.2459 788.983 26.5725C775.258 27.8992 761.929 31.9162 749.757 38.3941C737.584 44.872 726.807 53.6841 718.04 64.3271C709.273 74.9701 702.689 87.2356 698.662 100.423L727.398 109.197C730.273 99.7833 734.973 91.0275 741.231 83.43C747.49 75.8325 755.183 69.5421 763.872 64.9178C772.561 60.2935 782.076 57.426 791.874 56.479C801.671 55.532 811.559 56.524 820.973 59.3984L829.747 30.6621Z" stroke="#4576F1" stroke-width="60" mask="url(#path-80-inside-1_203_946)"/>
<g clip-path="url(#clip0_203_946)">
<path d="M728.575 531.264C728.062 531.142 727.531 531.123 727.013 531.208C726.494 531.294 725.999 531.481 725.555 531.761C725.111 532.04 724.728 532.406 724.427 532.836C724.127 533.266 723.915 533.753 723.804 534.268C723.693 534.782 723.685 535.315 723.781 535.835C723.877 536.354 724.074 536.851 724.362 537.295C724.65 537.739 725.022 538.123 725.457 538.423C725.893 538.723 726.382 538.934 726.898 539.044L752.252 544.752L749.215 570.563C749.147 571.085 749.184 571.617 749.322 572.127C749.461 572.638 749.699 573.116 750.022 573.535C750.346 573.954 750.748 574.305 751.207 574.568C751.665 574.831 752.17 575.001 752.692 575.067C753.215 575.133 753.744 575.095 754.25 574.955C754.756 574.814 755.228 574.574 755.639 574.248C756.049 573.922 756.391 573.517 756.644 573.057C756.896 572.596 757.055 572.089 757.11 571.565L760.565 542.162C760.681 541.178 760.426 540.183 759.851 539.371C759.276 538.559 758.423 537.989 757.456 537.771L728.575 531.264Z" fill="#E4B200"/>
<path d="M739.065 550.706L710.183 544.199C709.158 543.981 708.093 544.176 707.217 544.742C706.341 545.308 705.727 546.2 705.506 547.224C705.285 548.247 705.477 549.32 706.038 550.211C706.6 551.101 707.487 551.736 708.506 551.979L733.861 557.687L730.824 583.498C730.756 584.02 730.792 584.552 730.931 585.062C731.07 585.573 731.308 586.051 731.631 586.47C731.955 586.889 732.357 587.24 732.816 587.503C733.274 587.766 733.779 587.936 734.301 588.002C734.824 588.068 735.353 588.03 735.859 587.89C736.365 587.749 736.836 587.509 737.247 587.183C737.658 586.857 738 586.452 738.252 585.992C738.505 585.531 738.663 585.024 738.718 584.5L742.174 555.097C742.289 554.113 742.035 553.118 741.46 552.306C740.885 551.494 740.031 550.924 739.065 550.706Z" fill="#E4B200"/>
<path d="M720.715 563.699L691.833 557.192C690.808 556.974 689.742 557.169 688.867 557.735C687.991 558.302 687.376 559.193 687.156 560.217C686.935 561.24 687.126 562.314 687.688 563.204C688.25 564.094 689.136 564.729 690.156 564.972L715.511 570.68L712.473 596.491C712.406 597.014 712.442 597.545 712.581 598.056C712.719 598.566 712.957 599.044 713.281 599.463C713.604 599.882 714.007 600.233 714.465 600.496C714.924 600.759 715.429 600.929 715.951 600.995C716.473 601.062 717.003 601.023 717.509 600.883C718.014 600.742 718.486 600.502 718.897 600.176C719.308 599.85 719.65 599.446 719.902 598.985C720.155 598.524 720.313 598.017 720.368 597.493L723.824 568.09C723.939 567.106 723.685 566.111 723.11 565.299C722.535 564.487 721.681 563.917 720.715 563.699Z" fill="#E4B200"/>
<path d="M702.365 576.692L673.483 570.185C672.458 569.967 671.392 570.162 670.517 570.728C669.641 571.294 669.026 572.186 668.806 573.21C668.585 574.233 668.776 575.306 669.338 576.197C669.899 577.087 670.786 577.722 671.806 577.965L697.161 583.673L694.123 609.484C694.056 610.006 694.092 610.538 694.231 611.049C694.369 611.559 694.607 612.037 694.931 612.456C695.254 612.875 695.657 613.226 696.115 613.489C696.573 613.752 697.078 613.922 697.601 613.988C698.123 614.054 698.653 614.016 699.158 613.876C699.664 613.735 700.136 613.495 700.547 613.169C700.958 612.843 701.299 612.438 701.552 611.978C701.804 611.517 701.963 611.01 702.018 610.486L705.474 581.083C705.589 580.099 705.334 579.104 704.76 578.292C704.185 577.48 703.331 576.91 702.365 576.692Z" fill="#E4B200"/>
</g>
<defs>
<linearGradient id="paint0_linear_203_946" x1="77.3842" y1="304.23" x2="179.305" y2="1093.68" gradientUnits="userSpaceOnUse">
<stop stop-color="#BA48FF"/>
<stop offset="1" stop-color="#FB6FBB"/>
</linearGradient>
<linearGradient id="paint1_linear_203_946" x1="3.44485" y1="473.271" x2="384.732" y2="817.927" gradientUnits="userSpaceOnUse">
<stop stop-color="#AA80F9"/>
<stop offset="0.9964" stop-color="#6165D7"/>
</linearGradient>
<linearGradient id="paint2_linear_203_946" x1="564.359" y1="630.951" x2="592.107" y2="632.24" gradientUnits="userSpaceOnUse">
<stop stop-color="#444B8C"/>
<stop offset="0.9964" stop-color="#26264F"/>
</linearGradient>
<linearGradient id="paint3_linear_203_946" x1="587.467" y1="598.781" x2="572.355" y2="623.626" gradientUnits="userSpaceOnUse">
<stop stop-color="#FFC444"/>
<stop offset="0.9964" stop-color="#F36F56"/>
</linearGradient>
<linearGradient id="paint4_linear_203_946" x1="534.087" y1="626.039" x2="593.046" y2="414.371" gradientUnits="userSpaceOnUse">
<stop stop-color="#AA80F9"/>
<stop offset="0.9964" stop-color="#6165D7"/>
</linearGradient>
<linearGradient id="paint5_linear_203_946" x1="593.224" y1="642.178" x2="631.451" y2="642.178" gradientUnits="userSpaceOnUse">
<stop stop-color="#444B8C"/>
<stop offset="0.9964" stop-color="#26264F"/>
</linearGradient>
<linearGradient id="paint6_linear_203_946" x1="614.027" y1="640.238" x2="628.747" y2="609.757" gradientUnits="userSpaceOnUse">
<stop stop-color="#FFC444"/>
<stop offset="0.9964" stop-color="#F36F56"/>
</linearGradient>
<linearGradient id="paint7_linear_203_946" x1="534.759" y1="626.226" x2="593.719" y2="414.558" gradientUnits="userSpaceOnUse">
<stop stop-color="#AA80F9"/>
<stop offset="0.9964" stop-color="#6165D7"/>
</linearGradient>
<linearGradient id="paint8_linear_203_946" x1="591.484" y1="533.561" x2="678.206" y2="396.777" gradientUnits="userSpaceOnUse">
<stop stop-color="#AA80F9"/>
<stop offset="0.9964" stop-color="#6165D7"/>
</linearGradient>
<linearGradient id="paint9_linear_203_946" x1="526.291" y1="234.506" x2="554.462" y2="334.473" gradientUnits="userSpaceOnUse">
<stop stop-color="#311944"/>
<stop offset="1" stop-color="#893976"/>
</linearGradient>
<linearGradient id="paint10_linear_203_946" x1="574.989" y1="220.991" x2="630.32" y2="417.342" gradientUnits="userSpaceOnUse">
<stop stop-color="#311944"/>
<stop offset="1" stop-color="#893976"/>
</linearGradient>
<linearGradient id="paint11_linear_203_946" x1="602.663" y1="540.649" x2="689.386" y2="403.865" gradientUnits="userSpaceOnUse">
<stop stop-color="#AA80F9"/>
<stop offset="0.9964" stop-color="#6165D7"/>
</linearGradient>
<linearGradient id="paint12_linear_203_946" x1="543.148" y1="202.817" x2="598.481" y2="399.172" gradientUnits="userSpaceOnUse">
<stop stop-color="#311944"/>
<stop offset="1" stop-color="#893976"/>
</linearGradient>
<linearGradient id="paint13_linear_203_946" x1="594.412" y1="260.029" x2="574.02" y2="217.55" gradientUnits="userSpaceOnUse">
<stop stop-color="#FFC444"/>
<stop offset="0.9964" stop-color="#F36F56"/>
</linearGradient>
<linearGradient id="paint14_linear_203_946" x1="581.878" y1="192.557" x2="584.152" y2="229.277" gradientUnits="userSpaceOnUse">
<stop stop-color="#444B8C"/>
<stop offset="0.9964" stop-color="#26264F"/>
</linearGradient>
<linearGradient id="paint15_linear_203_946" x1="581.63" y1="219.422" x2="570.702" y2="301.139" gradientUnits="userSpaceOnUse">
<stop stop-color="#FFC444"/>
<stop offset="0.9964" stop-color="#F36F56"/>
</linearGradient>
<linearGradient id="paint16_linear_203_946" x1="571.784" y1="228.017" x2="572.07" y2="238.403" gradientUnits="userSpaceOnUse">
<stop stop-color="#FFC444"/>
<stop offset="1" stop-color="#F36F56"/>
</linearGradient>
<linearGradient id="paint17_linear_203_946" x1="549.128" y1="201.132" x2="604.461" y2="397.488" gradientUnits="userSpaceOnUse">
<stop stop-color="#311944"/>
<stop offset="1" stop-color="#893976"/>
</linearGradient>
<linearGradient id="paint18_linear_203_946" x1="631.507" y1="212.414" x2="621.612" y2="361.589" gradientUnits="userSpaceOnUse">
<stop stop-color="#311944"/>
<stop offset="1" stop-color="#893976"/>
</linearGradient>
<linearGradient id="paint19_linear_203_946" x1="555.31" y1="339.558" x2="556.561" y2="306.218" gradientUnits="userSpaceOnUse">
<stop stop-color="#FFC444"/>
<stop offset="0.9964" stop-color="#F36F56"/>
</linearGradient>
<linearGradient id="paint20_linear_203_946" x1="572.117" y1="357.563" x2="573.18" y2="329.257" gradientUnits="userSpaceOnUse">
<stop stop-color="#FFC444"/>
<stop offset="0.9964" stop-color="#F36F56"/>
</linearGradient>
<linearGradient id="paint21_linear_203_946" x1="57.6946" y1="326.215" x2="453.892" y2="334.105" gradientUnits="userSpaceOnUse">
<stop stop-color="#444B8C"/>
<stop offset="0.9964" stop-color="#26264F"/>
</linearGradient>
<linearGradient id="paint22_linear_203_946" x1="167.179" y1="211.357" x2="605.691" y2="396.493" gradientUnits="userSpaceOnUse">
<stop stop-color="#AA80F9"/>
<stop offset="0.9964" stop-color="#6165D7"/>
</linearGradient>
<linearGradient id="paint23_linear_203_946" x1="106.759" y1="320.389" x2="630.994" y2="541.716" gradientUnits="userSpaceOnUse">
<stop stop-color="#AA80F9"/>
<stop offset="0.9964" stop-color="#6165D7"/>
</linearGradient>
<linearGradient id="paint24_linear_203_946" x1="56.8548" y1="343.182" x2="608.639" y2="576.141" gradientUnits="userSpaceOnUse">
<stop stop-color="#AA80F9"/>
<stop offset="0.9964" stop-color="#6165D7"/>
</linearGradient>
<linearGradient id="paint25_linear_203_946" x1="184.876" y1="40.3412" x2="733.985" y2="272.17" gradientUnits="userSpaceOnUse">
<stop stop-color="#AA80F9"/>
<stop offset="0.9964" stop-color="#6165D7"/>
</linearGradient>
<linearGradient id="paint26_linear_203_946" x1="154.997" y1="71.4545" x2="682.049" y2="293.971" gradientUnits="userSpaceOnUse">
<stop stop-color="#AA80F9"/>
<stop offset="0.9964" stop-color="#6165D7"/>
</linearGradient>
<linearGradient id="paint27_linear_203_946" x1="304.654" y1="269.274" x2="391.374" y2="305.887" gradientUnits="userSpaceOnUse">
<stop stop-color="#AA80F9"/>
<stop offset="0.9964" stop-color="#6165D7"/>
</linearGradient>
<linearGradient id="paint28_linear_203_946" x1="250.093" y1="421.091" x2="460.92" y2="166.444" gradientUnits="userSpaceOnUse">
<stop stop-color="#AA80F9"/>
<stop offset="0.9964" stop-color="#6165D7"/>
</linearGradient>
<linearGradient id="paint29_linear_203_946" x1="362.526" y1="180.736" x2="252.09" y2="465.689" gradientUnits="userSpaceOnUse">
<stop stop-color="#311944"/>
<stop offset="1" stop-color="#893976"/>
</linearGradient>
<linearGradient id="paint30_linear_203_946" x1="241.626" y1="430.519" x2="374.702" y2="22.671" gradientUnits="userSpaceOnUse">
<stop offset="0.0036" stop-color="#E38DDD"/>
<stop offset="1" stop-color="#9571F6"/>
</linearGradient>
<linearGradient id="paint31_linear_203_946" x1="182.91" y1="437.505" x2="299.169" y2="328.202" gradientUnits="userSpaceOnUse">
<stop stop-color="#F57E53"/>
<stop offset="0.0045" stop-color="#F58152"/>
<stop offset="0.042" stop-color="#F99A4D"/>
<stop offset="0.084" stop-color="#FCAD49"/>
<stop offset="0.1333" stop-color="#FEBA46"/>
<stop offset="0.1962" stop-color="#FFC244"/>
<stop offset="0.3183" stop-color="#FFC444"/>
<stop offset="0.455" stop-color="#FDB946"/>
<stop offset="0.6941" stop-color="#F99C4C"/>
<stop offset="0.9964" stop-color="#F36F56"/>
</linearGradient>
<linearGradient id="paint32_linear_203_946" x1="232.58" y1="404.315" x2="240.61" y2="376.21" gradientUnits="userSpaceOnUse">
<stop stop-color="#FF9085"/>
<stop offset="1" stop-color="#FB6FBB"/>
</linearGradient>
<linearGradient id="paint33_linear_203_946" x1="227.313" y1="400.654" x2="234.603" y2="375.137" gradientUnits="userSpaceOnUse">
<stop stop-color="#FF9085"/>
<stop offset="1" stop-color="#FB6FBB"/>
</linearGradient>
<linearGradient id="paint34_linear_203_946" x1="233.205" y1="403.089" x2="240.499" y2="377.558" gradientUnits="userSpaceOnUse">
<stop stop-color="#FF9085"/>
<stop offset="1" stop-color="#FB6FBB"/>
</linearGradient>
<linearGradient id="paint35_linear_203_946" x1="239.102" y1="405.526" x2="246.4" y2="379.982" gradientUnits="userSpaceOnUse">
<stop stop-color="#FF9085"/>
<stop offset="1" stop-color="#FB6FBB"/>
</linearGradient>
<linearGradient id="paint36_linear_203_946" x1="234.959" y1="398.465" x2="239.553" y2="382.388" gradientUnits="userSpaceOnUse">
<stop stop-color="#FF9085"/>
<stop offset="1" stop-color="#FB6FBB"/>
</linearGradient>
<linearGradient id="paint37_linear_203_946" x1="292.954" y1="447.737" x2="421.966" y2="52.3422" gradientUnits="userSpaceOnUse">
<stop stop-color="#FB6FBB"/>
<stop offset="1" stop-color="#FF9085"/>
</linearGradient>
<linearGradient id="paint38_linear_203_946" x1="306.298" y1="436.367" x2="322.395" y2="380.028" gradientUnits="userSpaceOnUse">
<stop stop-color="#FB6FBB"/>
<stop offset="1" stop-color="#FF9085"/>
</linearGradient>
<linearGradient id="paint39_linear_203_946" x1="339.515" y1="356.789" x2="360.476" y2="283.43" gradientUnits="userSpaceOnUse">
<stop stop-color="#FB6FBB"/>
<stop offset="1" stop-color="#FF9085"/>
</linearGradient>
<linearGradient id="paint40_linear_203_946" x1="275.324" y1="248.087" x2="281.85" y2="208.38" gradientUnits="userSpaceOnUse">
<stop stop-color="#FF9085"/>
<stop offset="1" stop-color="#FB6FBB"/>
</linearGradient>
<linearGradient id="paint41_linear_203_946" x1="196.114" y1="347.86" x2="109.844" y2="375.56" gradientUnits="userSpaceOnUse">
<stop stop-color="#FCB148"/>
<stop offset="0.0521" stop-color="#FDBA46"/>
<stop offset="0.1424" stop-color="#FFC244"/>
<stop offset="0.3183" stop-color="#FFC444"/>
<stop offset="0.4849" stop-color="#FDB946"/>
<stop offset="0.7754" stop-color="#F99C4D"/>
<stop offset="0.8658" stop-color="#F8924F"/>
<stop offset="1" stop-color="#F8924F"/>
</linearGradient>
<linearGradient id="paint42_linear_203_946" x1="265.908" y1="262.022" x2="188.948" y2="431.894" gradientUnits="userSpaceOnUse">
<stop stop-color="#FFDB44"/>
<stop offset="1" stop-color="#FEEF06"/>
</linearGradient>
<linearGradient id="paint43_linear_203_946" x1="251.739" y1="441.358" x2="236.892" y2="360.206" gradientUnits="userSpaceOnUse">
<stop stop-color="#FCB148"/>
<stop offset="0.0521" stop-color="#FDBA46"/>
<stop offset="0.1424" stop-color="#FFC244"/>
<stop offset="0.3183" stop-color="#FFC444"/>
<stop offset="0.4849" stop-color="#FDB946"/>
<stop offset="0.7754" stop-color="#F99C4D"/>
<stop offset="0.8658" stop-color="#F8924F"/>
<stop offset="1" stop-color="#F8924F"/>
</linearGradient>
<linearGradient id="paint44_linear_203_946" x1="220.23" y1="310.009" x2="281.427" y2="439.985" gradientUnits="userSpaceOnUse">
<stop stop-color="#FCB148"/>
<stop offset="0.0521" stop-color="#FDBA46"/>
<stop offset="0.1424" stop-color="#FFC244"/>
<stop offset="0.3183" stop-color="#FFC444"/>
<stop offset="0.4849" stop-color="#FDB946"/>
<stop offset="0.7754" stop-color="#F99C4D"/>
<stop offset="0.8658" stop-color="#F8924F"/>
<stop offset="1" stop-color="#F8924F"/>
</linearGradient>
<linearGradient id="paint45_linear_203_946" x1="217.789" y1="282.045" x2="248.558" y2="397.418" gradientUnits="userSpaceOnUse">
<stop stop-color="#FFDB44"/>
<stop offset="1" stop-color="#FEEF06"/>
</linearGradient>
<linearGradient id="paint46_linear_203_946" x1="202.211" y1="318.419" x2="263.285" y2="448.133" gradientUnits="userSpaceOnUse">
<stop stop-color="#FCB148"/>
<stop offset="0.0521" stop-color="#FDBA46"/>
<stop offset="0.1424" stop-color="#FFC244"/>
<stop offset="0.3183" stop-color="#FFC444"/>
<stop offset="0.4849" stop-color="#FDB946"/>
<stop offset="0.7754" stop-color="#F99C4D"/>
<stop offset="0.8658" stop-color="#F8924F"/>
<stop offset="1" stop-color="#F8924F"/>
</linearGradient>
<linearGradient id="paint47_linear_203_946" x1="190.402" y1="187.37" x2="132.298" y2="206.027" gradientUnits="userSpaceOnUse">
<stop stop-color="#FCB148"/>
<stop offset="0.0521" stop-color="#FDBA46"/>
<stop offset="0.1424" stop-color="#FFC244"/>
<stop offset="0.3183" stop-color="#FFC444"/>
<stop offset="0.4849" stop-color="#FDB946"/>
<stop offset="0.7754" stop-color="#F99C4D"/>
<stop offset="0.8658" stop-color="#F8924F"/>
<stop offset="1" stop-color="#F8924F"/>
</linearGradient>
<linearGradient id="paint48_linear_203_946" x1="237.409" y1="129.557" x2="185.575" y2="243.969" gradientUnits="userSpaceOnUse">
<stop stop-color="#FFDB44"/>
<stop offset="1" stop-color="#FEEF06"/>
</linearGradient>
<linearGradient id="paint49_linear_203_946" x1="227.866" y1="250.343" x2="217.866" y2="195.686" gradientUnits="userSpaceOnUse">
<stop stop-color="#FCB148"/>
<stop offset="0.0521" stop-color="#FDBA46"/>
<stop offset="0.1424" stop-color="#FFC244"/>
<stop offset="0.3183" stop-color="#FFC444"/>
<stop offset="0.4849" stop-color="#FDB946"/>
<stop offset="0.7754" stop-color="#F99C4D"/>
<stop offset="0.8658" stop-color="#F8924F"/>
<stop offset="1" stop-color="#F8924F"/>
</linearGradient>
<linearGradient id="paint50_linear_203_946" x1="206.644" y1="161.877" x2="247.861" y2="249.418" gradientUnits="userSpaceOnUse">
<stop stop-color="#FCB148"/>
<stop offset="0.0521" stop-color="#FDBA46"/>
<stop offset="0.1424" stop-color="#FFC244"/>
<stop offset="0.3183" stop-color="#FFC444"/>
<stop offset="0.4849" stop-color="#FDB946"/>
<stop offset="0.7754" stop-color="#F99C4D"/>
<stop offset="0.8658" stop-color="#F8924F"/>
<stop offset="1" stop-color="#F8924F"/>
</linearGradient>
<linearGradient id="paint51_linear_203_946" x1="205" y1="143.043" x2="225.723" y2="220.748" gradientUnits="userSpaceOnUse">
<stop stop-color="#FFDB44"/>
<stop offset="1" stop-color="#FEEF06"/>
</linearGradient>
<linearGradient id="paint52_linear_203_946" x1="194.508" y1="167.541" x2="235.642" y2="254.905" gradientUnits="userSpaceOnUse">
<stop stop-color="#FCB148"/>
<stop offset="0.0521" stop-color="#FDBA46"/>
<stop offset="0.1424" stop-color="#FFC244"/>
<stop offset="0.3183" stop-color="#FFC444"/>
<stop offset="0.4849" stop-color="#FDB946"/>
<stop offset="0.7754" stop-color="#F99C4D"/>
<stop offset="0.8658" stop-color="#F8924F"/>
<stop offset="1" stop-color="#F8924F"/>
</linearGradient>
<linearGradient id="paint53_linear_203_946" x1="657.856" y1="392.195" x2="318.695" y2="520.245" gradientUnits="userSpaceOnUse">
<stop stop-color="#AB316D"/>
<stop offset="1" stop-color="#792D3D"/>
</linearGradient>
<linearGradient id="paint54_linear_203_946" x1="445.068" y1="460.258" x2="359.976" y2="492.384" gradientUnits="userSpaceOnUse">
<stop stop-color="#FFC444"/>
<stop offset="0.9964" stop-color="#F36F56"/>
</linearGradient>
<clipPath id="clip0_203_946">
<rect width="112" height="64" fill="white" transform="translate(656.805 573.244) rotate(-35.3007)"/>
</clipPath>
</defs>
</svg>
