<svg width="859" height="601" viewBox="0 0 859 601" fill="none" xmlns="http://www.w3.org/2000/svg">
<path d="M60.9959 583.5C60.9959 583.5 -12.5897 462.834 2.90415 313.524C22.1736 127.829 150.93 46.5357 335.688 80.3524C375.542 87.647 438.295 71.0009 463.919 49.94C567.371 -35.0937 747.252 -12.0244 819.394 122.897C928.659 327.246 775.799 583.5 775.799 583.5L60.9959 583.5Z" fill="#867FFF"/>
<rect x="54.9963" y="576" width="727.95" height="25" rx="12.5" fill="#7C1AC1"/>
<path d="M232.682 532.723L205.398 533.098L204.994 508.24L232.169 504.947L232.682 532.723Z" fill="#FE9F73"/>
<path d="M260.718 537.185L205.009 537.211L205.004 526.382C205.004 526.382 209.053 521.182 215.224 523.832C215.224 523.832 224.361 530.217 232.583 522.579L253.214 531.124C253.214 531.124 260.716 533.503 260.718 537.185Z" fill="#BA48FF"/>
<path d="M205.011 541.001L262.368 540.974C262.794 540.974 263.139 540.641 263.139 540.23L263.138 537.928C263.137 537.517 262.792 537.184 262.367 537.184L205.009 537.211L205.011 541.001Z" fill="#472A31"/>
<path d="M238.691 525.108C236.824 527.928 233.073 533.594 230.688 537.199L226.89 537.201C229.021 533.98 233.489 527.23 235.712 523.874L238.691 525.108Z" fill="#D7E4F7"/>
<path d="M236.777 537.196L232.98 537.198C234.714 534.578 238.094 529.469 240.489 525.853L243.469 527.087C241.457 530.125 238.671 534.335 236.777 537.196Z" fill="#D7E4F7"/>
<path d="M178.564 532.839L151.853 532.456L151.507 508.119L177.709 505.072L178.564 532.839Z" fill="#FE9F73"/>
<path d="M183.911 321.437C185.144 347.094 191.41 443.007 200.517 508.602C201.117 512.926 204.958 516.147 209.473 516.081C214.471 516.008 222.052 516.458 229.727 514.093C233.437 512.95 235.98 509.647 235.995 505.886L237.931 305.405C237.933 304.919 237.892 304.434 237.81 303.955L237.64 302.97C236.704 297.539 230.815 294.332 225.521 296.37L192.358 309.136C188.819 310.498 183.734 317.761 183.911 321.437Z" fill="#3D0062"/>
<path d="M149.87 318.422C149.87 318.422 139.75 386.859 148.208 512.493C148.451 516.1 151.533 518.907 155.268 519.137C160.554 519.462 168.597 519.307 177.634 516.873C180.699 516.047 182.905 513.454 183.139 510.389L196.082 328.867L205.787 283.851L149.87 318.422Z" fill="#460072"/>
<path d="M206.653 536.977L150.95 537.646L150.81 526.818C150.81 526.818 154.795 521.572 160.999 524.15C160.999 524.15 170.214 530.43 178.341 522.697L199.076 531.003C199.076 531.003 206.606 533.296 206.653 536.977Z" fill="#BA48FF"/>
<path d="M150.998 541.436L208.351 540.747C208.776 540.742 209.117 540.405 209.112 539.994L209.082 537.692C209.077 537.281 208.727 536.952 208.302 536.957L150.949 537.646L150.998 541.436Z" fill="#683D46"/>
<path d="M184.479 525.155C182.647 527.997 178.967 533.706 176.626 537.338L172.829 537.383C174.92 534.139 179.304 527.337 181.485 523.956L184.479 525.155Z" fill="#D7E4F7"/>
<path d="M182.715 537.265L178.918 537.31C180.619 534.67 183.936 529.523 186.286 525.879L189.281 527.079C187.307 530.14 184.573 534.382 182.715 537.265Z" fill="#D7E4F7"/>
<path d="M243.249 329.115L243.573 328.75L249.547 239.498C249.547 239.498 279.093 262.86 287.413 263.935C295.732 265.009 334.954 218.159 334.954 218.159C329.236 200.258 314.129 196.57 314.129 196.57L282.689 226.52L252.111 192.34C250.517 191.135 244.584 191.714 238.08 188.83C227.083 187.051 213.718 185.674 213.718 185.674C213.718 185.674 186.964 181.979 182.256 184.403C177.549 186.826 149.909 230.941 145.475 251.637C141.042 272.332 138.653 283.127 153.862 286.897L156.924 290.94L157.613 319.693C157.613 319.693 183.139 331.977 243.376 329.754L243.249 329.115Z" fill="#61A3C5"/>
<path d="M314.128 196.57L282.689 226.52L252.111 192.339C250.532 191.147 244.72 189.909 238.079 188.829L213.532 236.638L187.787 183.491C177.16 182.696 174.117 184.932 171.746 186.302C153.42 196.886 144.858 231.04 140.424 251.735C135.99 272.431 137.313 286.188 152.523 289.958L153.127 290.022L146.547 322.352C146.547 322.352 185.9 334.868 246.136 332.644L246.46 332.278L250.749 242.074C250.749 242.074 278.991 266.149 287.31 267.223C295.629 268.297 334.954 218.158 334.954 218.158C329.236 200.257 314.128 196.57 314.128 196.57Z" fill="#BA48FF"/>
<path d="M169.475 260.216L168.91 259.385L175.609 254.476L180.668 224.89L181.641 225.057L176.51 255.061L169.475 260.216Z" fill="#21111D"/>
<path d="M158.069 291.063L152.402 290.455C144.937 288.605 140.432 284.311 138.63 277.331C137.066 271.275 137.483 263.109 139.942 251.631L140.906 251.84C135.895 275.234 139.286 286.135 152.612 289.454L158.182 290.046L158.069 291.063Z" fill="#21111D"/>
<path d="M282.253 235.203L282.196 226.726L252.586 193.627C250.416 191.202 245.809 190.783 245.763 190.78L245.855 189.762C246.065 189.779 250.887 190.215 253.315 192.929L283.183 226.314L283.242 235.184L282.253 235.203Z" fill="#21111D"/>
<path d="M283.022 226.894L282.357 226.146L314.989 197.377L315.248 197.443C315.398 197.482 329.326 200.136 335.42 217.983L334.488 218.333C329.007 202.28 316.753 198.486 314.797 197.88L283.022 226.894Z" fill="#21111D"/>
<path d="M251.133 261.455L245.678 332.151C242.27 332.287 220.098 333.115 207.811 331.942L207.71 332.96C207.992 332.986 208.279 333.012 208.572 333.037C222.066 334.174 245.905 333.164 246.15 333.154L246.592 333.135L252.145 261.498L251.133 261.455Z" fill="#21111D"/>
<path d="M202.659 203.912C197.994 200.299 194.844 195.049 193.79 189.128L194.762 188.931C195.771 194.602 198.789 199.631 203.258 203.092L202.659 203.912Z" fill="#21111D"/>
<path d="M209.65 145.24C209.65 145.24 217.717 142.7 224.416 145.575C228.295 147.24 230.619 151.136 230.25 155.221L229.89 159.216L209.397 148.641C209.397 148.641 205.892 149.896 206.204 149.451C206.516 149.007 209.65 145.24 209.65 145.24Z" fill="#FE9F73"/>
<path d="M230.289 154.771L228.768 171.618C228.768 171.618 228.484 177.659 222.965 177.952L223.258 186.068C223.367 189.085 221.261 191.787 218.211 192.445C216.72 192.766 214.959 192.945 212.994 192.779C206.764 192.254 203.796 187.455 203.481 185.154C203.166 182.853 205.697 172.201 205.697 172.201L205.986 166.886L208.548 146.413L230.289 154.771Z" fill="#FE9F73"/>
<path d="M214.529 161.447C214.464 161.442 214.402 161.413 214.356 161.362C214.261 161.258 214.272 161.098 214.38 161.007C214.419 160.974 218.309 157.746 221.342 160.561C221.446 160.657 221.449 160.817 221.35 160.917C221.25 161.017 221.085 161.02 220.982 160.924C218.293 158.43 214.868 161.264 214.724 161.386C214.668 161.433 214.597 161.453 214.529 161.447Z" fill="#21111D"/>
<path d="M225.366 160.844C225.294 160.838 225.224 160.802 225.178 160.74C225.094 160.628 225.12 160.471 225.236 160.389C225.348 160.31 228.01 158.473 229.458 159.902C229.559 160.001 229.557 160.16 229.455 160.258C229.352 160.355 229.187 160.354 229.086 160.254C227.951 159.135 225.566 160.78 225.542 160.797C225.489 160.834 225.427 160.849 225.366 160.844Z" fill="#21111D"/>
<path d="M219.688 162.903C219.65 163.318 219.271 163.626 218.841 163.589C218.411 163.553 218.092 163.187 218.13 162.771C218.167 162.356 218.546 162.049 218.977 162.085C219.407 162.121 219.725 162.487 219.688 162.903Z" fill="black"/>
<path d="M228.034 162.848C227.997 163.263 227.617 163.571 227.187 163.535C226.757 163.499 226.439 163.132 226.476 162.717C226.514 162.301 226.893 161.994 227.323 162.03C227.753 162.066 228.071 162.432 228.034 162.848Z" fill="black"/>
<path d="M209.675 144.977C209.675 144.977 203.107 144.115 200.931 149.548C198.754 154.98 201.34 158.166 201.248 159.833C201.155 161.499 198.977 172.603 207.194 172.453L211.063 154.135L208.895 146.53L209.675 144.977Z" fill="#21111D"/>
<path d="M213.128 162.863C213.791 160.444 212.298 157.964 209.794 157.324C207.289 156.683 204.721 158.126 204.059 160.545C203.396 162.964 204.889 165.445 207.394 166.085C209.898 166.725 212.466 165.283 213.128 162.863Z" fill="#FE9F73"/>
<path d="M208.011 164.443C207.04 164.361 206.455 163.602 206.305 162.88C206.128 162.025 206.49 161.24 207.229 160.879C208.319 160.346 209.222 160.823 209.675 161.169C209.519 160.639 209.237 160.24 208.832 159.978C207.956 159.411 206.781 159.671 206.769 159.674C206.699 159.69 206.629 159.648 206.613 159.581C206.596 159.513 206.639 159.446 206.709 159.429C206.761 159.417 208.003 159.14 208.975 159.768C209.536 160.13 209.888 160.717 210.019 161.513L210.093 161.96L209.791 161.614C209.748 161.565 208.731 160.428 207.346 161.104C206.58 161.479 206.444 162.269 206.561 162.831C206.682 163.415 207.14 164.118 208.032 164.193C208.041 164.194 208.049 164.194 208.059 164.195C208.13 164.201 208.182 164.261 208.177 164.33C208.172 164.399 208.11 164.451 208.038 164.446C208.029 164.444 208.02 164.444 208.011 164.443Z" fill="#F07162"/>
<path d="M210.787 171.773C210.787 171.773 210.243 181.878 223.181 183.938L222.965 177.951C222.965 177.951 214.37 178.879 210.787 171.773Z" fill="#F07162"/>
<path d="M221.976 168.21C221.922 168.205 221.874 168.167 221.861 168.113C221.844 168.045 221.888 167.978 221.958 167.962L224.635 167.35L224.347 161.365C224.344 161.295 224.399 161.236 224.471 161.233C224.544 161.228 224.604 161.284 224.607 161.353L224.905 167.547L222.018 168.207C222.004 168.21 221.99 168.211 221.976 168.21Z" fill="#F07162"/>
<path d="M205.377 173.586L207.049 165.17L209.21 165.587L208.442 174.091L205.377 173.586Z" fill="#FE9F73"/>
<path d="M210.909 144.913C210.909 144.913 209.062 148.308 211.039 154.398C213.016 160.488 204.804 151.664 204.804 151.664C204.804 151.664 206.201 143.112 210.909 144.913Z" fill="#21111D"/>
<path d="M211.038 154.398C211.038 154.398 230.985 154.935 232.614 150.547C234.243 146.159 229.587 145.647 229.587 145.647C229.587 145.647 231.037 139.339 224.872 140.725C218.706 142.111 207.623 140.927 204.015 146.031C200.409 151.135 211.038 154.398 211.038 154.398Z" fill="#21111D"/>
<path d="M210.337 157.568L210.877 161.139L211.835 160.167C211.835 160.167 213.985 155.287 213.032 152.775C212.079 150.263 207.076 153.337 207.076 153.337L210.337 157.568Z" fill="#21111D"/>
<path d="M203.664 182.369L214.62 193.051L223.249 185.84L229.294 187.536L222.365 201.719L214.711 196.245L205.888 200.86L196.103 183.851L203.664 182.369Z" fill="#EDFCFB"/>
<path d="M225.262 170.186C225.185 170.172 220.328 170.035 220.328 170.035C220.328 170.035 220.949 171.401 222.754 171.456C224.559 171.512 225.262 170.186 225.262 170.186Z" fill="#FBFDFC"/>
<path d="M436.764 249.037L308.029 351.374C302.283 355.942 293.788 355.127 289.084 349.557L230.999 280.775C226.324 275.238 227.161 267.091 232.873 262.55L361.608 160.213C367.354 155.645 375.848 156.46 380.552 162.03L438.637 230.813C443.313 236.35 442.475 244.497 436.764 249.037Z" fill="#460072"/>
<path d="M411.819 247.078C419.821 240.673 423.343 232.023 419.685 227.759C416.028 223.494 406.576 225.23 398.574 231.635C390.571 238.041 387.049 246.69 390.707 250.955C394.364 255.219 403.816 253.483 411.819 247.078Z" fill="#A3B0C4"/>
<path d="M285.453 262.043C285.143 262.739 284.784 263.364 284.375 263.919C283.967 264.474 283.504 264.958 282.988 265.371C282.468 265.787 281.919 266.117 281.34 266.359C280.761 266.602 280.159 266.756 279.534 266.822C278.516 266.937 277.541 266.81 276.609 266.443C275.677 266.075 274.878 265.503 274.211 264.726C273.709 264.14 273.342 263.476 273.111 262.733C272.879 261.99 272.809 261.235 272.899 260.47C272.989 259.662 273.234 258.909 273.632 258.212C274.031 257.514 274.57 256.893 275.249 256.35C275.744 255.954 276.311 255.613 276.952 255.329C277.592 255.044 278.309 254.815 279.103 254.641L279.723 255.364C278.85 255.537 278.089 255.758 277.44 256.025C276.792 256.292 276.231 256.614 275.758 256.993C275.336 257.33 274.982 257.707 274.693 258.124C274.405 258.54 274.182 258.99 274.024 259.474C273.778 260.287 273.742 261.099 273.915 261.909C274.089 262.72 274.46 263.457 275.03 264.122C275.469 264.633 275.993 265.048 276.605 265.368C277.216 265.688 277.862 265.884 278.541 265.957C279.22 266.03 279.893 265.964 280.562 265.758C281.23 265.552 281.85 265.22 282.422 264.763C282.891 264.388 283.32 263.918 283.71 263.354C284.1 262.789 284.469 262.105 284.816 261.302L285.453 262.043Z" fill="#DEDEDE"/>
<path d="M287.304 261.653L282.366 255.896L283.03 255.364L284.249 256.784C284.149 255.94 284.151 255.279 284.257 254.803C284.363 254.326 284.581 253.955 284.912 253.69C285.093 253.545 285.298 253.44 285.529 253.375C285.759 253.31 286.031 253.277 286.344 253.279L286.506 254.179C286.205 254.182 285.951 254.21 285.746 254.262C285.54 254.314 285.369 254.395 285.231 254.506C284.965 254.719 284.801 255.06 284.739 255.53C284.678 255.999 284.714 256.65 284.847 257.482L287.969 261.12L287.304 261.653Z" fill="#DEDEDE"/>
<path d="M295.943 253.666C295.777 254.233 295.563 254.727 295.3 255.148C295.037 255.568 294.71 255.935 294.319 256.248C293.429 256.961 292.472 257.25 291.448 257.118C290.424 256.985 289.51 256.451 288.709 255.517C287.96 254.644 287.614 253.74 287.669 252.802C287.724 251.865 288.167 251.064 288.997 250.399C289.766 249.783 290.603 249.537 291.508 249.661C292.412 249.785 293.22 250.263 293.933 251.093L293.954 251.119L289.304 254.841L289.363 254.909C290.008 255.661 290.738 256.103 291.554 256.234C292.37 256.366 293.11 256.166 293.772 255.636C294.167 255.32 294.49 254.947 294.74 254.52C294.989 254.092 295.189 253.573 295.34 252.962L295.943 253.666ZM288.917 254.225L292.703 251.195C292.199 250.743 291.646 250.499 291.042 250.464C290.439 250.428 289.896 250.603 289.415 250.989C288.921 251.385 288.627 251.883 288.532 252.483C288.439 253.084 288.567 253.665 288.917 254.225Z" fill="#DEDEDE"/>
<path d="M301.723 249.396C301.635 249.768 301.49 250.106 301.288 250.412C301.086 250.717 300.822 251 300.495 251.262C299.626 251.957 298.686 252.246 297.674 252.127C296.662 252.009 295.776 251.506 295.013 250.617C294.25 249.728 293.903 248.792 293.971 247.81C294.038 246.828 294.506 245.989 295.375 245.294C295.702 245.032 296.039 244.834 296.388 244.699C296.736 244.563 297.107 244.489 297.501 244.475L294.61 241.104L295.254 240.588L302.731 249.304L302.086 249.82L301.723 249.396ZM301.124 248.699L298.089 245.16C297.681 245.115 297.302 245.143 296.953 245.244C296.604 245.344 296.264 245.527 295.933 245.792C295.271 246.322 294.922 246.976 294.886 247.754C294.85 248.533 295.141 249.281 295.757 250C296.374 250.718 297.081 251.133 297.879 251.243C298.678 251.354 299.408 251.144 300.07 250.614C300.41 250.342 300.664 250.053 300.832 249.746C301.001 249.44 301.098 249.091 301.124 248.699Z" fill="#DEDEDE"/>
<path d="M297.872 240.278L296.963 239.219L297.641 238.677L298.549 239.736L297.872 240.278ZM304.44 247.935L299.502 242.178L300.179 241.636L305.117 247.393L304.44 247.935Z" fill="#DEDEDE"/>
<path d="M306.477 243.919C306.809 244.306 307.083 244.517 307.299 244.554C307.516 244.591 307.766 244.496 308.05 244.269C308.196 244.151 308.328 244.006 308.446 243.83C308.564 243.655 308.68 243.439 308.792 243.181L309.332 243.81C309.215 244.037 309.084 244.241 308.939 244.424C308.794 244.606 308.632 244.77 308.451 244.914C307.956 245.31 307.51 245.475 307.112 245.408C306.714 245.341 306.271 245.023 305.783 244.454L302.528 240.66L301.258 241.677L300.798 241.141L302.095 240.103L300.967 238.789L300.989 237.825L301.144 237.701L302.753 239.577L304.352 238.297L304.812 238.832L303.212 240.113L306.477 243.919Z" fill="#DEDEDE"/>
<path d="M317.65 236.972C317.505 237.284 317.333 237.568 317.134 237.822C316.934 238.075 316.704 238.308 316.441 238.517C315.525 239.251 314.532 239.572 313.462 239.483C312.392 239.394 311.482 238.911 310.73 238.035C309.999 237.183 309.691 236.228 309.806 235.17C309.921 234.111 310.436 233.215 311.352 232.482C311.575 232.303 311.816 232.146 312.073 232.01C312.33 231.875 312.607 231.761 312.906 231.669L313.521 232.386C313.182 232.439 312.871 232.529 312.587 232.655C312.303 232.78 312.032 232.946 311.774 233.153C311.112 233.683 310.75 234.367 310.689 235.204C310.628 236.041 310.886 236.796 311.463 237.469C312.044 238.146 312.762 238.531 313.617 238.624C314.473 238.716 315.234 238.496 315.9 237.963C316.15 237.763 316.369 237.521 316.557 237.238C316.745 236.954 316.904 236.627 317.036 236.255L317.65 236.972Z" fill="#DEDEDE"/>
<path d="M321.449 233.374C321.328 233.884 321.17 234.306 320.975 234.641C320.78 234.976 320.526 235.269 320.212 235.52C319.722 235.913 319.206 236.094 318.666 236.064C318.125 236.034 317.668 235.801 317.294 235.365C316.749 234.73 316.617 233.991 316.899 233.149C317.181 232.306 317.862 231.415 318.94 230.474L318.417 229.864C318.046 229.432 317.67 229.203 317.288 229.175C316.906 229.148 316.483 229.321 316.018 229.693C315.73 229.923 315.488 230.211 315.292 230.558C315.096 230.904 314.93 231.337 314.797 231.858L314.257 231.228C314.407 230.744 314.591 230.327 314.81 229.977C315.028 229.627 315.287 229.332 315.589 229.091C316.272 228.544 316.898 228.3 317.465 228.361C318.032 228.422 318.612 228.797 319.203 229.487L321.79 232.502C321.897 232.627 321.993 232.706 322.079 232.738C322.165 232.771 322.245 232.758 322.318 232.699C322.421 232.617 322.507 232.366 322.575 231.947C322.589 231.845 322.6 231.769 322.609 231.72L323.113 232.295C323.069 232.624 323.002 232.898 322.914 233.116C322.825 233.334 322.719 233.493 322.594 233.592C322.405 233.744 322.221 233.802 322.042 233.767C321.863 233.731 321.665 233.6 321.449 233.374ZM320.924 232.786L319.379 230.986C318.53 231.686 317.979 232.38 317.726 233.066C317.473 233.751 317.548 234.329 317.95 234.799C318.203 235.094 318.506 235.243 318.858 235.248C319.211 235.254 319.567 235.112 319.929 234.823C320.174 234.627 320.377 234.364 320.537 234.036C320.698 233.707 320.827 233.29 320.924 232.786Z" fill="#DEDEDE"/>
<path d="M324.413 231.947L319.475 226.19L320.139 225.658L321.358 227.078C321.257 226.234 321.26 225.574 321.366 225.096C321.471 224.619 321.69 224.248 322.021 223.984C322.201 223.839 322.407 223.734 322.637 223.669C322.868 223.603 323.14 223.571 323.453 223.573L323.615 224.473C323.313 224.476 323.06 224.504 322.855 224.556C322.649 224.608 322.478 224.689 322.34 224.799C322.074 225.013 321.91 225.354 321.848 225.824C321.787 226.293 321.823 226.944 321.956 227.776L325.078 231.414L324.413 231.947Z" fill="#DEDEDE"/>
<path d="M332.518 224.744C332.43 225.116 332.286 225.454 332.083 225.76C331.881 226.065 331.617 226.348 331.29 226.61C330.421 227.305 329.481 227.593 328.47 227.475C327.458 227.357 326.571 226.853 325.808 225.965C325.046 225.076 324.698 224.14 324.766 223.158C324.833 222.176 325.302 221.337 326.17 220.642C326.497 220.38 326.834 220.182 327.183 220.046C327.531 219.911 327.902 219.837 328.296 219.823L325.405 216.452L326.05 215.936L333.527 224.652L332.882 225.168L332.518 224.744ZM331.919 224.047L328.883 220.508C328.475 220.463 328.097 220.491 327.748 220.592C327.399 220.692 327.059 220.875 326.728 221.14C326.066 221.67 325.717 222.324 325.681 223.102C325.645 223.881 325.936 224.629 326.552 225.348C327.169 226.066 327.876 226.481 328.674 226.592C329.473 226.702 330.203 226.493 330.865 225.962C331.205 225.69 331.459 225.401 331.627 225.095C331.796 224.788 331.893 224.439 331.919 224.047Z" fill="#DEDEDE"/>
<path d="M268.716 273.32C267.266 274.481 265.116 274.286 263.914 272.885C262.713 271.484 262.914 269.408 264.364 268.247C265.814 267.086 267.964 267.281 269.166 268.682C270.368 270.083 270.166 272.159 268.716 273.32Z" fill="white"/>
<path d="M268.204 277.261C268.403 277.493 268.537 277.782 268.576 278.103C268.684 278.991 268.027 279.795 267.108 279.9C264.033 280.25 261.018 279.085 259.045 276.784C257.199 274.632 256.523 271.729 257.236 269.018C257.464 268.152 258.376 267.628 259.272 267.848C260.169 268.068 260.711 268.949 260.483 269.816C260.033 271.528 260.46 273.361 261.624 274.718C262.87 276.171 264.774 276.906 266.716 276.685C267.303 276.619 267.853 276.853 268.204 277.261Z" fill="white"/>
<path d="M268.737 283.073C268.936 283.305 269.071 283.594 269.11 283.915C269.218 284.803 268.561 285.607 267.642 285.712C262.523 286.295 257.506 284.356 254.222 280.527C251.15 276.946 250.025 272.114 251.212 267.601C251.44 266.735 252.352 266.211 253.248 266.431C254.145 266.651 254.687 267.532 254.459 268.398C253.535 271.912 254.41 275.674 256.801 278.461C259.358 281.442 263.264 282.951 267.25 282.498C267.836 282.43 268.387 282.665 268.737 283.073Z" fill="white"/>
<path d="M398.613 219.864L286.421 309.675C282.836 312.545 277.472 312.06 274.502 308.597C271.531 305.133 272.034 299.952 275.619 297.082L387.811 207.27C391.396 204.4 396.76 204.886 399.731 208.349C402.701 211.812 402.198 216.994 398.613 219.864Z" fill="#A3B0C4"/>
<path d="M354.9 275.45L294.615 323.709C292.284 325.576 288.795 325.26 286.863 323.007C284.931 320.755 285.258 317.385 287.589 315.518L347.874 267.259C350.206 265.393 353.694 265.709 355.626 267.961C357.558 270.214 357.232 273.584 354.9 275.45Z" fill="#A3B0C4"/>
<path d="M331.932 313.376L304.552 335.294C302.221 337.16 298.732 336.845 296.8 334.592C294.868 332.34 295.195 328.97 297.526 327.103L324.906 305.185C327.238 303.319 330.726 303.635 332.658 305.887C334.59 308.14 334.263 311.51 331.932 313.376Z" fill="#A3B0C4"/>
<path d="M378.291 276.265L350.912 298.182C348.58 300.049 345.092 299.733 343.159 297.481C341.227 295.228 341.554 291.858 343.886 289.992L371.266 268.074C373.597 266.207 377.086 266.523 379.018 268.776C380.95 271.028 380.623 274.398 378.291 276.265Z" fill="#A3B0C4"/>
<path d="M299.362 355.414C295.389 355.414 291.672 353.71 289.164 350.74L231.339 282.32C231.093 282.029 231.137 281.597 231.436 281.356C231.569 281.252 231.724 281.198 231.889 281.198C232.104 281.198 232.305 281.291 232.442 281.451L288.904 348.257C291.91 351.761 295.553 353.612 299.442 353.612C302.505 353.612 305.627 352.409 308.47 350.133L387.771 287.093C387.901 286.991 388.057 286.936 388.223 286.936C388.437 286.936 388.637 287.028 388.773 287.187C389.021 287.479 388.979 287.912 388.678 288.153L307.71 352.519C305.362 354.386 302.397 355.414 299.362 355.414Z" fill="#DEDEDE"/>
<path d="M277.069 228.077C276.951 228.077 276.778 228.05 276.627 227.922C276.464 227.784 276.376 227.595 276.379 227.39C276.382 227.189 276.476 226.999 276.637 226.871L361.816 159.157C364.189 157.27 367.186 156.231 370.255 156.231C374.27 156.231 378.028 157.953 380.563 160.956L427.058 216.014C427.303 216.305 427.26 216.738 426.96 216.977C426.828 217.082 426.672 217.135 426.507 217.135C426.292 217.135 426.091 217.043 425.955 216.882L380.007 162.472C377.579 159.596 373.98 157.947 370.135 157.947C367.197 157.947 364.327 158.942 362.054 160.749L277.586 227.897C277.439 228.013 277.256 228.077 277.069 228.077Z" fill="#DEDEDE"/>
<path d="M245.062 277.44C249.926 273.721 245.28 272.635 245.28 272.635C247.695 270.364 247.288 269.175 246.53 268.579C245.975 268.143 245.238 268.038 244.563 268.244C242.422 268.901 235.891 270.928 231.876 272.444C229.158 272.013 230.462 267.313 231.906 264.969C232.651 263.762 232.882 261.684 229.723 263.531C227.142 265.039 222.987 270.373 222.987 270.373L207.873 267.571L208.182 289.512C208.182 289.512 225.613 290.727 228.238 290.929C230.863 291.13 239.927 288.775 242.796 286.609C248.002 282.677 244.994 282.201 244.994 282.201C250.038 277.598 245.062 277.44 245.062 277.44Z" fill="#FE9F73"/>
<path d="M239.452 275.762C239.318 275.762 239.196 275.673 239.154 275.534C239.103 275.362 239.197 275.178 239.364 275.123C241.708 274.349 245.093 272.371 245.126 272.351C245.279 272.262 245.472 272.316 245.557 272.473C245.642 272.63 245.587 272.83 245.434 272.92C245.293 273.002 241.958 274.952 239.549 275.747C239.517 275.757 239.484 275.762 239.452 275.762Z" fill="#F07162"/>
<path d="M239.392 279.909C239.243 279.909 239.111 279.799 239.085 279.641C239.056 279.463 239.172 279.293 239.344 279.26C242.286 278.704 244.881 277.172 244.907 277.157C245.06 277.066 245.253 277.119 245.338 277.275C245.424 277.432 245.371 277.632 245.219 277.723C245.109 277.788 242.505 279.327 239.45 279.904C239.431 279.908 239.412 279.909 239.392 279.909Z" fill="#F07162"/>
<path d="M240.028 284.641C239.882 284.641 239.753 284.535 239.723 284.382C239.689 284.205 239.8 284.031 239.971 283.993C242.498 283.438 244.805 281.94 244.828 281.925C244.976 281.827 245.172 281.872 245.264 282.025C245.356 282.177 245.311 282.38 245.162 282.477C245.065 282.541 242.735 284.054 240.096 284.634C240.073 284.639 240.05 284.641 240.028 284.641Z" fill="#F07162"/>
<path d="M199.868 258.374L215.121 260.684C215.121 260.684 217.309 271.071 211.727 291.287C211.185 293.251 210.115 296.594 210.115 296.594C210.115 296.594 194.418 296.567 192.445 291.123C191.207 287.704 195.847 273.779 195.847 273.779L199.868 258.374Z" fill="#FECC86"/>
<path d="M210.447 297.148L158.065 291.062L158.186 290.047L209.779 296.041C210.805 292.935 217.467 272.013 214.727 261.142L175.982 255.274L176.136 254.263L215.51 260.226L215.596 260.539C218.857 272.446 210.919 295.773 210.58 296.761L210.447 297.148Z" fill="#21111D"/>
<path d="M307.214 197.335C308.328 196.464 309.796 196.517 310.002 196.761L316.879 204.917C317.652 205.833 317.61 207.197 316.713 208.001C315.731 208.882 314.199 208.767 313.366 207.778L306.314 199.415C306.314 199.415 306.101 198.207 307.214 197.335Z" fill="#FE9F73"/>
<path d="M310.749 194.597C311.845 193.705 313.314 193.731 313.525 193.971L320.562 201.998C321.353 202.9 321.339 204.263 320.459 205.084C319.493 205.983 317.96 205.897 317.107 204.924L309.891 196.693C309.891 196.693 309.653 195.489 310.749 194.597Z" fill="#FE9F73"/>
<path d="M314.529 192.925C315.415 192.187 316.615 192.194 316.79 192.388L322.616 198.878C323.271 199.607 323.272 200.721 322.561 201.399C321.782 202.143 320.529 202.086 319.824 201.3L313.849 194.645C313.849 194.645 313.643 193.664 314.529 192.925Z" fill="#FE9F73"/>
<path d="M310.245 196.464C310.089 196.344 309.863 196.341 309.703 196.468C309.518 196.615 309.491 196.877 309.643 197.056L316.544 205.181C317.191 205.948 317.137 207.052 316.419 207.695C316.035 208.039 315.538 208.21 315.018 208.175C314.498 208.139 314.03 207.906 313.701 207.515L307.414 200.059C307.262 199.882 306.99 199.853 306.806 199.999C306.621 200.144 306.593 200.407 306.744 200.586L313.031 208.042C313.505 208.604 314.208 208.956 314.958 209.007C315.718 209.058 316.446 208.809 317.007 208.306C318.057 207.365 318.147 205.76 317.213 204.653L310.311 196.526C310.291 196.502 310.269 196.482 310.245 196.464Z" fill="#F07162"/>
<path d="M304.605 200.839C305.595 200.065 306.899 200.112 307.082 200.329L313.191 207.574C313.877 208.388 313.841 209.6 313.044 210.314C312.171 211.097 310.81 210.994 310.07 210.116L303.805 202.687C303.805 202.687 303.616 201.613 304.605 200.839Z" fill="#FE9F73"/>
<path d="M307.298 200.065C307.159 199.959 306.958 199.956 306.816 200.069C306.652 200.198 306.628 200.432 306.763 200.591L312.894 207.809C313.468 208.49 313.42 209.471 312.783 210.042C312.442 210.348 312 210.499 311.538 210.468C311.076 210.437 310.661 210.23 310.368 209.882L304.782 203.258C304.647 203.102 304.406 203.076 304.243 203.205C304.078 203.334 304.053 203.568 304.188 203.726L309.773 210.35C310.195 210.85 310.819 211.163 311.485 211.207C312.161 211.253 312.807 211.032 313.306 210.585C314.238 209.749 314.319 208.323 313.489 207.339L307.357 200.12C307.339 200.099 307.319 200.081 307.298 200.065Z" fill="#F07162"/>
<path d="M313.836 194.052C313.676 193.929 313.444 193.93 313.284 194.064C313.104 194.216 313.086 194.479 313.242 194.653L320.212 202.384C320.878 203.143 320.858 204.132 320.158 204.784C319.782 205.135 319.287 205.315 318.767 205.289C318.247 205.264 317.775 205.04 317.437 204.654L310.22 196.423C310.067 196.247 309.793 196.225 309.612 196.374C309.43 196.523 309.407 196.786 309.561 196.962L316.778 205.193C317.263 205.748 317.972 206.086 318.724 206.123C319.486 206.16 320.208 205.897 320.759 205.384C321.785 204.428 321.831 202.937 320.868 201.839L313.894 194.104C313.876 194.085 313.857 194.067 313.836 194.052Z" fill="#F07162"/>
<path d="M317.024 192.101C316.884 191.994 316.681 191.995 316.541 192.112C316.383 192.244 316.366 192.475 316.503 192.628L322.33 199.117C322.869 199.718 322.854 200.605 322.296 201.138C321.996 201.424 321.601 201.573 321.183 201.557C320.765 201.541 320.384 201.365 320.11 201.059L314.135 194.404C314 194.253 313.759 194.235 313.601 194.368C313.443 194.5 313.426 194.731 313.563 194.884L319.538 201.538C319.944 201.992 320.533 202.265 321.154 202.288C321.784 202.312 322.378 202.088 322.828 201.659C323.67 200.856 323.703 199.528 322.902 198.637L317.076 192.148C317.06 192.131 317.043 192.115 317.024 192.101Z" fill="#F07162"/>
<path d="M625.807 533.853L650.84 534.185L651.199 511.378L626.265 508.369L625.807 533.853Z" fill="#FE9F73"/>
<path d="M600.088 537.959H651.199V528.023C651.199 528.023 647.481 523.254 641.821 525.688C641.821 525.688 633.441 531.55 625.893 524.546L606.969 532.395C606.969 532.395 600.088 534.581 600.088 537.959Z" fill="#33192C"/>
<path d="M651.199 541.436H598.898C598.329 541.436 597.867 540.99 597.867 540.44V538.955C597.867 538.405 598.329 537.959 598.898 537.959H651.198L651.199 541.436Z" fill="#472A31"/>
<path d="M620.291 526.869C622.006 529.455 625.449 534.653 627.64 537.959H631.124C629.167 535.005 625.065 528.813 623.024 525.735L620.291 526.869Z" fill="#D7E4F7"/>
<path d="M622.053 537.959H625.537C623.945 535.555 620.841 530.87 618.642 527.553L615.909 528.687C617.756 531.473 620.314 535.335 622.053 537.959Z" fill="#D7E4F7"/>
<path d="M668.906 533.853L693.938 534.185L694.297 511.378L669.363 508.369L668.906 533.853Z" fill="#FE9F73"/>
<path d="M666.239 336.432C665.411 359.985 661.806 452.115 654.225 512.392C653.726 516.365 650.24 519.363 646.097 519.352C641.511 519.34 635.131 518.812 628.062 516.727C624.645 515.719 622.273 512.717 622.215 509.266L619.133 325.858C619.126 325.412 619.157 324.967 619.227 324.526L619.372 323.62C620.166 318.628 625.531 315.62 630.412 317.432L660.987 328.778C664.249 329.988 666.358 333.058 666.239 336.432Z" fill="#33192C"/>
<path d="M699.86 331.682C699.86 331.682 701.941 444.972 696.515 514.853C696.258 518.16 693.54 520.774 690.117 521.026C685.271 521.382 677.89 521.328 669.571 519.195C666.749 518.471 664.695 516.117 664.444 513.308L649.929 350.839L640.992 305.729L699.86 331.682Z" fill="#49263E"/>
<path d="M709.196 295.626C708.685 300.152 705.879 367.293 698.082 372.833C690.285 378.373 615.674 373.049 613.936 366.504C612.199 359.959 622.325 289.794 622.325 289.794L709.196 295.626Z" fill="#21197A"/>
<path d="M624.951 263.993C623.944 264.009 584.043 282.168 584.043 282.168L592.736 296.985L615.291 291.417L624.951 263.993Z" fill="#540885"/>
<path d="M681.149 191.949C681.149 191.949 698.348 190.8 706.727 195.028C719.23 201.338 716.218 239.931 716.218 239.931C716.218 239.931 705.6 234.782 704.903 232.972C704.207 231.162 681.149 191.949 681.149 191.949Z" fill="#540885"/>
<path d="M697.923 194.402C688.091 193.415 662.236 193.362 662.236 193.362C662.236 193.362 658.845 194.342 659.918 193.818C631.573 199.621 629.142 220.154 629.142 220.154L617.305 279.64L601.843 280.96C597.154 290.302 601.709 314.931 601.709 314.931L677.025 320.629C677.025 320.629 693.334 322.678 706.45 305.233C715.127 293.692 716.996 259.075 716.102 233.856C716.102 233.856 713.203 195.935 697.923 194.402Z" fill="#21197A"/>
<path d="M675.649 278.742C675.565 278.776 675.47 278.786 675.374 278.768C675.117 278.718 674.951 278.477 675.002 278.229C675.069 277.903 681.775 245.444 684.396 225.071C684.429 224.82 684.667 224.642 684.925 224.673C685.185 224.704 685.37 224.933 685.338 225.184C682.712 245.591 676 278.083 675.932 278.408C675.9 278.564 675.79 278.685 675.649 278.742Z" fill="#21111D"/>
<path d="M629.169 279.506C629.245 279.572 629.345 279.614 629.455 279.62C629.717 279.635 629.941 279.442 629.956 279.189C629.978 278.813 632.216 241.466 634.478 229.101C634.524 228.851 634.351 228.614 634.094 228.57C633.836 228.526 633.591 228.692 633.545 228.941C631.273 241.359 629.032 278.76 629.009 279.136C629.001 279.283 629.063 279.416 629.169 279.506Z" fill="#21111D"/>
<path d="M623.472 271.411C623.262 271.495 623.014 271.424 622.888 271.232L619.522 266.071L619.557 265.894L628.673 220.084C628.724 219.672 629.467 214.345 633.909 208.35C638.073 202.731 646.421 195.484 662.539 192.87C662.797 192.829 663.042 192.997 663.085 193.246C663.128 193.495 662.954 193.732 662.696 193.774C646.926 196.331 638.773 203.379 634.71 208.842C630.308 214.761 629.618 220.153 629.612 220.207L629.607 220.241L620.523 265.889L623.69 270.743C623.83 270.957 623.764 271.24 623.542 271.375C623.52 271.389 623.496 271.401 623.472 271.411Z" fill="#21111D"/>
<path d="M688.273 275.272C688.252 275.28 688.232 275.286 688.211 275.292L675.64 278.51C675.388 278.574 675.128 278.429 675.061 278.184C674.994 277.94 675.144 277.69 675.398 277.624L687.968 274.407C688.221 274.342 688.481 274.488 688.548 274.732C688.609 274.956 688.488 275.185 688.273 275.272Z" fill="#21111D"/>
<path d="M606.702 272.129C606.464 272.225 606.189 272.12 606.085 271.891C605.981 271.659 606.089 271.389 606.329 271.287L619.833 265.561C620.082 265.469 620.353 265.564 620.458 265.796C620.563 266.028 620.454 266.298 620.215 266.4L606.71 272.126C606.707 272.127 606.705 272.128 606.702 272.129Z" fill="#21111D"/>
<path d="M550.734 315.465L595.122 312.646C597.229 312.512 599.004 310.705 598.757 308.944L589.915 245.792C589.736 244.515 588.527 243.679 587 243.776L542.611 246.595C540.504 246.729 538.73 248.537 538.976 250.297L547.818 313.449C547.997 314.726 549.206 315.562 550.734 315.465Z" fill="#540885"/>
<path d="M572.247 302.223C572.202 301.042 573.256 300.011 574.476 299.932L582.022 299.444C582.259 299.429 582.46 299.27 582.522 299.048C582.613 298.721 582.372 298.396 582.022 298.373L570.851 297.659C569.571 297.577 568.796 296.531 569.129 295.334C569.462 294.137 570.781 293.225 572.061 293.307L583.452 294.036C583.717 294.053 583.957 293.887 584.026 293.639L584.075 293.464C584.154 293.178 583.979 292.884 583.682 292.807L571.469 289.638C570.289 289.331 569.462 288.122 569.744 286.972C570.042 285.754 571.321 285.023 572.564 285.345L584.869 288.538C585.165 288.615 585.47 288.445 585.55 288.159L585.704 287.604C585.777 287.343 585.638 287.072 585.38 286.968L574.459 282.598C573.33 282.146 572.673 280.843 573.107 279.738C573.567 278.568 574.933 278.004 576.122 278.479C576.122 278.479 592.918 284.222 595.66 284.921L590.607 282.64C586.89 286.008 591.087 281.412 594.146 280.816C597.535 280.157 606.487 288.164 606.487 288.164C606.899 288.853 606.476 290.393 605.829 291.552C603.331 304.367 602.837 306.322 601.834 309.717L588.034 305.65C584.053 304.476 579.883 304.012 575.729 304.28L574.686 304.348C573.402 304.431 572.295 303.474 572.247 302.223Z" fill="#FE9F73"/>
<path d="M562.204 268.247C562.217 270.578 564.115 272.535 566.445 272.618C568.774 272.701 570.653 270.878 570.64 268.547C570.628 266.216 568.729 264.258 566.4 264.175C564.07 264.092 562.192 265.915 562.204 268.247Z" fill="white"/>
<path d="M593.993 279.919L594.621 284.623L589.438 282.952L589.507 279.546L593.993 279.919Z" fill="#FD7583"/>
<path d="M542.609 246.136L586.997 243.317C588.746 243.206 590.166 244.209 590.375 245.703L595.722 284.999L594.621 284.629L589.455 245.882C589.308 244.83 588.299 244.154 587.002 244.236L542.613 247.055C542.357 247.071 542.148 246.879 542.147 246.625C542.146 246.371 542.353 246.152 542.609 246.136Z" fill="#21111D"/>
<path d="M601.844 280.96C601.844 280.96 597.29 292.411 601.709 314.931L606.133 298.752L613.509 288.215L601.844 280.96Z" fill="#540885"/>
<path d="M692.027 278.609C691.972 278.632 691.91 278.644 691.846 278.645C691.168 278.647 624.063 278.911 602.192 281.382C601.701 282.79 599.48 290.058 600.637 303.184C600.659 303.436 600.467 303.658 600.205 303.679C599.944 303.701 599.714 303.514 599.692 303.262C598.381 288.388 601.278 281.095 601.402 280.792L601.506 280.538L601.786 280.505C623.4 277.998 691.16 277.731 691.842 277.728C692.104 277.727 692.317 277.932 692.318 278.185C692.319 278.376 692.199 278.54 692.027 278.609Z" fill="#21111D"/>
<path d="M664.661 319.09C637.259 319.09 603.718 315.675 601.65 315.462C601.348 315.43 601.127 315.167 601.16 314.874C601.192 314.582 601.452 314.368 601.768 314.401C602.515 314.477 676.743 322.037 695.387 314.977C713.814 307.998 715.1 268.779 715.111 268.383C715.119 268.089 715.374 267.85 715.678 267.864C715.982 267.872 716.223 268.117 716.215 268.411C716.17 270.055 714.897 308.734 695.79 315.97C689.646 318.297 677.867 319.09 664.661 319.09Z" fill="#21111D"/>
<path d="M680.573 151.076C680.573 151.076 687.085 154.322 683.829 167.016L681.366 165.789L682.197 159.046L680.573 151.076Z" fill="#21111D"/>
<path d="M657.757 158.951V177.553C657.757 177.553 657.487 183.841 663.147 184.627L662.09 193.017C661.697 196.135 663.615 199.12 666.696 200.069C668.203 200.532 670.001 200.871 672.04 200.871C678.508 200.871 682.012 196.155 682.551 193.797C683.09 191.439 681.473 180.173 681.473 180.173L681.67 174.637L680.934 153.188L657.757 158.951Z" fill="#FE9F73"/>
<path d="M673.374 168.252C673.441 168.252 673.508 168.228 673.56 168.179C673.668 168.079 673.671 167.913 673.568 167.809C673.531 167.771 669.824 164.085 666.436 166.738C666.32 166.829 666.302 166.994 666.395 167.106C666.489 167.219 666.658 167.237 666.774 167.146C669.776 164.795 673.041 168.032 673.179 168.172C673.232 168.225 673.303 168.252 673.374 168.252Z" fill="#21111D"/>
<path d="M662.264 166.68C662.339 166.68 662.414 166.65 662.467 166.59C662.565 166.481 662.553 166.315 662.44 166.22C662.332 166.129 659.761 163.991 658.135 165.346C658.022 165.44 658.009 165.606 658.106 165.716C658.203 165.826 658.373 165.838 658.486 165.744C659.759 164.683 662.064 166.597 662.087 166.617C662.138 166.66 662.201 166.68 662.264 166.68Z" fill="#21111D"/>
<path d="M667.923 169.312C667.923 169.746 668.285 170.097 668.732 170.097C669.178 170.097 669.54 169.745 669.54 169.312C669.54 168.877 669.179 168.525 668.732 168.525C668.285 168.525 667.923 168.877 667.923 169.312Z" fill="black"/>
<path d="M659.329 168.525C659.329 168.96 659.691 169.311 660.137 169.311C660.584 169.311 660.946 168.96 660.946 168.525C660.946 168.091 660.584 167.74 660.137 167.74C659.691 167.74 659.329 168.091 659.329 168.525Z" fill="black"/>
<path d="M682.207 174.299C684.886 174.299 687.058 172.188 687.058 169.583C687.058 166.979 684.886 164.867 682.207 164.867C679.527 164.867 677.355 166.979 677.355 169.583C677.355 172.188 679.527 174.299 682.207 174.299Z" fill="#FE9F73"/>
<path d="M682.565 172.473C683.573 172.473 684.246 171.737 684.468 171.001C684.73 170.13 684.429 169.285 683.703 168.846C682.628 168.198 681.654 168.614 681.155 168.933C681.364 168.398 681.693 168.008 682.134 167.772C683.09 167.26 684.276 167.633 684.288 167.637C684.358 167.66 684.435 167.622 684.458 167.554C684.482 167.485 684.444 167.411 684.373 167.388C684.32 167.371 683.067 166.976 682.006 167.541C681.394 167.868 680.978 168.446 680.769 169.259L680.651 169.716L680.994 169.384C681.043 169.337 682.196 168.247 683.56 169.069C684.315 169.524 684.382 170.355 684.209 170.928C684.03 171.522 683.493 172.212 682.566 172.212C682.557 172.212 682.548 172.211 682.539 172.211C682.465 172.211 682.405 172.268 682.404 172.34C682.403 172.413 682.462 172.472 682.537 172.473C682.546 172.473 682.556 172.473 682.565 172.473Z" fill="#F07162"/>
<path d="M656.818 174.594C656.818 174.594 655.056 187.191 663.661 187.639C675.973 188.279 677.166 181.448 677.897 175.859L678.021 164.322L677.625 160.975C676.755 161.932 676.223 163.132 676.106 164.404C675.851 167.171 675.221 174.624 674.511 174.954C673.507 175.419 658.734 173.38 656.818 174.594Z" fill="#21111D"/>
<path d="M665.071 174.613C665.128 174.613 665.18 174.578 665.199 174.524C665.223 174.455 665.184 174.381 665.114 174.358L662.412 173.489L663.266 167.309C663.276 167.238 663.224 167.172 663.15 167.162C663.076 167.151 663.008 167.203 662.998 167.275L662.115 173.67L665.029 174.607C665.043 174.611 665.057 174.613 665.071 174.613Z" fill="#F07162"/>
<path d="M667.164 177.165C667.081 177.149 661.827 177.029 661.827 177.029C661.827 177.029 662.487 179.141 664.439 179.191C666.392 179.241 667.164 177.165 667.164 177.165Z" fill="#FBFDFC"/>
<path d="M677.651 161.189L680.087 159.046L682.607 164.898C682.607 164.898 679.491 165.395 679.437 168.525C679.383 171.655 681.132 176.542 675.52 183.565C669.908 190.587 675.972 173.083 676.026 172.474C676.08 171.864 677.651 161.189 677.651 161.189Z" fill="#21111D"/>
<path d="M680.573 151.076C677.975 148.585 668.964 147.164 662.534 150.908L662.533 150.901C655.211 154.362 657.512 161.405 657.755 161.614L657.85 161.544C657.813 161.706 657.779 161.869 657.755 162.032C657.755 162.032 658.062 161.558 658.72 160.9L661.599 158.77C663.212 157.892 665.377 157.135 668.177 156.959C670.957 156.784 673.384 156.933 675.377 157.525C675.904 159.122 676.332 162.289 675.713 168.525C674.769 178.037 679.071 166.499 680.634 162.08C680.97 162.906 681.214 163.834 681.336 164.897C681.336 164.897 685.78 156.066 680.573 151.076Z" fill="#21111D"/>
<path d="M657.757 164.177C657.757 164.177 657.565 160.359 657.754 159.522C657.944 158.685 666.743 156.284 671.56 156.922C676.378 157.561 667.039 162.686 666.931 162.686C666.823 162.686 657.757 164.177 657.757 164.177Z" fill="#FE9F73"/>
<path d="M674.456 157.901L679.112 153.717L674.727 159.836L674.456 157.901Z" fill="#FE9F73"/>
<path d="M674.456 149.664C674.456 149.664 673.509 140.642 678.706 142.603C683.903 144.565 684.797 148.722 680.087 151.468C675.377 154.214 674.456 149.664 674.456 149.664Z" fill="#21111D"/>
<path d="M693.625 211.248L684.451 196.385L668.331 201.089L661.792 194.369C661.792 194.369 660.401 200.575 660.442 201.089C660.483 201.603 667.807 208.955 668.748 208.876C669.689 208.797 693.625 211.248 693.625 211.248Z" fill="#21197A"/>
<path d="M692.318 374.95C692.031 374.95 691.788 374.736 691.768 374.455C691.746 374.161 691.975 373.905 692.279 373.885C700.019 373.35 701.082 366.992 702.842 356.459C703.159 354.566 703.486 352.608 703.88 350.504C706.501 336.514 707.655 302.621 707.665 302.281C707.675 301.992 707.921 301.764 708.218 301.764C708.224 301.764 708.229 301.764 708.236 301.765C708.541 301.774 708.779 302.021 708.77 302.315C708.759 302.657 707.602 336.627 704.967 350.694C704.575 352.789 704.248 354.741 703.932 356.63C702.148 367.303 700.969 374.355 692.358 374.949C692.344 374.95 692.332 374.95 692.318 374.95Z" fill="#21111D"/>
<path d="M662.762 187.681L662.095 192.944C662.095 192.944 666.084 198.727 668.814 200.574C674.227 196.947 682.606 191.878 682.606 191.878L682.117 185.224C692.166 184.117 703.608 190.219 700.99 193.362C698.371 196.505 684.761 197.471 681.149 198.616C677.586 199.745 668.482 202.416 668.482 202.416C666.088 200.698 659.66 193.402 659.66 193.402L653.155 195.147C653.029 188.769 662.762 187.681 662.762 187.681Z" fill="#FD7583"/>
<path d="M643.186 537.959H694.297V528.023C694.297 528.023 690.58 523.254 684.919 525.688C684.919 525.688 676.539 531.55 668.992 524.546L650.068 532.395C650.068 532.395 643.186 534.581 643.186 537.959Z" fill="#49263E"/>
<path d="M694.297 541.436H641.997C641.428 541.436 640.966 540.99 640.966 540.441V538.955C640.966 538.405 641.428 537.959 641.997 537.959H694.297V541.436Z" fill="#683D46"/>
<path d="M663.39 526.869C665.104 529.455 668.548 534.653 670.738 537.959H674.222C672.266 535.005 668.164 528.813 666.123 525.735L663.39 526.869Z" fill="#D7E4F7"/>
<path d="M665.151 537.959H668.635C667.043 535.555 663.939 530.87 661.741 527.553L659.007 528.687C660.854 531.473 663.413 535.335 665.151 537.959Z" fill="#D7E4F7"/>
<path d="M668.482 202.771C668.387 202.771 668.292 202.736 668.22 202.665L656.865 191.522C656.723 191.383 656.724 191.157 656.869 191.019C657.014 190.882 657.247 190.883 657.39 191.024L668.745 202.166C668.887 202.306 668.886 202.531 668.741 202.669C668.668 202.737 668.576 202.771 668.482 202.771Z" fill="black"/>
<path d="M540.497 229.726C539.597 226.598 541.494 223.357 544.733 222.488C547.972 221.62 551.326 223.452 552.226 226.581C553.125 229.709 551.228 232.95 547.989 233.818C544.751 234.687 541.396 232.855 540.497 229.726Z" fill="#540885"/>
<path d="M534.228 226.044C533.691 226.188 533.107 226.189 532.536 226.016C530.96 225.539 530.084 223.918 530.578 222.396C532.232 217.302 536.395 213.409 541.714 211.982C546.688 210.648 552.075 211.703 556.125 214.803C557.419 215.793 557.637 217.61 556.612 218.86C555.587 220.111 553.706 220.321 552.412 219.331C549.854 217.373 546.453 216.706 543.314 217.548C539.956 218.449 537.328 220.907 536.283 224.124C535.968 225.095 535.172 225.791 534.228 226.044Z" fill="#540885"/>
<path d="M524.039 222.645C523.503 222.789 522.918 222.79 522.348 222.616C520.772 222.139 519.895 220.518 520.389 218.996C523.142 210.518 530.071 204.038 538.923 201.664C547.201 199.443 556.168 201.199 562.91 206.359C564.204 207.349 564.422 209.166 563.397 210.416C562.372 211.666 560.491 211.877 559.197 210.887C553.947 206.869 546.967 205.502 540.523 207.23C533.632 209.078 528.239 214.123 526.095 220.725C525.78 221.695 524.984 222.391 524.039 222.645Z" fill="#540885"/>
<path d="M597.588 153.66H446.463C443.671 153.66 441.408 151.474 441.408 148.777V111.154C441.408 108.457 443.671 106.271 446.463 106.271H597.588C600.379 106.271 602.642 108.457 602.642 111.154V148.777C602.642 151.474 600.379 153.66 597.588 153.66Z" fill="#540885"/>
<path d="M573.605 150.499C573.676 150.773 588.949 163.369 588.949 163.369L584.797 149.765L573.605 150.499Z" fill="#540885"/>
<path d="M455.521 134.852V123.428H464.097V134.852H462.673V124.692H456.961V134.852H455.521ZM470.344 126.116C471.08 126.116 471.709 126.276 472.232 126.596C472.765 126.916 473.171 127.37 473.448 127.956C473.736 128.532 473.88 129.21 473.88 129.988V130.836H468.008C468.029 131.807 468.275 132.548 468.744 133.06C469.224 133.562 469.891 133.812 470.744 133.812C471.288 133.812 471.768 133.764 472.184 133.668C472.611 133.562 473.048 133.412 473.496 133.22V134.452C473.059 134.644 472.627 134.783 472.2 134.868C471.773 134.964 471.267 135.012 470.68 135.012C469.869 135.012 469.149 134.847 468.52 134.516C467.901 134.186 467.416 133.695 467.064 133.044C466.723 132.383 466.552 131.578 466.552 130.628C466.552 129.69 466.707 128.884 467.016 128.212C467.336 127.54 467.779 127.023 468.344 126.66C468.92 126.298 469.587 126.116 470.344 126.116ZM470.328 127.268C469.656 127.268 469.123 127.487 468.728 127.924C468.344 128.351 468.115 128.948 468.04 129.716H472.408C472.408 129.226 472.333 128.799 472.184 128.436C472.035 128.074 471.805 127.791 471.496 127.588C471.197 127.375 470.808 127.268 470.328 127.268ZM480.143 126.116C481.199 126.116 482.047 126.484 482.687 127.22C483.338 127.956 483.663 129.066 483.663 130.548C483.663 131.519 483.514 132.34 483.215 133.012C482.927 133.674 482.517 134.175 481.983 134.516C481.461 134.847 480.842 135.012 480.127 135.012C479.69 135.012 479.301 134.954 478.959 134.836C478.618 134.719 478.325 134.57 478.079 134.388C477.845 134.196 477.642 133.988 477.471 133.764H477.375C477.397 133.946 477.418 134.175 477.439 134.452C477.461 134.73 477.471 134.97 477.471 135.172V138.692H476.063V126.276H477.215L477.407 127.444H477.471C477.642 127.199 477.845 126.975 478.079 126.772C478.325 126.57 478.613 126.41 478.943 126.292C479.285 126.175 479.685 126.116 480.143 126.116ZM479.887 127.3C479.311 127.3 478.847 127.412 478.495 127.636C478.143 127.85 477.887 128.175 477.727 128.612C477.567 129.05 477.482 129.604 477.471 130.276V130.548C477.471 131.252 477.546 131.85 477.695 132.34C477.845 132.831 478.095 133.204 478.447 133.46C478.81 133.716 479.301 133.844 479.919 133.844C480.442 133.844 480.869 133.7 481.199 133.412C481.541 133.124 481.791 132.735 481.951 132.244C482.122 131.743 482.207 131.172 482.207 130.532C482.207 129.551 482.015 128.767 481.631 128.18C481.258 127.594 480.677 127.3 479.887 127.3ZM489.219 126.116C489.955 126.116 490.584 126.276 491.107 126.596C491.64 126.916 492.046 127.37 492.323 127.956C492.611 128.532 492.755 129.21 492.755 129.988V130.836H486.883C486.904 131.807 487.15 132.548 487.619 133.06C488.099 133.562 488.766 133.812 489.619 133.812C490.163 133.812 490.643 133.764 491.059 133.668C491.486 133.562 491.923 133.412 492.371 133.22V134.452C491.934 134.644 491.502 134.783 491.075 134.868C490.648 134.964 490.142 135.012 489.555 135.012C488.744 135.012 488.024 134.847 487.395 134.516C486.776 134.186 486.291 133.695 485.939 133.044C485.598 132.383 485.427 131.578 485.427 130.628C485.427 129.69 485.582 128.884 485.891 128.212C486.211 127.54 486.654 127.023 487.219 126.66C487.795 126.298 488.462 126.116 489.219 126.116ZM489.203 127.268C488.531 127.268 487.998 127.487 487.603 127.924C487.219 128.351 486.99 128.948 486.915 129.716H491.283C491.283 129.226 491.208 128.799 491.059 128.436C490.91 128.074 490.68 127.791 490.371 127.588C490.072 127.375 489.683 127.268 489.203 127.268ZM501.834 128.436C501.834 128.97 501.674 129.386 501.354 129.684C501.034 129.983 500.624 130.186 500.122 130.292V130.356C500.656 130.431 501.12 130.623 501.514 130.932C501.909 131.231 502.106 131.7 502.106 132.34C502.106 132.703 502.037 133.039 501.898 133.348C501.77 133.658 501.568 133.924 501.29 134.148C501.013 134.372 500.656 134.548 500.218 134.676C499.781 134.794 499.253 134.852 498.634 134.852H494.938V126.276H498.618C499.226 126.276 499.77 126.346 500.25 126.484C500.741 126.612 501.125 126.836 501.402 127.156C501.69 127.466 501.834 127.892 501.834 128.436ZM500.65 132.34C500.65 131.85 500.464 131.498 500.09 131.284C499.717 131.071 499.168 130.964 498.442 130.964H496.346V133.716H498.474C499.178 133.716 499.717 133.615 500.09 133.412C500.464 133.199 500.65 132.842 500.65 132.34ZM500.41 128.612C500.41 128.207 500.261 127.914 499.962 127.732C499.674 127.54 499.2 127.444 498.538 127.444H496.346V129.796H498.282C498.976 129.796 499.504 129.7 499.866 129.508C500.229 129.316 500.41 129.018 500.41 128.612ZM511.613 130.548C511.613 131.263 511.517 131.898 511.325 132.452C511.144 132.996 510.877 133.46 510.525 133.844C510.184 134.228 509.762 134.522 509.261 134.724C508.77 134.916 508.221 135.012 507.613 135.012C507.048 135.012 506.525 134.916 506.045 134.724C505.565 134.522 505.149 134.228 504.797 133.844C504.445 133.46 504.168 132.996 503.965 132.452C503.773 131.898 503.677 131.263 503.677 130.548C503.677 129.599 503.837 128.799 504.157 128.148C504.477 127.487 504.936 126.986 505.533 126.644C506.13 126.292 506.84 126.116 507.661 126.116C508.44 126.116 509.122 126.292 509.709 126.644C510.306 126.986 510.77 127.487 511.101 128.148C511.442 128.799 511.613 129.599 511.613 130.548ZM505.133 130.548C505.133 131.22 505.218 131.807 505.389 132.308C505.57 132.799 505.848 133.178 506.221 133.444C506.594 133.711 507.069 133.844 507.645 133.844C508.221 133.844 508.696 133.711 509.069 133.444C509.442 133.178 509.714 132.799 509.885 132.308C510.066 131.807 510.157 131.22 510.157 130.548C510.157 129.866 510.066 129.284 509.885 128.804C509.704 128.324 509.426 127.956 509.053 127.7C508.69 127.434 508.216 127.3 507.629 127.3C506.754 127.3 506.12 127.588 505.725 128.164C505.33 128.74 505.133 129.535 505.133 130.548ZM520.212 126.276V133.668H521.46V137.828H520.1V134.852H514.132V137.828H512.788V133.668H513.476C513.967 132.986 514.372 132.244 514.692 131.444C515.023 130.634 515.268 129.791 515.428 128.916C515.599 128.031 515.69 127.151 515.7 126.276H520.212ZM516.948 127.38C516.906 128.106 516.794 128.858 516.612 129.636C516.431 130.404 516.196 131.14 515.908 131.844C515.631 132.548 515.306 133.156 514.932 133.668H518.852V127.38H516.948ZM528.096 126.276V129.844H532.752V126.276H534.16V134.852H532.752V131.028H528.096V134.852H526.688V126.276H528.096ZM540.124 126.132C541.169 126.132 541.942 126.362 542.444 126.82C542.945 127.279 543.196 128.01 543.196 129.012V134.852H542.172L541.9 133.636H541.836C541.59 133.946 541.334 134.207 541.068 134.42C540.812 134.623 540.513 134.772 540.172 134.868C539.841 134.964 539.436 135.012 538.956 135.012C538.444 135.012 537.98 134.922 537.564 134.74C537.158 134.559 536.838 134.282 536.604 133.908C536.369 133.524 536.252 133.044 536.252 132.468C536.252 131.615 536.588 130.959 537.26 130.5C537.932 130.031 538.966 129.775 540.364 129.732L541.82 129.684V129.172C541.82 128.458 541.665 127.962 541.356 127.684C541.046 127.407 540.609 127.268 540.044 127.268C539.596 127.268 539.169 127.338 538.764 127.476C538.358 127.604 537.98 127.754 537.628 127.924L537.196 126.868C537.569 126.666 538.012 126.495 538.524 126.356C539.036 126.207 539.569 126.132 540.124 126.132ZM540.54 130.708C539.473 130.751 538.732 130.922 538.316 131.22C537.91 131.519 537.708 131.94 537.708 132.484C537.708 132.964 537.852 133.316 538.14 133.54C538.438 133.764 538.817 133.876 539.276 133.876C540.001 133.876 540.604 133.679 541.084 133.284C541.564 132.879 541.804 132.26 541.804 131.428V130.66L540.54 130.708ZM554.463 126.276H555.999L552.335 130.404L556.303 134.852H554.671L550.799 130.5V134.852H549.391V126.276H550.799V130.436L554.463 126.276ZM561.108 126.132C562.153 126.132 562.927 126.362 563.428 126.82C563.929 127.279 564.18 128.01 564.18 129.012V134.852H563.156L562.884 133.636H562.82C562.575 133.946 562.319 134.207 562.052 134.42C561.796 134.623 561.497 134.772 561.156 134.868C560.825 134.964 560.42 135.012 559.94 135.012C559.428 135.012 558.964 134.922 558.548 134.74C558.143 134.559 557.823 134.282 557.588 133.908C557.353 133.524 557.236 133.044 557.236 132.468C557.236 131.615 557.572 130.959 558.244 130.5C558.916 130.031 559.951 129.775 561.348 129.732L562.804 129.684V129.172C562.804 128.458 562.649 127.962 562.34 127.684C562.031 127.407 561.593 127.268 561.028 127.268C560.58 127.268 560.153 127.338 559.748 127.476C559.343 127.604 558.964 127.754 558.612 127.924L558.18 126.868C558.553 126.666 558.996 126.495 559.508 126.356C560.02 126.207 560.553 126.132 561.108 126.132ZM561.524 130.708C560.457 130.751 559.716 130.922 559.3 131.22C558.895 131.519 558.692 131.94 558.692 132.484C558.692 132.964 558.836 133.316 559.124 133.54C559.423 133.764 559.801 133.876 560.26 133.876C560.985 133.876 561.588 133.679 562.068 133.284C562.548 132.879 562.788 132.26 562.788 131.428V130.66L561.524 130.708ZM570.909 126.116C571.965 126.116 572.813 126.484 573.453 127.22C574.104 127.956 574.429 129.066 574.429 130.548C574.429 131.519 574.28 132.34 573.981 133.012C573.693 133.674 573.282 134.175 572.749 134.516C572.226 134.847 571.608 135.012 570.893 135.012C570.456 135.012 570.066 134.954 569.725 134.836C569.384 134.719 569.09 134.57 568.845 134.388C568.61 134.196 568.408 133.988 568.237 133.764H568.141C568.162 133.946 568.184 134.175 568.205 134.452C568.226 134.73 568.237 134.97 568.237 135.172V138.692H566.829V126.276H567.981L568.173 127.444H568.237C568.408 127.199 568.61 126.975 568.845 126.772C569.09 126.57 569.378 126.41 569.709 126.292C570.05 126.175 570.45 126.116 570.909 126.116ZM570.653 127.3C570.077 127.3 569.613 127.412 569.261 127.636C568.909 127.85 568.653 128.175 568.493 128.612C568.333 129.05 568.248 129.604 568.237 130.276V130.548C568.237 131.252 568.312 131.85 568.461 132.34C568.61 132.831 568.861 133.204 569.213 133.46C569.576 133.716 570.066 133.844 570.685 133.844C571.208 133.844 571.634 133.7 571.965 133.412C572.306 133.124 572.557 132.735 572.717 132.244C572.888 131.743 572.973 131.172 572.973 130.532C572.973 129.551 572.781 128.767 572.397 128.18C572.024 127.594 571.442 127.3 570.653 127.3ZM582.436 127.46H579.636V134.852H578.244V127.46H575.476V126.276H582.436V127.46ZM582.782 126.276H584.286L586.142 131.156C586.248 131.444 586.344 131.722 586.43 131.988C586.526 132.255 586.611 132.516 586.686 132.772C586.76 133.018 586.819 133.258 586.862 133.492H586.926C586.99 133.226 587.091 132.879 587.23 132.452C587.368 132.015 587.512 131.578 587.662 131.14L589.406 126.276H590.926L587.23 136.036C587.027 136.57 586.787 137.034 586.51 137.428C586.243 137.834 585.912 138.143 585.518 138.356C585.134 138.58 584.664 138.692 584.11 138.692C583.854 138.692 583.63 138.676 583.438 138.644C583.246 138.623 583.08 138.596 582.942 138.564V137.444C583.059 137.466 583.198 137.487 583.358 137.508C583.528 137.53 583.704 137.54 583.886 137.54C584.216 137.54 584.499 137.476 584.734 137.348C584.979 137.231 585.187 137.055 585.358 136.82C585.528 136.596 585.672 136.33 585.79 136.02L586.238 134.884L582.782 126.276Z" fill="white"/>
</svg>
