<svg width="150" height="150" viewBox="0 0 150 150" fill="none" xmlns="http://www.w3.org/2000/svg">
<g clip-path="url(#clip0_48_1966)">
<path d="M80.3571 15.5171H16.0714C14.6506 15.5171 13.288 16.062 12.2834 17.0321C11.2787 18.0021 10.7143 19.3177 10.7143 20.6895V62.0688C10.7143 63.4406 11.2787 64.7562 12.2834 65.7263C13.288 66.6963 14.6506 67.2412 16.0714 67.2412H80.3571C81.7779 67.2412 83.1406 66.6963 84.1452 65.7263C85.1499 64.7562 85.7143 63.4406 85.7143 62.0688V20.6895C85.7143 19.3177 85.1499 18.0021 84.1452 17.0321C83.1406 16.062 81.7779 15.5171 80.3571 15.5171ZM80.3571 62.0688H16.0714V20.6895H80.3571V62.0688ZM26.7857 77.5861H16.0714C14.6506 77.5861 13.288 78.131 12.2834 79.101C11.2787 80.071 10.7143 81.3867 10.7143 82.7585V87.9309C10.7143 89.3027 11.2787 90.6183 12.2834 91.5883C13.288 92.5583 14.6506 93.1033 16.0714 93.1033H26.7857C28.2065 93.1033 29.5691 92.5583 30.5738 91.5883C31.5784 90.6183 32.1429 89.3027 32.1429 87.9309V82.7585C32.1429 81.3867 31.5784 80.071 30.5738 79.101C29.5691 78.131 28.2065 77.5861 26.7857 77.5861ZM26.7857 87.9309H16.0714V82.7585H26.7857V87.9309ZM42.8571 93.1033H53.5714C54.9922 93.1033 56.3548 92.5583 57.3595 91.5883C58.3642 90.6183 58.9286 89.3027 58.9286 87.9309V82.7585C58.9286 81.3867 58.3642 80.071 57.3595 79.101C56.3548 78.131 54.9922 77.5861 53.5714 77.5861H42.8571C41.4363 77.5861 40.0737 78.131 39.0691 79.101C38.0644 80.071 37.5 81.3867 37.5 82.7585V87.9309C37.5 89.3027 38.0644 90.6183 39.0691 91.5883C40.0737 92.5583 41.4363 93.1033 42.8571 93.1033ZM42.8571 82.7585H53.5714V87.9309H42.8571V82.7585ZM80.3571 77.5861H69.6429C68.222 77.5861 66.8594 78.131 65.8548 79.101C64.8501 80.071 64.2857 81.3867 64.2857 82.7585V87.9309C64.2857 89.3027 64.8501 90.6183 65.8548 91.5883C66.8594 92.5583 68.222 93.1033 69.6429 93.1033H80.3571C81.7779 93.1033 83.1406 92.5583 84.1452 91.5883C85.1499 90.6183 85.7143 89.3027 85.7143 87.9309V82.7585C85.7143 81.3867 85.1499 80.071 84.1452 79.101C83.1406 78.131 81.7779 77.5861 80.3571 77.5861ZM80.3571 87.9309H69.6429V82.7585H80.3571V87.9309ZM26.7857 98.2757H16.0714C14.6506 98.2757 13.288 98.8207 12.2834 99.7907C11.2787 100.761 10.7143 102.076 10.7143 103.448V108.621C10.7143 109.992 11.2787 111.308 12.2834 112.278C13.288 113.248 14.6506 113.793 16.0714 113.793H26.7857C28.2065 113.793 29.5691 113.248 30.5738 112.278C31.5784 111.308 32.1429 109.992 32.1429 108.621V103.448C32.1429 102.076 31.5784 100.761 30.5738 99.7907C29.5691 98.8207 28.2065 98.2757 26.7857 98.2757ZM26.7857 108.621H16.0714V103.448H26.7857V108.621ZM37.5 108.621C37.5 109.992 38.0644 111.308 39.0691 112.278C40.0737 113.248 41.4363 113.793 42.8571 113.793H53.5714C54.9922 113.793 56.3548 113.248 57.3595 112.278C58.3642 111.308 58.9286 109.992 58.9286 108.621V103.448C58.9286 102.076 58.3642 100.761 57.3595 99.7907C56.3548 98.8207 54.9922 98.2757 53.5714 98.2757H42.8571C41.4363 98.2757 40.0737 98.8207 39.0691 99.7907C38.0644 100.761 37.5 102.076 37.5 103.448V108.621ZM42.8571 103.448H53.5714V108.621H42.8571V103.448ZM80.3571 98.2757H69.6429C68.222 98.2757 66.8594 98.8207 65.8548 99.7907C64.8501 100.761 64.2857 102.076 64.2857 103.448V108.621C64.2857 109.992 64.8501 111.308 65.8548 112.278C66.8594 113.248 68.222 113.793 69.6429 113.793H80.3571C81.7779 113.793 83.1406 113.248 84.1452 112.278C85.1499 111.308 85.7143 109.992 85.7143 108.621V103.448C85.7143 102.076 85.1499 100.761 84.1452 99.7907C83.1406 98.8207 81.7779 98.2757 80.3571 98.2757ZM80.3571 108.621H69.6429V103.448H80.3571V108.621ZM26.7857 118.965H16.0714C14.6506 118.965 13.288 119.51 12.2834 120.48C11.2787 121.45 10.7143 122.766 10.7143 124.138V129.31C10.7143 130.682 11.2787 131.998 12.2834 132.968C13.288 133.938 14.6506 134.483 16.0714 134.483H26.7857C28.2065 134.483 29.5691 133.938 30.5738 132.968C31.5784 131.998 32.1429 130.682 32.1429 129.31V124.138C32.1429 122.766 31.5784 121.45 30.5738 120.48C29.5691 119.51 28.2065 118.965 26.7857 118.965ZM26.7857 129.31H16.0714V124.138H26.7857V129.31ZM80.3571 118.965H42.8571C41.4363 118.965 40.0737 119.51 39.0691 120.48C38.0644 121.45 37.5 122.766 37.5 124.138V129.31C37.5 130.682 38.0644 131.998 39.0691 132.968C40.0737 133.938 41.4363 134.483 42.8571 134.483H80.3571C81.7779 134.483 83.1406 133.938 84.1452 132.968C85.1499 131.998 85.7143 130.682 85.7143 129.31V124.138C85.7143 122.766 85.1499 121.45 84.1452 120.48C83.1406 119.51 81.7779 118.965 80.3571 118.965ZM80.3571 129.31H42.8571V124.138H80.3571V129.31Z" fill="url(#paint0_linear_48_1966)"/>
<path d="M141.964 15.5172H96.2143C95.5707 11.2122 93.3434 7.27488 89.9397 4.42547C86.536 1.57605 82.1835 0.00509769 77.6786 0H18.75C13.7789 0.00547593 9.01309 1.91456 5.49801 5.30843C1.98293 8.70229 0.0056715 13.3038 0 18.1034V131.897C0.0056715 136.696 1.98293 141.298 5.49801 144.692C9.01309 148.085 13.7789 149.995 18.75 150H77.6786C82.1835 149.995 86.536 148.424 89.9397 145.575C93.3434 142.725 95.5707 138.788 96.2143 134.483H141.964C144.095 134.483 146.139 133.665 147.646 132.21C149.153 130.755 150 128.782 150 126.724V23.2759C150 21.2181 149.153 19.2447 147.646 17.7897C146.139 16.3347 144.095 15.5172 141.964 15.5172ZM77.6786 144.828H18.75C15.1993 144.823 11.7952 143.46 9.28452 141.036C6.77379 138.611 5.3614 135.325 5.35714 131.897V18.1034C5.3614 14.6752 6.77379 11.3885 9.28452 8.96436C11.7952 6.54021 15.1993 5.17652 18.75 5.17241H77.6786C81.2293 5.17652 84.6333 6.54021 87.1441 8.96436C89.6548 11.3885 91.0672 14.6752 91.0714 18.1034V131.897C91.0672 135.325 89.6548 138.611 87.1441 141.036C84.6333 143.46 81.2293 144.823 77.6786 144.828ZM144.643 126.724C144.643 127.41 144.361 128.068 143.858 128.553C143.356 129.038 142.675 129.31 141.964 129.31H96.4286V20.6897H141.964C142.675 20.6897 143.356 20.9621 143.858 21.4471C144.361 21.9321 144.643 22.59 144.643 23.2759V126.724Z" fill="url(#paint1_linear_48_1966)"/>
<path d="M120.536 108.621C119.825 108.621 119.144 108.893 118.642 109.378C118.139 109.863 117.857 110.521 117.857 111.207V121.552C117.857 122.238 118.139 122.895 118.642 123.38C119.144 123.865 119.825 124.138 120.536 124.138C121.246 124.138 121.927 123.865 122.43 123.38C122.932 122.895 123.214 122.238 123.214 121.552V111.207C123.214 110.521 122.932 109.863 122.43 109.378C121.927 108.893 121.246 108.621 120.536 108.621ZM120.536 87.931C119.825 87.931 119.144 88.2035 118.642 88.6885C118.139 89.1735 117.857 89.8313 117.857 90.5172V100.862C117.857 101.548 118.139 102.206 118.642 102.691C119.144 103.176 119.825 103.448 120.536 103.448C121.246 103.448 121.927 103.176 122.43 102.691C122.932 102.206 123.214 101.548 123.214 100.862V90.5172C123.214 89.8313 122.932 89.1735 122.43 88.6885C121.927 88.2035 121.246 87.931 120.536 87.931ZM120.536 67.2414C119.825 67.2414 119.144 67.5139 118.642 67.9989C118.139 68.4839 117.857 69.1417 117.857 69.8276V80.1724C117.857 80.8583 118.139 81.5161 118.642 82.0011C119.144 82.4862 119.825 82.7586 120.536 82.7586C121.246 82.7586 121.927 82.4862 122.43 82.0011C122.932 81.5161 123.214 80.8583 123.214 80.1724V69.8276C123.214 69.1417 122.932 68.4839 122.43 67.9989C121.927 67.5139 121.246 67.2414 120.536 67.2414ZM136.607 67.2414C135.897 67.2414 135.215 67.5139 134.713 67.9989C134.211 68.4839 133.929 69.1417 133.929 69.8276V121.552C133.929 122.238 134.211 122.895 134.713 123.38C135.215 123.865 135.897 124.138 136.607 124.138C137.318 124.138 137.999 123.865 138.501 123.38C139.004 122.895 139.286 122.238 139.286 121.552V69.8276C139.286 69.1417 139.004 68.4839 138.501 67.9989C137.999 67.5139 137.318 67.2414 136.607 67.2414ZM128.571 25.8621C125.73 25.8621 123.005 26.952 120.995 28.892C118.986 30.832 117.857 33.4633 117.857 36.2069C117.861 38.026 118.367 39.8113 119.322 41.3793C118.367 42.9474 117.861 44.7326 117.857 46.5517C117.85 48.1426 118.223 49.7136 118.947 51.1426C119.671 52.5716 120.727 53.8201 122.032 54.7911C123.337 55.762 124.857 56.4293 126.472 56.7409C128.088 57.0526 129.757 57.0002 131.348 56.588C132.939 56.1757 134.411 55.4146 135.648 54.3639C136.885 53.3132 137.855 52.0011 138.481 50.5298C139.107 49.0584 139.374 47.4673 139.26 45.8803C139.146 44.2933 138.654 42.753 137.823 41.3793C138.775 39.8106 139.281 38.0265 139.288 36.2082C139.296 34.3899 138.805 32.6021 137.865 31.0263C136.926 29.4504 135.571 28.1426 133.939 27.2357C132.306 26.3287 130.455 25.8548 128.571 25.8621ZM128.571 31.0345C129.992 31.0345 131.355 31.5794 132.36 32.5495C133.364 33.5195 133.929 34.8351 133.929 36.2069C133.93 36.6431 133.873 37.0777 133.76 37.5C133.57 37.3966 133.366 37.319 133.171 37.2285C133.058 37.1767 132.948 37.1224 132.833 37.0759C132.237 36.8258 131.618 36.6293 130.985 36.4888C130.864 36.4629 130.741 36.4448 130.621 36.4216C129.946 36.2874 129.26 36.2155 128.571 36.2069C127.885 36.2124 127.2 36.2826 126.528 36.4164C126.402 36.4397 126.279 36.4578 126.155 36.4836C125.531 36.6226 124.92 36.8157 124.331 37.0604C124.2 37.1147 124.077 37.1767 123.946 37.2362C123.758 37.3216 123.565 37.3966 123.383 37.4948C123.27 37.0742 123.214 36.6414 123.214 36.2069C123.214 34.8351 123.779 33.5195 124.783 32.5495C125.788 31.5794 127.151 31.0345 128.571 31.0345ZM128.571 51.7241C127.536 51.7211 126.523 51.4283 125.656 50.8811C124.789 50.3339 124.105 49.5557 123.687 48.6409C123.268 47.7261 123.134 46.7138 123.299 45.7265C123.464 44.7393 123.922 43.8195 124.618 43.0785C125.618 42.0859 126.979 41.5094 128.412 41.4717C129.846 41.434 131.238 41.9382 132.292 42.8767C132.378 42.9595 132.477 43.0241 132.56 43.1147C133.442 44.0568 133.93 45.2818 133.929 46.5517C133.929 47.9235 133.364 49.2392 132.36 50.2092C131.355 51.1792 129.992 51.7241 128.571 51.7241ZM41.2714 55.3629C43.4321 56.3846 45.8084 56.9095 48.2143 56.8966C52.4754 56.8924 56.5608 55.2563 59.5738 52.3471C62.5869 49.438 64.2815 45.4935 64.2857 41.3793C64.3054 38.0188 63.1755 34.746 61.0714 32.069C61.0339 32.0198 60.975 31.9966 60.9348 31.95C60.8946 31.9035 60.8786 31.8466 60.833 31.8026C60.5873 31.6439 60.3409 31.4861 60.0938 31.3293C59.9432 31.2626 59.7862 31.2107 59.625 31.1741C59.4592 31.1257 59.2886 31.0936 59.1161 31.0785C58.9495 31.0729 58.7828 31.0815 58.6179 31.1043C58.4481 31.1207 58.2804 31.1528 58.117 31.2C57.9484 31.2581 57.7867 31.3335 57.6348 31.425C57.5268 31.4668 57.4221 31.516 57.3214 31.5724C57.2705 31.6086 57.2464 31.6629 57.1982 31.7043C57.15 31.7457 57.0911 31.7586 57.0455 31.8026L48.2143 40.3086L47.4295 39.5509C46.9243 39.0798 46.2477 38.8191 45.5454 38.825C44.843 38.8309 44.1712 39.1029 43.6746 39.5824C43.178 40.0619 42.8963 40.7105 42.8902 41.3886C42.8841 42.0667 43.154 42.72 43.642 43.2078L46.3205 45.794C46.8228 46.2788 47.504 46.5512 48.2143 46.5512C48.9245 46.5512 49.6057 46.2788 50.108 45.794L58.2938 37.8905C58.8768 39.4514 59.0618 41.1249 58.8331 42.7694C58.6044 44.4139 57.9688 45.981 56.9799 47.3381C55.9911 48.6952 54.6783 49.8023 53.1525 50.5658C51.6267 51.3293 49.9328 51.7266 48.2143 51.7241C46.6157 51.7352 45.0364 51.3863 43.6018 50.7052C41.4145 49.6914 39.6483 47.9907 38.5924 45.8816C37.5364 43.7725 37.2531 41.3798 37.7888 39.095C38.3246 36.8102 39.6477 34.7687 41.5415 33.3044C43.4354 31.8401 45.788 31.0398 48.2143 31.0345H48.5679C49.257 31.1485 49.965 30.9977 50.5406 30.6145C51.1163 30.2312 51.5138 29.6458 51.6485 28.9834C51.7831 28.3209 51.6441 27.6339 51.2612 27.069C50.8783 26.5042 50.2818 26.1063 49.5991 25.9604C49.142 25.8836 48.6781 25.8506 48.2143 25.8621C44.5748 25.8672 41.0449 27.065 38.2023 29.2592C35.3596 31.4535 33.3724 34.5144 32.566 37.941C31.7596 41.3676 32.1816 44.957 33.763 48.1219C35.3445 51.2868 37.9917 53.8397 41.2714 55.3629Z" fill="url(#paint2_linear_48_1966)"/>
</g>
<defs>
<linearGradient id="paint0_linear_48_1966" x1="48.2143" y1="15.5171" x2="48.2143" y2="134.483" gradientUnits="userSpaceOnUse">
<stop stop-color="#4D6BEC"/>
<stop offset="1" stop-color="#7F25CE"/>
</linearGradient>
<linearGradient id="paint1_linear_48_1966" x1="75" y1="0" x2="75" y2="150" gradientUnits="userSpaceOnUse">
<stop stop-color="#4D6BEC"/>
<stop offset="1" stop-color="#7F25CE"/>
</linearGradient>
<linearGradient id="paint2_linear_48_1966" x1="85.7274" y1="25.8599" x2="85.7274" y2="124.138" gradientUnits="userSpaceOnUse">
<stop stop-color="#4D6BEC"/>
<stop offset="1" stop-color="#7F25CE"/>
</linearGradient>
<clipPath id="clip0_48_1966">
<rect width="150" height="150" fill="white"/>
</clipPath>
</defs>
</svg>
