<svg width="100" height="100" viewBox="0 0 100 100" fill="none" xmlns="http://www.w3.org/2000/svg">
<g clip-path="url(#clip0_48_1929)">
<path d="M98.8543 47.2349L98.8508 47.2312L78.4398 26.9187C76.9108 25.3971 74.4375 25.4027 72.9154 26.932C71.3936 28.4611 71.3994 30.9344 72.9285 32.4562L86.6324 46.0937H3.90625C1.74883 46.0937 0 47.8426 0 50C0 52.1574 1.74883 53.9062 3.90625 53.9062H86.6322L72.9287 67.5437C71.3996 69.0656 71.3938 71.5389 72.9156 73.068C74.4377 74.5974 76.9111 74.6027 78.44 73.0812L98.851 52.7687L98.8545 52.765C100.384 51.2381 100.38 48.7568 98.8543 47.2349Z" fill="url(#paint0_linear_48_1929)"/>
</g>
<defs>
<linearGradient id="paint0_linear_48_1929" x1="0" y1="50" x2="100" y2="50" gradientUnits="userSpaceOnUse">
<stop stop-color="#80D8FF"/>
<stop offset="0.0001" stop-color="#4C6DED"/>
<stop offset="1" stop-color="#8420CC"/>
</linearGradient>
<clipPath id="clip0_48_1929">
<rect width="100" height="100" fill="white"/>
</clipPath>
</defs>
</svg>
