<svg width="150" height="150" viewBox="0 0 150 150" fill="none" xmlns="http://www.w3.org/2000/svg">
<g clip-path="url(#clip0_48_1972)">
<path d="M119.707 42.4357V44.4602C119.707 45.115 119.962 45.743 120.416 46.206C120.87 46.669 121.485 46.9291 122.127 46.9291C122.768 46.9291 123.384 46.669 123.837 46.206C124.291 45.743 124.546 45.115 124.546 44.4602V42.4407C128.601 41.5766 131.281 38.6188 131.281 34.6291C131.289 31.7158 130.144 26.6644 122.487 25.5732C118.689 24.8794 118.072 23.329 118.29 21.1786C118.604 19.117 120.842 18.1369 122.802 18.2974C123.673 18.3591 125.705 18.7319 125.736 20.8329C125.753 22.1957 126.944 23.2598 128.187 23.2672C128.505 23.2631 128.819 23.195 129.111 23.0668C129.403 22.9387 129.668 22.7531 129.89 22.5206C130.111 22.2881 130.286 22.0133 130.404 21.7118C130.521 21.4104 130.58 21.0882 130.575 20.7638C130.527 17.1147 128.153 14.3718 124.546 13.5842V11.7992C124.546 11.1444 124.291 10.5165 123.837 10.0534C123.384 9.59044 122.768 9.33032 122.127 9.33032C121.485 9.33032 120.87 9.59044 120.416 10.0534C119.962 10.5165 119.707 11.1444 119.707 11.7992V13.7447C116.722 14.594 114.053 16.8456 113.492 20.5391C113.177 23.6203 113.811 29.0025 121.725 30.4493C125.879 31.0418 126.448 32.8021 126.443 34.6217C126.443 37.6535 122.751 37.7053 122.04 37.7868C119.448 37.7868 117.854 36.3302 117.67 33.7872C117.654 33.4587 117.573 33.1369 117.433 32.8407C117.293 32.5444 117.096 32.2798 116.854 32.0622C116.612 31.8447 116.33 31.6786 116.025 31.5738C115.719 31.469 115.396 31.4276 115.075 31.4519C114.754 31.4763 114.44 31.5659 114.153 31.7156C113.866 31.8653 113.611 32.072 113.404 32.3236C113.196 32.5752 113.04 32.8666 112.944 33.1807C112.848 33.4948 112.815 33.8252 112.846 34.1526C113.161 38.4608 115.829 41.5494 119.707 42.4382V42.4357ZM33.7742 15.6186H54.4597C55.1014 15.6186 55.7167 15.3585 56.1705 14.8955C56.6242 14.4325 56.8791 13.8045 56.8791 13.1497C56.8791 12.4949 56.6242 11.8669 56.1705 11.4039C55.7167 10.9409 55.1014 10.6808 54.4597 10.6808H33.7742C33.1326 10.6808 32.5172 10.9409 32.0635 11.4039C31.6098 11.8669 31.3549 12.4949 31.3549 13.1497C31.3549 13.8045 31.6098 14.4325 32.0635 14.8955C32.5172 15.3585 33.1326 15.6186 33.7742 15.6186ZM51.4791 134.049H36.7476C36.106 134.049 35.4906 134.309 35.0369 134.772C34.5832 135.235 34.3283 135.863 34.3283 136.518C34.3283 137.173 34.5832 137.801 35.0369 138.264C35.4906 138.727 36.106 138.987 36.7476 138.987H51.4791C52.1207 138.987 52.7361 138.727 53.1898 138.264C53.6435 137.801 53.8984 137.173 53.8984 136.518C53.8984 135.863 53.6435 135.235 53.1898 134.772C52.7361 134.309 52.1207 134.049 51.4791 134.049ZM118.938 92.3099C118.334 92.0757 117.664 92.093 117.073 92.3581C116.481 92.6232 116.015 93.1148 115.776 93.7271C115.537 94.335 115.545 95.0149 115.797 95.617C116.05 96.2192 116.526 96.6943 117.122 96.9379C117.718 97.1814 118.384 97.1735 118.974 96.9159C119.564 96.6582 120.03 96.1719 120.269 95.5639L120.302 95.4775C120.419 95.1783 120.476 94.8585 120.47 94.5367C120.464 94.2149 120.396 93.8975 120.269 93.6028C120.142 93.3082 119.959 93.0422 119.73 92.8202C119.502 92.5983 119.233 92.4248 118.938 92.3099ZM44.117 45.7144C28.0089 45.7144 14.9033 59.086 14.9033 75.519C14.9033 91.9569 28.0089 105.331 44.117 105.331C60.2226 105.331 73.3234 91.9569 73.3234 75.519C73.3234 59.086 60.2226 45.7144 44.117 45.7144ZM44.117 100.393C30.6775 100.393 19.742 89.2337 19.742 75.519C19.742 61.8067 30.6775 50.6522 44.117 50.6522C57.5541 50.6522 68.4847 61.8067 68.4847 75.519C68.4847 89.2361 57.5541 100.393 44.117 100.393Z" fill="url(#paint0_linear_48_1972)"/>
<path d="M142.66 61.2379H88.2339V17.6866C88.2288 13.2723 86.5081 9.04028 83.4493 5.91889C80.3906 2.7975 76.2435 1.0416 71.9177 1.03638H16.3161C11.9904 1.0416 7.8433 2.7975 4.78454 5.91889C1.72578 9.04028 0.00512225 13.2723 0 17.6866V133.349C0.00512225 137.764 1.72578 141.996 4.78454 145.117C7.8433 148.239 11.9904 149.994 16.3161 150H71.9177C76.2439 149.995 80.3916 148.24 83.4509 145.118C86.5102 141.997 88.2312 137.764 88.2363 133.349V128.041H142.66C144.605 128.039 146.47 127.249 147.846 125.846C149.221 124.443 149.996 122.541 150 120.556V68.7286C149.998 66.7425 149.224 64.8384 147.848 63.4341C146.472 62.0297 144.606 61.2399 142.66 61.2379ZM4.83871 26.9548H83.3952V123.489H4.83871V26.9548ZM88.2339 87.3687C89.775 86.1809 91.6542 85.5394 93.5855 85.5418C95.9494 85.5457 98.2153 86.5062 99.8862 88.2127C101.557 89.9192 102.496 92.2322 102.498 94.6446C102.496 97.056 101.556 99.368 99.885 101.073C98.2141 102.778 95.9485 103.737 93.5855 103.74C91.6403 103.74 89.775 103.098 88.2363 101.913L88.2339 87.3687ZM88.2339 107.545C89.9246 108.287 91.7449 108.673 93.5855 108.68C97.2319 108.676 100.728 107.196 103.306 104.565C105.884 101.933 107.334 98.3656 107.337 94.6446C107.335 90.9226 105.885 87.3537 103.307 84.721C100.729 82.0882 97.2327 80.6067 93.5855 80.6015C91.7457 80.6088 89.9263 80.9951 88.2363 81.7372V77.2956H123.915C124.392 79.6518 125.535 81.8138 127.202 83.5151C128.869 85.2164 130.988 86.3826 133.297 86.87V102.407C130.988 102.894 128.869 104.06 127.202 105.762C125.535 107.463 124.392 109.625 123.915 111.981H88.2363L88.2339 107.545ZM16.3185 5.97417H71.9202C74.9634 5.97744 77.8811 7.21239 80.0332 9.40812C82.1854 11.6039 83.3962 14.5811 83.4 17.6866V22.0171H4.83871V17.6866C4.84255 14.5815 6.05301 11.6047 8.20461 9.40899C10.3562 7.21333 13.2757 5.97809 16.3185 5.97417ZM71.9226 145.062H16.3161C13.2733 145.058 10.3562 143.823 8.20461 141.627C6.05301 139.431 4.84255 136.455 4.83871 133.349V128.426H83.3952V133.349C83.3913 136.454 82.1812 139.431 80.0301 141.626C77.879 143.822 74.9626 145.057 71.9202 145.062H71.9226ZM145.161 120.551C145.161 121.958 144.039 123.104 142.66 123.104H88.2339V116.921H126.087C126.729 116.921 127.344 116.661 127.798 116.198C128.252 115.735 128.506 115.107 128.506 114.453C128.508 112.502 129.268 110.631 130.62 109.252C131.971 107.872 133.804 107.097 135.716 107.095C136.358 107.095 136.973 106.835 137.427 106.372C137.881 105.909 138.135 105.281 138.135 104.626V84.653C138.135 83.9982 137.881 83.3702 137.427 82.9072C136.973 82.4442 136.358 82.1841 135.716 82.1841C133.805 82.1821 131.973 81.4066 130.622 80.0277C129.271 78.6488 128.511 76.7792 128.509 74.8292C128.509 74.1744 128.254 73.5464 127.8 73.0834C127.347 72.6204 126.731 72.3603 126.09 72.3603H88.2363V66.1757H142.66C144.039 66.1757 145.161 67.3213 145.161 68.7286V120.551Z" fill="url(#paint1_linear_48_1972)"/>
<path d="M121.918 56.2859C137.127 56.2859 149.499 43.6624 149.499 28.1479C149.499 12.6259 137.127 0 121.918 0C106.71 0 94.3378 12.6259 94.3378 28.1454C94.3378 43.6624 106.71 56.2859 121.918 56.2859ZM121.918 4.93779C134.46 4.93779 144.66 15.3491 144.66 28.1479C144.66 40.9417 134.46 51.3481 121.918 51.3481C109.377 51.3481 99.1765 40.9417 99.1765 28.1479C99.1765 15.3491 109.377 4.93779 121.918 4.93779ZM53.8765 60.4805C53.0147 60.5295 52.1709 60.7526 51.3943 61.137C50.6177 61.5215 49.9236 62.0595 49.3523 62.7198L38.3515 75.3408L36.5031 73.6694C35.8374 73.0595 35.0596 72.5907 34.2148 72.2902C33.37 71.9897 32.4751 71.8635 31.5822 71.9189C30.6843 71.9683 29.8049 72.1991 28.995 72.5979C28.1852 72.9967 27.461 73.5556 26.8644 74.2422C25.6639 75.6239 25.0494 77.435 25.1555 79.2784C25.2616 81.1218 26.0798 82.847 27.4306 84.0758L34.7443 90.7146C35.6854 91.5664 37.1128 92.67 38.8451 92.67C38.9418 92.67 39.041 92.6651 39.1402 92.6577C41.1846 92.5095 42.4789 90.9517 43.8483 89.3024C44.1459 88.9469 44.4652 88.5618 44.816 88.1544L59.1991 71.6523C60.3575 70.3178 60.9499 68.5691 60.8465 66.7895C60.7431 65.0099 59.9523 63.3448 58.6475 62.1594C58.0008 61.5711 57.246 61.1198 56.427 60.8316C55.608 60.5434 54.7411 60.4241 53.8765 60.4805ZM55.5822 68.3711L41.2039 84.8708C40.8217 85.3078 40.4781 85.725 40.1564 86.1101C39.6846 86.678 39.116 87.3619 38.7749 87.6557C38.4825 87.4731 38.2086 87.2614 37.9572 87.0236L30.6459 80.3872C30.2574 80.0265 30.0225 79.525 29.9913 78.99C29.9601 78.4549 30.1351 77.9286 30.4789 77.5233C30.6662 77.3078 30.8965 77.1357 31.1544 77.0185C31.4123 76.9014 31.6918 76.842 31.9741 76.8444C32.458 76.8444 32.9177 77.0221 33.2878 77.3579L36.9507 80.6712C37.4304 81.1045 38.0589 81.3261 38.6984 81.2872C39.3379 81.2483 39.9362 80.9522 40.362 80.4638L52.9741 65.9961C53.1271 65.8215 53.3123 65.6793 53.5191 65.5778C53.7259 65.4762 53.9503 65.4172 54.1794 65.4041C54.4086 65.3911 54.638 65.4242 54.8546 65.5016C55.0712 65.579 55.2708 65.6992 55.4418 65.8553C55.6129 66.0114 55.7522 66.2004 55.8517 66.4115C55.9513 66.6225 56.0091 66.8515 56.0219 67.0853C56.0347 67.3192 56.0022 67.5533 55.9264 67.7743C55.8505 67.9954 55.7327 68.199 55.5797 68.3736L55.5822 68.3711Z" fill="url(#paint2_linear_48_1972)"/>
</g>
<defs>
<linearGradient id="paint0_linear_48_1972" x1="73.0924" y1="9.33032" x2="73.0924" y2="138.987" gradientUnits="userSpaceOnUse">
<stop stop-color="#4D6BEC"/>
<stop offset="1" stop-color="#7F25CE"/>
</linearGradient>
<linearGradient id="paint1_linear_48_1972" x1="75" y1="1.03638" x2="75" y2="150" gradientUnits="userSpaceOnUse">
<stop stop-color="#4D6BEC"/>
<stop offset="1" stop-color="#7F25CE"/>
</linearGradient>
<linearGradient id="paint2_linear_48_1972" x1="87.3214" y1="0" x2="87.3214" y2="92.67" gradientUnits="userSpaceOnUse">
<stop stop-color="#4D6BEC"/>
<stop offset="1" stop-color="#7F25CE"/>
</linearGradient>
<clipPath id="clip0_48_1972">
<rect width="150" height="150" fill="white"/>
</clipPath>
</defs>
</svg>
