<svg width="150" height="150" viewBox="0 0 150 150" fill="none" xmlns="http://www.w3.org/2000/svg">
<g clip-path="url(#clip0_48_1960)">
<path d="M45 150H105C117.426 150 127.5 139.926 127.5 127.5C127.5 115.074 117.426 105 105 105H45C32.5737 105 22.5 115.074 22.5 127.5C22.5 139.926 32.5737 150 45 150ZM45 110H105C114.665 110 122.5 117.835 122.5 127.5C122.5 137.165 114.665 145 105 145H45C35.335 145 27.5001 137.165 27.5001 127.5C27.5001 117.835 35.335 110 45 110ZM137.5 52.5H12.5001C5.5998 52.5082 0.00820313 58.0998 0 65.0001V85.0002C0.00820313 91.9002 5.5998 97.4918 12.5001 97.5003H137.5C144.4 97.4921 149.992 91.9005 150 85.0002V65.0001C149.992 58.0998 144.4 52.5082 137.5 52.5ZM145 84.9999C145 89.1419 141.642 92.4999 137.5 92.4999H12.5001C8.35811 92.4999 5.0001 89.1419 5.0001 84.9999V64.9998C5.0001 60.8575 8.35811 57.4998 12.5001 57.4998H137.5C141.642 57.4998 145 60.8578 145 64.9998L145 84.9999ZM137.5 0H12.5001C5.5998 0.00820313 0.00820313 5.5998 0 12.5001V32.5002C0.00820313 39.4002 5.5998 44.9918 12.5001 45.0003H137.5C144.4 44.9921 149.992 39.4005 150 32.5002V12.5001C149.992 5.5998 144.4 0.00820313 137.5 0ZM145 32.4999C145 36.6419 141.642 39.9999 137.5 39.9999H12.5001C8.35811 39.9999 5.0001 36.6419 5.0001 32.4999V12.5001C5.0001 8.35811 8.35811 5.0001 12.5001 5.0001H137.5C141.642 5.0001 145 8.35811 145 12.5001L145 32.4999Z" fill="url(#paint0_linear_48_1960)"/>
<path d="M37.5 62.5H17.4999C13.3579 62.5 9.99991 65.858 9.99991 70V79.9999C9.99991 84.1419 13.3579 87.4999 17.4999 87.4999H37.5C41.6423 87.4999 45 84.1419 45 79.9999V70C45 65.858 41.6423 62.5 37.5 62.5ZM35.0001 67.5001L29.0326 72.0001C28.5901 72.3292 28.054 72.5082 27.5026 72.5109C26.9511 72.5136 26.4133 72.3398 25.9676 72.0151L20.0001 67.5001H35.0001ZM37.5 82.5001H17.4999C16.8369 82.5001 16.201 82.2367 15.7322 81.7679C15.2634 81.2991 15 80.6632 15 80.0002V70.0003L23.0001 76.0003C24.3071 76.9705 25.8923 77.4931 27.52 77.4904C29.1477 77.4877 30.7312 76.9599 32.035 75.9854L39.9999 70.0003V80.0002C39.9999 80.6632 39.7365 81.2991 39.2677 81.7679C38.7989 82.2367 38.163 82.5001 37.5 82.5001ZM33.4526 22.0126C34.4505 20.7194 34.9944 19.1334 35.0001 17.5C35.0001 13.358 31.6421 10 27.5001 10C23.3581 10 20.0001 13.358 20.0001 17.5C20.0086 19.1291 20.5523 20.7102 21.5476 22C20.2942 22.924 19.2751 24.1291 18.5722 25.5186C17.8693 26.908 17.5021 28.443 17.5002 30.0001C17.5002 32.7616 19.7388 35.0002 22.5003 35.0002H32.5002C35.2617 35.0002 37.5003 32.7616 37.5003 30.0001C37.4963 28.4451 37.128 26.9127 36.4252 25.5256C35.7223 24.1385 34.7042 22.9354 33.4526 22.0126ZM24.9999 17.5C24.9999 16.837 25.2633 16.2011 25.7321 15.7323C26.2009 15.2635 26.8368 15.0001 27.4998 15.0001C28.1628 15.0001 28.7987 15.2635 29.2675 15.7323C29.7363 16.2011 29.9997 16.837 29.9997 17.5C29.9997 18.163 29.7363 18.7989 29.2675 19.2677C28.7987 19.7365 28.1628 19.9999 27.4998 19.9999C26.8368 19.9999 26.2009 19.7365 25.7321 19.2677C25.2633 18.7989 24.9999 18.163 24.9999 17.5ZM22.5 30.0001C22.5 27.2386 24.7386 25 27.5001 25C30.2616 25 32.5002 27.2386 32.5002 30.0001H22.5Z" fill="url(#paint1_linear_48_1960)"/>
<path fill-rule="evenodd" clip-rule="evenodd" d="M54.9999 72.5001H67.5C68.163 72.5001 68.7989 72.2367 69.2677 71.7679C69.7365 71.2991 69.9999 70.6632 69.9999 70.0002C69.9999 69.3372 69.7365 68.7013 69.2677 68.2325C68.7989 67.7637 68.163 67.5003 67.5 67.5003H54.9999C54.3369 67.5003 53.701 67.7637 53.2322 68.2325C52.7634 68.7013 52.5 69.3372 52.5 70.0002C52.5 70.6632 52.7634 71.2991 53.2322 71.7679C53.701 72.2367 54.3369 72.5001 54.9999 72.5001ZM132.5 77.4999H54.9999C54.3369 77.4999 53.701 77.7633 53.2322 78.2321C52.7634 78.7009 52.5 79.3368 52.5 79.9998C52.5 80.6628 52.7634 81.2987 53.2322 81.7675C53.701 82.2363 54.3369 82.4997 54.9999 82.4997H132.5C133.881 82.4997 135 81.3806 135 79.9998C135 78.619 133.881 77.4999 132.5 77.4999ZM54.9999 20.0001H67.5C68.1584 19.993 68.7874 19.7264 69.2504 19.2584C69.7134 18.7903 69.9731 18.1585 69.9731 17.5C69.9731 16.8416 69.7134 16.2098 69.2504 15.7417C68.7874 15.2737 68.1584 15.0071 67.5 15H54.9999C54.345 15.0123 53.721 15.2811 53.2622 15.7486C52.8033 16.2161 52.5463 16.845 52.5463 17.5C52.5463 18.1551 52.8033 18.784 53.2622 19.2515C53.721 19.719 54.345 19.9878 54.9999 20.0001ZM132.5 24.9999H54.9999C54.3369 24.9999 53.701 25.2633 53.2322 25.7321C52.7634 26.2009 52.5 26.8368 52.5 27.4998C52.5 28.1628 52.7634 28.7987 53.2322 29.2675C53.701 29.7363 54.3369 29.9997 54.9999 29.9997H132.5C133.163 29.9997 133.799 29.7363 134.268 29.2675C134.736 28.7987 135 28.1628 135 27.4998C135 27.1715 134.935 26.8465 134.81 26.5432C134.684 26.2399 134.5 25.9643 134.268 25.7321C134.036 25.5 133.76 25.3158 133.457 25.1902C133.153 25.0646 132.828 24.9999 132.5 24.9999ZM65.7325 136.767C66.158 137.193 66.7226 137.451 67.3229 137.494C67.9231 137.536 68.5186 137.361 69 137L89.0001 122C89.5172 121.597 89.8555 121.008 89.9423 120.358C90.0291 119.709 89.8575 119.051 89.4643 118.527C89.0711 118.003 88.4878 117.654 87.84 117.555C87.1921 117.457 86.5314 117.616 86.0001 118L67.735 131.7L64.2674 128.232C63.7959 127.777 63.1644 127.525 62.5089 127.531C61.8534 127.536 61.2264 127.799 60.7629 128.263C60.2994 128.726 60.0364 129.353 60.0307 130.009C60.025 130.664 60.277 131.296 60.7324 131.767L65.7325 136.767Z" fill="url(#paint2_linear_48_1960)"/>
</g>
<defs>
<linearGradient id="paint0_linear_48_1960" x1="75.0001" y1="0" x2="75.0001" y2="150" gradientUnits="userSpaceOnUse">
<stop stop-color="#4D6BEC"/>
<stop offset="1" stop-color="#7F25CE"/>
</linearGradient>
<linearGradient id="paint1_linear_48_1960" x1="27.5" y1="10" x2="27.5" y2="87.4999" gradientUnits="userSpaceOnUse">
<stop stop-color="#4D6BEC"/>
<stop offset="1" stop-color="#7F25CE"/>
</linearGradient>
<linearGradient id="paint2_linear_48_1960" x1="93.7499" y1="15" x2="93.7499" y2="137.5" gradientUnits="userSpaceOnUse">
<stop stop-color="#4D6BEC"/>
<stop offset="1" stop-color="#7F25CE"/>
</linearGradient>
<clipPath id="clip0_48_1960">
<rect width="150" height="150" fill="white"/>
</clipPath>
</defs>
</svg>
