<svg width="165" height="94" viewBox="0 0 165 94" fill="none" xmlns="http://www.w3.org/2000/svg">
<path d="M42.9703 83.4071C43.4829 83.9887 44.1051 84.4621 44.8008 84.7999C45.4966 85.1376 46.252 85.3331 47.0233 85.3748C47.7947 85.4166 48.5666 85.3038 49.2943 85.0432C50.022 84.7825 50.6911 84.379 51.2628 83.8561C51.8344 83.3332 52.2973 82.7014 52.6245 81.9971C52.9518 81.2929 53.1369 80.5303 53.1691 79.7535C53.2014 78.9768 53.0801 78.2013 52.8124 77.472C52.5446 76.7428 52.1358 76.0743 51.6094 75.5052L25.9838 47.1437L51.6094 18.7821C52.1358 18.2131 52.5446 17.5445 52.8124 16.8153C53.0801 16.086 53.2013 15.3105 53.1691 14.5338C53.1369 13.757 52.9517 12.9944 52.6245 12.2902C52.2973 11.586 51.8344 10.9541 51.2628 10.4312C50.6911 9.90835 50.022 9.50488 49.2943 9.24418C48.5666 8.98348 47.7947 8.87075 47.0233 8.91251C46.252 8.95428 45.4966 9.14971 44.8008 9.48748C44.1051 9.82526 43.4829 10.2986 42.9703 10.8802L13.784 43.1927C12.8077 44.274 12.2668 45.6826 12.2668 47.1437C12.2668 48.6047 12.8077 50.0133 13.784 51.0946L42.9703 83.4071Z" fill="#E4B200"/>
<path d="M46.9083 51.1989L76.0946 83.5114C77.1412 84.6429 78.5888 85.3136 80.1234 85.3782C81.6581 85.4427 83.1562 84.8958 84.293 83.8561C85.4297 82.8164 86.1134 81.3676 86.196 79.8239C86.2785 78.2802 85.7531 76.766 84.7338 75.6095L59.1082 47.2479L84.7338 18.8863C85.2601 18.3173 85.669 17.6488 85.9367 16.9195C86.2044 16.1903 86.3257 15.4148 86.2934 14.638C86.2612 13.8613 86.0761 13.0987 85.7488 12.3944C85.4216 11.6902 84.9587 11.0583 84.3871 10.5355C83.8154 10.0126 83.1464 9.60913 82.4186 9.34843C81.6909 9.08774 80.919 8.975 80.1477 9.01676C79.3763 9.05853 78.6209 9.25396 77.9252 9.59174C77.2294 9.92951 76.6072 10.4029 76.0946 10.9845L46.9083 43.297C45.9321 44.3783 45.3912 45.7869 45.3912 47.2479C45.3912 48.7089 45.9321 50.1176 46.9083 51.1989Z" fill="#E4B200"/>
<path d="M80.0326 51.1989L109.219 83.5114C110.266 84.6429 111.713 85.3136 113.248 85.3782C114.782 85.4427 116.281 84.8958 117.417 83.8561C118.554 82.8164 119.238 81.3676 119.32 79.8239C119.403 78.2802 118.877 76.766 117.858 75.6095L92.2325 47.2479L117.858 18.8863C118.384 18.3173 118.793 17.6488 119.061 16.9195C119.329 16.1903 119.45 15.4148 119.418 14.638C119.386 13.8613 119.2 13.0987 118.873 12.3944C118.546 11.6902 118.083 11.0583 117.511 10.5355C116.94 10.0126 116.271 9.60913 115.543 9.34843C114.815 9.08774 114.043 8.975 113.272 9.01676C112.501 9.05853 111.745 9.25396 111.05 9.59174C110.354 9.92951 109.732 10.4029 109.219 10.9845L80.0326 43.297C79.0564 44.3783 78.5155 45.7869 78.5155 47.2479C78.5155 48.7089 79.0564 50.1176 80.0326 51.1989Z" fill="#E4B200"/>
<path d="M113.157 51.1989L142.343 83.5114C143.39 84.6429 144.837 85.3136 146.372 85.3782C147.907 85.4427 149.405 84.8958 150.542 83.8561C151.678 82.8164 152.362 81.3676 152.445 79.8239C152.527 78.2802 152.002 76.766 150.982 75.6095L125.357 47.2479L150.982 18.8863C151.509 18.3173 151.918 17.6488 152.185 16.9195C152.453 16.1903 152.574 15.4148 152.542 14.638C152.51 13.8613 152.325 13.0987 151.997 12.3944C151.67 11.6902 151.207 11.0583 150.636 10.5355C150.064 10.0126 149.395 9.60913 148.667 9.34843C147.94 9.08774 147.168 8.975 146.396 9.01676C145.625 9.05853 144.87 9.25396 144.174 9.59174C143.478 9.92951 142.856 10.4029 142.343 10.9845L113.157 43.297C112.181 44.3783 111.64 45.7869 111.64 47.2479C111.64 48.7089 112.181 50.1176 113.157 51.1989Z" fill="#E4B200"/>
</svg>
