<svg width="779" height="680" viewBox="0 0 779 680" fill="none" xmlns="http://www.w3.org/2000/svg">
<path d="M113.601 336.273C-11.4322 408.46 -11.4295 525.501 113.608 597.69C238.645 669.877 441.366 669.877 566.398 597.69C691.431 525.502 691.428 408.462 566.391 336.273C441.355 264.084 238.634 264.084 113.601 336.273Z" fill="#867FFF"/>
<path d="M567.742 620.718C620.292 620.718 662.893 596.122 662.893 565.782C662.893 535.442 620.292 510.846 567.742 510.846C515.191 510.846 472.591 535.442 472.591 565.782C472.591 596.122 515.191 620.718 567.742 620.718Z" fill="#E0E0E0"/>
<path d="M314.654 460.408L73.8086 599.382C71.411 600.767 71.411 603.011 73.8086 604.394L105.877 622.861C108.275 624.246 112.161 624.246 114.558 622.861L355.405 483.886C357.802 482.501 357.802 480.257 355.405 478.874L323.335 460.407C320.938 459.023 317.051 459.023 314.654 460.408Z" fill="#E0E0E0"/>
<path d="M328.354 573.043L317.652 578C316.993 578.306 315.899 578.363 315.204 578.147C312.539 577.313 309.752 576.656 306.896 576.172C306.179 576.05 305.485 575.385 305.35 574.669L304.012 567.618C303.876 566.902 303.177 566.323 302.449 566.323H286.926C286.198 566.323 285.498 566.902 285.363 567.618L284.024 574.669C283.888 575.385 283.194 576.05 282.477 576.172C279.623 576.656 276.836 577.313 274.171 578.147C273.476 578.364 272.382 578.307 271.721 578.001L261.019 573.044C260.36 572.738 259.314 572.786 258.683 573.149L248.125 579.244C247.496 579.607 247.463 580.248 248.054 580.672L256.421 586.693C257.011 587.117 257.067 587.874 256.576 588.411C255.354 589.748 254.359 591.135 253.588 592.555C253.24 593.194 252.413 593.772 251.687 593.817L237.619 594.708C236.893 594.754 236.304 595.381 236.304 596.108V603.957C236.304 604.684 236.893 605.311 237.619 605.358L251.687 606.248C252.413 606.295 253.24 606.871 253.588 607.511C254.359 608.93 255.354 610.318 256.576 611.654C257.067 612.192 257.011 612.948 256.421 613.372L248.054 619.391C247.464 619.816 247.496 620.456 248.125 620.819L258.683 626.915C259.313 627.279 260.358 627.326 261.019 627.02L271.721 622.061C272.381 621.755 273.474 621.698 274.169 621.914C276.835 622.748 279.621 623.405 282.477 623.89C283.195 624.011 283.889 624.678 284.025 625.393L285.363 632.445C285.499 633.16 286.2 633.739 286.926 633.739H302.449C303.177 633.739 303.877 633.16 304.012 632.445L305.351 625.392C305.487 624.678 306.18 624.011 306.898 623.889C309.754 623.403 312.54 622.747 315.206 621.914C315.901 621.698 316.994 621.755 317.655 622.06L328.357 627.017C329.017 627.323 330.062 627.275 330.693 626.912L341.251 620.817C341.881 620.454 341.913 619.813 341.323 619.389L332.957 613.368C332.366 612.944 332.311 612.188 332.801 611.652C334.024 610.315 335.018 608.928 335.789 607.508C336.136 606.869 336.964 606.291 337.691 606.244L351.76 605.354C352.486 605.307 353.075 604.68 353.075 603.953V596.104C353.075 595.377 352.486 594.75 351.76 594.703L337.691 593.814C336.964 593.768 336.138 593.191 335.791 592.552C335.02 591.132 334.025 589.745 332.804 588.408C332.313 587.871 332.369 587.115 332.959 586.69L341.326 580.671C341.916 580.247 341.885 579.606 341.254 579.243L330.696 573.147C330.06 572.784 329.014 572.737 328.354 573.043ZM312.521 589.733C322.372 595.42 322.372 604.64 312.521 610.327C302.671 616.013 286.7 616.015 276.85 610.327C267.001 604.641 267.001 595.419 276.851 589.733C286.702 584.047 302.671 584.047 312.521 589.733Z" fill="#E6E6E6"/>
<path d="M410.661 546.328L402.733 550.002C402.243 550.229 401.434 550.271 400.92 550.11C398.945 549.493 396.881 549.006 394.764 548.647C394.233 548.557 393.718 548.064 393.618 547.533L392.626 542.308C392.526 541.779 392.008 541.349 391.469 541.349H379.969C379.43 541.349 378.911 541.779 378.81 542.308L377.817 547.533C377.717 548.062 377.203 548.556 376.671 548.647C374.556 549.006 372.492 549.493 370.517 550.11C370.003 550.271 369.192 550.229 368.703 550.003L360.774 546.33C360.284 546.102 359.51 546.138 359.043 546.407L351.221 550.924C350.755 551.193 350.73 551.666 351.168 551.982L357.367 556.443C357.805 556.757 357.846 557.317 357.483 557.714C356.577 558.704 355.84 559.732 355.269 560.784C355.012 561.257 354.398 561.685 353.86 561.719L343.437 562.379C342.898 562.413 342.463 562.878 342.463 563.417V569.231C342.463 569.769 342.899 570.234 343.437 570.268L353.86 570.928C354.398 570.962 355.01 571.389 355.269 571.864C355.84 572.915 356.577 573.943 357.483 574.933C357.846 575.332 357.805 575.891 357.368 576.206L351.17 580.666C350.732 580.981 350.756 581.454 351.223 581.724L359.044 586.239C359.51 586.508 360.286 586.543 360.775 586.316L368.704 582.643C369.194 582.417 370.003 582.374 370.517 582.534C372.492 583.152 374.556 583.639 376.672 583.998C377.204 584.087 377.718 584.581 377.819 585.111L378.81 590.337C378.911 590.866 379.429 591.295 379.969 591.295H391.469C392.008 591.295 392.527 590.866 392.628 590.337L393.619 585.111C393.72 584.582 394.233 584.089 394.764 583.999C396.881 583.64 398.945 583.153 400.92 582.536C401.434 582.375 402.244 582.417 402.734 582.643L410.663 586.316C411.151 586.543 411.926 586.508 412.394 586.239L420.215 581.724C420.682 581.454 420.706 580.981 420.268 580.666L414.07 576.205C413.632 575.889 413.591 575.33 413.954 574.933C414.86 573.943 415.597 572.915 416.168 571.864C416.425 571.39 417.038 570.962 417.576 570.928L427.999 570.268C428.537 570.234 428.972 569.769 428.972 569.231V563.415C428.972 562.877 428.536 562.412 427.999 562.378L417.576 561.718C417.037 561.684 416.425 561.257 416.168 560.782C415.597 559.731 414.86 558.703 413.955 557.711C413.592 557.314 413.633 556.754 414.071 556.438L420.27 551.979C420.708 551.665 420.683 551.19 420.217 550.921L412.394 546.404C411.925 546.136 411.151 546.101 410.661 546.328ZM398.931 558.693C406.229 562.907 406.229 569.738 398.931 573.951C391.634 578.165 379.802 578.165 372.504 573.951C365.206 569.738 365.206 562.907 372.504 558.693C379.802 554.48 391.634 554.48 398.931 558.693Z" fill="#E6E6E6"/>
<path d="M86.7218 609.834L101.882 601.074C101.882 601.074 110.904 563.583 107.309 529.848C102.254 482.418 71.0328 464.571 59.1614 468.661C47.29 472.752 43.8519 486.554 63.4957 514.802C75.0843 531.469 89.3221 566.184 86.7218 609.834Z" fill="#BA68C8"/>
<g opacity="0.65">
<path d="M86.7218 609.834L101.882 601.074C101.882 601.074 110.904 563.583 107.309 529.848C102.254 482.418 71.0328 464.571 59.1614 468.661C47.29 472.752 43.8519 486.554 63.4957 514.802C75.0843 531.469 89.3221 566.184 86.7218 609.834Z" fill="white"/>
</g>
<path d="M93.0037 591.415C92.9547 591.412 92.9071 591.405 92.8581 591.397C92.2883 591.288 91.9129 590.739 92.0217 590.169C100.331 546.422 85.049 497.263 66.1246 476.808C65.7302 476.383 65.756 475.716 66.1831 475.323C66.6101 474.934 67.2751 474.954 67.6695 475.381C86.938 496.21 102.52 546.17 94.0862 590.561C93.9896 591.082 93.5191 591.441 93.0037 591.415Z" fill="white"/>
<path d="M48.5684 631.861C46.304 633.015 40.2805 627.859 38.6023 626.605C35.7286 624.459 33.4601 621.512 32.0212 618.234C30.3457 614.419 30.0778 610.41 30.868 606.323C31.2787 604.204 31.9804 602.155 32.6808 600.112C33.369 598.107 34.0558 596.103 34.7426 594.098C35.4212 592.121 36.108 590.074 35.9476 587.989C35.6239 583.789 32.0675 580.679 28.8266 577.986C25.243 575.011 21.5506 571.133 21.8253 566.111C22.0375 562.235 24.2257 558.737 26.7825 555.814C29.3379 552.893 32.3245 550.35 34.6583 547.247C36.3379 545.014 37.6938 542.36 37.5809 539.568C37.5102 537.834 36.8764 536.17 36.1271 534.605C34.5182 531.244 32.3286 528.13 31.2828 524.553C30.2355 520.978 30.6313 516.615 33.5009 514.239C35.8564 512.289 39.217 512.169 42.2539 512.524C45.0637 512.853 47.7537 514.263 50.1514 515.759C57.9034 520.597 61.9794 530.273 70.2713 534.113C73.47 535.594 77.0319 536.063 80.3897 537.133C83.7476 538.205 87.1299 540.117 88.547 543.344C91.3405 549.706 85.1892 557.064 87.0415 563.761C88.6803 569.687 94.2318 572.205 97.149 577.619C98.4247 579.987 98.611 582.659 98.252 585.325C97.6427 589.837 96.8118 593.128 94.3841 598.058C92.3768 602.132 86.726 609.832 86.726 609.832C86.726 609.832 48.9152 631.684 48.5684 631.861Z" fill="#BA68C8"/>
<g opacity="0.3">
<path d="M48.5684 631.861C46.304 633.015 40.2805 627.859 38.6023 626.605C35.7286 624.459 33.4601 621.512 32.0212 618.234C30.3457 614.419 30.0778 610.41 30.868 606.323C31.2787 604.204 31.9804 602.155 32.6808 600.112C33.369 598.107 34.0558 596.103 34.7426 594.098C35.4212 592.121 36.108 590.074 35.9476 587.989C35.6239 583.789 32.0675 580.679 28.8266 577.986C25.243 575.011 21.5506 571.133 21.8253 566.111C22.0375 562.235 24.2257 558.737 26.7825 555.814C29.3379 552.893 32.3245 550.35 34.6583 547.247C36.3379 545.014 37.6938 542.36 37.5809 539.568C37.5102 537.834 36.8764 536.17 36.1271 534.605C34.5182 531.244 32.3286 528.13 31.2828 524.553C30.2355 520.978 30.6313 516.615 33.5009 514.239C35.8564 512.289 39.217 512.169 42.2539 512.524C45.0637 512.853 47.7537 514.263 50.1514 515.759C57.9034 520.597 61.9794 530.273 70.2713 534.113C73.47 535.594 77.0319 536.063 80.3897 537.133C83.7476 538.205 87.1299 540.117 88.547 543.344C91.3405 549.706 85.1892 557.064 87.0415 563.761C88.6803 569.687 94.2318 572.205 97.149 577.619C98.4247 579.987 98.611 582.659 98.252 585.325C97.6427 589.837 96.8118 593.128 94.3841 598.058C92.3768 602.132 86.726 609.832 86.726 609.832C86.726 609.832 48.9152 631.684 48.5684 631.861Z" fill="white"/>
</g>
<path d="M70.512 620.425C70.4984 620.424 70.4848 620.424 70.4848 620.424C69.9231 620.372 69.5219 619.886 69.5709 619.341C73.2007 579.994 56.8168 535.524 43.9457 522.196C43.5649 521.802 43.5758 521.172 43.9702 520.79C44.3673 520.409 44.9943 520.422 45.3764 520.815C58.5073 534.41 75.2325 579.621 71.5537 619.523C71.5034 620.056 71.041 620.451 70.512 620.425Z" fill="white"/>
<path d="M66.6034 571.908C66.5068 571.903 66.4075 571.885 66.3123 571.849C53.8411 567.294 38.0868 565.806 37.9304 565.792C37.3823 565.742 36.9811 565.257 37.0301 564.71C37.0818 564.165 37.5183 563.752 38.1127 563.81C38.2731 563.826 54.2777 565.334 66.995 569.98C67.5105 570.168 67.777 570.739 67.588 571.254C67.4343 571.676 67.029 571.929 66.6034 571.908Z" fill="white"/>
<path d="M338.192 37.4706L106.693 170.966C104.301 172.345 102.363 175.701 102.363 178.462V602.881C102.363 605.642 104.305 608.992 106.701 610.363L107.581 610.865C109.978 612.235 113.859 612.227 116.25 610.847L347.752 477.178C350.143 475.797 352.081 472.44 352.081 469.679V45.4389C352.081 42.6781 350.139 39.3284 347.743 37.9575L346.863 37.4557C344.465 36.0848 340.584 36.0902 338.192 37.4706Z" fill="#43006C"/>
<path opacity="0.45" d="M338.192 37.4706L106.693 170.966C104.301 172.345 102.363 175.701 102.363 178.462V602.881C102.363 605.642 104.305 608.992 106.701 610.363L107.581 610.865C109.978 612.235 113.859 612.227 116.25 610.847L347.752 477.178C350.143 475.797 352.081 472.44 352.081 469.679V45.4389C352.081 42.6781 350.139 39.3284 347.743 37.9575L346.863 37.4557C344.465 36.0848 340.584 36.0902 338.192 37.4706Z" fill="black"/>
<path d="M352.079 469.989C352.079 473.796 349.407 476.221 346.097 478.125L117.904 609.868C114.61 611.771 111.92 610.234 111.92 606.41V185.809C111.92 181.552 114.191 177.619 117.877 175.489L346.091 43.6914C348.753 42.1546 352.081 44.0749 352.081 47.1485V469.989H352.079Z" fill="#43006C"/>
<path opacity="0.3" d="M352.079 469.989C352.079 473.796 349.407 476.221 346.097 478.125L117.904 609.868C114.61 611.771 111.92 610.234 111.92 606.41V185.809C111.92 181.552 114.191 177.619 117.877 175.489L346.091 43.6914C348.753 42.1546 352.081 44.0749 352.081 47.1485V469.989H352.079Z" fill="black"/>
<path d="M352.082 45.4431V47.1431C352.082 44.0763 348.749 42.16 346.083 43.6941L117.875 175.496C116.026 176.546 114.542 178.062 113.526 179.845C113.493 179.896 113.476 179.928 113.459 179.979L103.583 174.275C104.383 172.892 105.467 171.674 106.699 170.975L338.191 37.4735C340.59 36.0904 344.473 36.0903 346.856 37.4572L347.733 37.9631C350.133 39.3272 352.082 42.6768 352.082 45.4431Z" fill="#43006C"/>
<path opacity="0.2" d="M352.082 45.4431V47.1431C352.082 44.0763 348.749 42.16 346.083 43.6941L117.875 175.496C116.026 176.546 114.542 178.062 113.526 179.845C113.493 179.896 113.476 179.928 113.459 179.979L103.583 174.275C104.383 172.892 105.467 171.674 106.699 170.975L338.191 37.4735C340.59 36.0904 344.473 36.0903 346.856 37.4572L347.733 37.9631C350.133 39.3272 352.082 42.6768 352.082 45.4431Z" fill="black"/>
<path opacity="0.25" d="M346.436 452.458C346.436 456.379 343.684 458.877 340.272 460.837L124.596 585.357C121.205 587.317 118.433 585.734 118.433 581.795V207.882C118.433 203.497 120.772 199.446 124.568 197.253L340.267 72.6756C343.008 71.0926 346.436 73.07 346.436 76.2361V80.8139V452.458Z" fill="black"/>
<path d="M123.954 201.918L338.844 77.8534C339.86 77.2673 341.507 77.2673 342.523 77.8534L344.596 79.0502C345.612 79.6364 346.436 81.063 346.436 82.2354V457.887C346.436 459.061 345.612 460.486 344.597 461.074L129.71 585.138C128.694 585.724 127.047 585.724 126.031 585.138L123.954 583.939C122.939 583.353 122.114 581.926 122.114 580.752V205.104C122.114 203.931 122.939 202.505 123.954 201.918Z" fill="#F5F5F5"/>
<path d="M129.271 585.339C129.059 585.423 128.831 585.48 128.591 585.523C128.478 585.536 128.35 585.551 128.237 585.565C127.869 585.593 127.486 585.578 127.119 585.523C126.879 585.48 126.651 585.423 126.439 585.339C126.298 585.282 126.156 585.211 126.029 585.14L123.961 583.95C122.941 583.356 122.12 581.94 122.12 580.765V205.117C122.12 204.522 122.318 203.871 122.658 203.304L128.407 206.617C128.082 207.198 127.87 207.849 127.87 208.43V584.078C127.87 585.083 128.464 585.58 129.271 585.339Z" fill="#E0E0E0"/>
<path d="M344.597 79.0489L342.524 77.8521C341.508 77.2659 339.861 77.2659 338.845 77.8521L123.954 201.918C122.939 202.505 122.114 203.931 122.114 205.105V228.302L127.869 231.645L346.434 105.456V82.234C346.436 81.0617 345.611 79.6351 344.597 79.0489Z" fill="#BA68C8"/>
<path opacity="0.4" d="M344.597 79.0489L342.524 77.8521C341.508 77.2659 339.861 77.2659 338.845 77.8521L123.954 201.918C122.939 202.505 122.114 203.931 122.114 205.105V228.302L127.869 231.645L346.434 105.456V82.234C346.436 81.0617 345.611 79.6351 344.597 79.0489Z" fill="white"/>
<path d="M346.369 81.6775C346.142 80.9268 345.435 80.6861 344.6 81.1675L129.71 205.236C129.2 205.534 128.732 206.029 128.407 206.61L122.658 203.297C122.983 202.716 123.451 202.206 123.961 201.923L338.851 77.8546C339.856 77.2602 341.514 77.2602 342.519 77.8546L344.601 79.0446C345.464 79.5546 346.186 80.6439 346.369 81.6775Z" fill="#BA68C8"/>
<path opacity="0.6" d="M346.369 81.6775C346.142 80.9268 345.435 80.6861 344.6 81.1675L129.71 205.236C129.2 205.534 128.732 206.029 128.407 206.61L122.658 203.297C122.983 202.716 123.451 202.206 123.961 201.923L338.851 77.8546C339.856 77.2602 341.514 77.2602 342.519 77.8546L344.601 79.0446C345.464 79.5546 346.186 80.6439 346.369 81.6775Z" fill="white"/>
<path d="M122.12 205.109V228.326L127.869 231.644V208.422C127.869 207.842 128.081 207.19 128.406 206.61L122.657 203.297C122.318 203.862 122.12 204.514 122.12 205.109Z" fill="#BA68C8"/>
<g opacity="0.25">
<path d="M296.728 93.3856V111.858C296.728 116.538 293.533 122.058 289.483 124.398L253.725 145.037C251.955 146.057 250.95 148.097 249.885 150.242C249.106 151.817 248.296 153.436 247.126 154.757C244.35 157.907 238.291 161.191 234.016 162.557C232.575 163.022 231.135 163.352 229.726 163.547C229.186 163.636 228.586 163.711 227.972 163.787C224.071 164.312 219.212 164.972 216.363 166.623L174.514 190.772C173.255 191.507 172.009 191.867 170.869 191.867C169.984 191.867 169.16 191.658 168.424 191.237C166.714 190.247 165.769 188.282 165.769 185.732V167.259C165.769 162.58 168.949 157.059 173.014 154.72L187.068 146.605C187.128 146.575 187.188 146.545 187.263 146.53C187.937 146.23 188.733 146.5 189.123 147.16C189.499 147.805 189.319 148.645 188.734 149.065C188.689 149.125 188.63 149.17 188.57 149.2L174.515 157.315C171.411 159.116 168.771 163.674 168.771 167.259V185.732C168.771 187.157 169.191 188.207 169.925 188.628C170.66 189.063 171.786 188.883 173.015 188.177L214.864 164.013C218.223 162.078 223.414 161.373 227.568 160.818C228.182 160.744 228.769 160.654 229.307 160.578C230.537 160.398 231.827 160.113 233.117 159.692C236.911 158.493 242.551 155.418 244.877 152.778C245.792 151.758 246.466 150.363 247.201 148.909C248.415 146.449 249.676 143.914 252.226 142.443L287.986 121.804C291.091 120.005 293.731 115.445 293.731 111.86V93.3856C293.731 91.9753 293.31 90.9104 292.576 90.4902C291.841 90.055 290.7 90.2345 289.486 90.9403L277.306 97.9756C276.9 97.0603 276.376 96.1763 275.776 95.3957L287.986 88.3455C290.19 87.0562 292.365 86.9052 294.076 87.8804C295.783 88.8704 296.728 90.8356 296.728 93.3856Z" fill="black"/>
</g>
<path d="M270.644 93.727L270.645 93.7297C271.608 93.164 272.942 93.2374 274.419 94.0901C277.354 95.7847 279.734 99.9068 279.734 103.296C279.734 105.001 279.13 106.194 278.158 106.745L278.159 106.748L193.321 155.738L185.806 142.717L270.644 93.727Z" fill="#37474F"/>
<path d="M189.581 149.256L278.194 98.0872C277.231 96.409 275.896 94.9415 274.42 94.0888C274.244 93.9868 274.078 93.9324 273.907 93.8535L186.676 144.224L189.581 149.256Z" fill="#455A64"/>
<path d="M189.581 143.079C186.646 141.384 184.266 142.758 184.266 146.147C184.266 149.536 186.646 153.658 189.581 155.353C192.516 157.047 194.896 155.674 194.896 152.284C194.896 148.895 192.516 144.773 189.581 143.079Z" fill="#263238"/>
<path d="M298.235 94.6994V113.172C298.235 117.852 295.04 123.372 290.99 125.712L255.231 146.351C253.462 147.371 252.457 149.411 251.391 151.556C250.611 153.13 249.801 154.75 248.631 156.071C245.857 159.221 239.797 162.505 235.522 163.87C234.082 164.336 232.642 164.666 231.233 164.86C230.693 164.95 230.093 165.025 229.478 165.101C225.578 165.626 220.719 166.286 217.869 167.935L176.021 192.085C174.761 192.819 173.516 193.18 172.376 193.18C171.491 193.18 170.666 192.97 169.931 192.55C168.221 191.56 167.276 189.595 167.276 187.045V168.572C167.276 163.892 170.456 158.372 174.521 156.033L188.575 147.918C188.635 147.888 188.695 147.858 188.769 147.843C189.444 147.542 190.24 147.813 190.629 148.472C191.004 149.117 190.824 149.958 190.238 150.378C190.193 150.438 190.133 150.483 190.074 150.512L176.019 158.628C172.915 160.428 170.275 164.987 170.275 168.572V187.045C170.275 188.47 170.695 189.52 171.429 189.94C172.164 190.375 173.29 190.196 174.519 189.49L216.368 165.326C219.727 163.39 224.917 162.686 229.073 162.131C229.688 162.056 230.273 161.965 230.813 161.89C232.042 161.711 233.333 161.425 234.622 161.005C238.416 159.805 244.056 156.73 246.382 154.091C247.297 153.071 247.972 151.675 248.706 150.221C249.921 147.761 251.181 145.226 253.731 143.756L289.49 123.117C292.595 121.317 295.235 116.757 295.235 113.172V94.6994C295.235 93.2891 294.814 92.2242 294.08 91.804C293.345 91.3688 292.204 91.5497 290.99 92.2541L278.81 99.2894C278.404 98.3741 277.88 97.4901 277.28 96.7095L289.49 89.6593C291.694 88.3686 293.87 88.219 295.58 89.1941C297.289 90.1842 298.235 92.1494 298.235 94.6994Z" fill="#455A64"/>
<path d="M167.122 226.728C167.359 226.591 167.536 226.575 167.653 226.673C167.772 226.772 167.876 226.962 167.965 227.245L173.391 242.772C173.404 242.823 173.412 242.888 173.412 242.965C173.412 243.183 173.351 243.405 173.234 243.631C173.117 243.855 172.976 244.017 172.815 244.109L171.221 245.03C170.926 245.2 170.719 245.235 170.6 245.136C170.483 245.037 170.4 244.923 170.356 244.789L169.404 242.064L162.407 246.104L161.455 249.93C161.412 250.115 161.33 250.323 161.212 250.558C161.092 250.795 160.887 250.998 160.59 251.169L158.996 252.088C158.833 252.182 158.694 252.184 158.577 252.095C158.458 252.008 158.399 251.853 158.399 251.635C158.399 251.558 158.407 251.485 158.421 251.418L163.846 229.627C163.934 229.242 164.039 228.932 164.157 228.695C164.274 228.46 164.453 228.272 164.688 228.137L167.122 226.728ZM168.342 238.985L165.906 231.979L163.469 241.799L168.342 238.985Z" fill="#455A64"/>
<path d="M181.493 218.431C182.584 217.801 183.535 217.448 184.338 217.365C185.142 217.285 185.815 217.442 186.354 217.839C186.891 218.239 187.306 218.855 187.594 219.692C187.881 220.529 188.054 221.551 188.115 222.757C188.172 224.181 188.172 225.638 188.115 227.126C188.054 228.4 187.881 229.621 187.594 230.791C187.306 231.962 186.897 233.055 186.363 234.07C185.833 235.086 185.172 236.012 184.383 236.851C183.593 237.691 182.666 238.419 181.603 239.032L176.022 242.253C175.862 242.345 175.72 242.348 175.602 242.258C175.485 242.171 175.424 242.016 175.424 241.801V222.727C175.424 222.512 175.483 222.291 175.602 222.066C175.719 221.839 175.86 221.68 176.022 221.586L181.493 218.431ZM185.125 224.483C185.096 223.872 185.002 223.338 184.85 222.885C184.693 222.435 184.465 222.096 184.163 221.865C183.86 221.638 183.48 221.543 183.022 221.579C182.564 221.62 182.018 221.821 181.385 222.187L178.417 223.9V237.184L181.495 235.407C182.099 235.057 182.625 234.644 183.067 234.161C183.509 233.678 183.877 233.157 184.173 232.591C184.468 232.03 184.692 231.424 184.848 230.784C185.001 230.143 185.095 229.501 185.123 228.854C185.184 227.363 185.184 225.907 185.125 224.483Z" fill="#455A64"/>
<path d="M196.13 224.803L199.851 208.572C199.894 208.389 199.972 208.183 200.082 207.951C200.192 207.718 200.359 207.54 200.581 207.412L202.265 206.44C202.428 206.346 202.567 206.345 202.685 206.433C202.805 206.524 202.862 206.675 202.862 206.893C202.862 206.933 202.862 206.966 202.862 206.996C202.862 207.023 202.848 207.097 202.818 207.211L197.86 228.645C197.771 229.031 197.665 229.342 197.547 229.578C197.43 229.813 197.252 229.999 197.016 230.135L195.244 231.159C195.008 231.295 194.834 231.314 194.714 231.212C194.594 231.116 194.492 230.924 194.404 230.64L189.444 214.933C189.415 214.853 189.4 214.796 189.4 214.767C189.4 214.737 189.4 214.703 189.4 214.664C189.4 214.447 189.459 214.227 189.577 214.003C189.697 213.774 189.836 213.617 189.999 213.523L191.682 212.549C191.904 212.421 192.069 212.412 192.179 212.515C192.289 212.618 192.368 212.733 192.413 212.867L196.13 224.803Z" fill="#455A64"/>
<path d="M211.363 201.186C211.598 201.05 211.777 201.032 211.894 201.132C212.013 201.23 212.115 201.42 212.204 201.703L217.629 217.231C217.644 217.282 217.65 217.346 217.65 217.425C217.65 217.641 217.592 217.862 217.474 218.087C217.354 218.311 217.214 218.473 217.052 218.567L215.458 219.486C215.163 219.658 214.958 219.692 214.837 219.594C214.72 219.494 214.638 219.379 214.594 219.247L213.642 216.52L206.645 220.562L205.692 224.388C205.648 224.571 205.568 224.781 205.45 225.013C205.33 225.251 205.125 225.453 204.828 225.624L203.234 226.543C203.071 226.637 202.932 226.64 202.814 226.55C202.694 226.463 202.636 226.308 202.636 226.092C202.636 226.013 202.643 225.939 202.658 225.871L208.083 204.082C208.171 203.695 208.275 203.387 208.393 203.149C208.51 202.913 208.688 202.727 208.923 202.591L211.363 201.186ZM212.582 213.444L210.145 206.436L207.709 216.256L212.582 213.444Z" fill="#455A64"/>
<path d="M229.719 211.255C229.467 211.401 229.276 211.421 229.144 211.322C229.01 211.22 228.914 211.138 228.857 211.073L222.657 202.371V214.536C222.657 214.751 222.597 214.974 222.478 215.197C222.359 215.425 222.22 215.583 222.057 215.677L220.264 216.714C220.101 216.807 219.961 216.808 219.843 216.72C219.724 216.631 219.666 216.478 219.666 216.262V197.189C219.666 196.973 219.724 196.751 219.843 196.525C219.96 196.301 220.101 196.139 220.264 196.045L221.815 195.15C222.065 195.006 222.257 194.984 222.389 195.085C222.522 195.186 222.617 195.266 222.677 195.333L228.877 204.035V191.87C228.877 191.655 228.936 191.433 229.054 191.209C229.171 190.982 229.312 190.823 229.476 190.729L231.268 189.694C231.431 189.6 231.57 189.599 231.69 189.687C231.807 189.776 231.868 189.929 231.868 190.145V209.218C231.868 209.434 231.808 209.656 231.69 209.882C231.57 210.109 231.431 210.268 231.268 210.362L229.719 211.255Z" fill="#455A64"/>
<path d="M245.641 181.398C245.801 181.304 245.943 181.3 246.061 181.391C246.178 181.482 246.239 181.633 246.239 181.85V183.945C246.239 184.162 246.179 184.385 246.061 184.608C245.944 184.835 245.803 184.994 245.641 185.086L241.655 187.389V203.566C241.655 203.785 241.593 204.005 241.476 204.231C241.359 204.456 241.218 204.617 241.056 204.71L239.262 205.746C239.099 205.84 238.959 205.844 238.841 205.753C238.724 205.666 238.664 205.511 238.664 205.295V189.116L234.678 191.417C234.517 191.51 234.376 191.512 234.258 191.423C234.138 191.336 234.079 191.181 234.079 190.966V188.867C234.079 188.652 234.138 188.431 234.258 188.206C234.374 187.979 234.516 187.82 234.678 187.726L245.641 181.398Z" fill="#455A64"/>
<path d="M254.163 176.476C254.399 176.339 254.577 176.321 254.694 176.42C254.814 176.52 254.917 176.711 255.004 176.993L260.429 192.52C260.444 192.57 260.451 192.636 260.451 192.713C260.451 192.931 260.392 193.152 260.274 193.378C260.157 193.603 260.016 193.765 259.852 193.857L258.257 194.779C257.963 194.949 257.757 194.983 257.638 194.885C257.519 194.786 257.438 194.672 257.395 194.538L256.443 191.813L249.446 195.853L248.492 199.679C248.449 199.864 248.368 200.072 248.25 200.307C248.13 200.544 247.925 200.747 247.629 200.918L246.035 201.837C245.872 201.931 245.733 201.933 245.614 201.844C245.495 201.757 245.436 201.602 245.436 201.385C245.436 201.307 245.443 201.234 245.458 201.166L250.883 179.374C250.973 178.989 251.075 178.679 251.193 178.443C251.313 178.207 251.488 178.02 251.724 177.885L254.163 176.476ZM255.382 188.733L252.945 181.727L250.509 191.546L255.382 188.733Z" fill="#455A64"/>
<path d="M261.601 179.826C261.631 178.628 261.794 177.455 262.088 176.313C262.385 175.167 262.813 174.084 263.373 173.061C263.934 172.039 264.626 171.097 265.443 170.242C266.265 169.387 267.219 168.641 268.312 168.01C269.595 167.27 270.655 166.879 271.489 166.842C272.322 166.801 272.987 166.951 273.481 167.285C273.976 167.62 274.324 168.061 274.521 168.603C274.721 169.149 274.836 169.638 274.865 170.073C274.879 170.302 274.823 170.525 274.7 170.745C274.573 170.966 274.429 171.123 274.268 171.217L272.475 172.251C272.311 172.345 272.182 172.366 272.087 172.313C271.992 172.262 271.921 172.187 271.875 172.097C271.846 172.033 271.769 171.908 271.645 171.712C271.517 171.519 271.32 171.36 271.045 171.232C270.772 171.104 270.414 171.054 269.971 171.082C269.529 171.112 268.975 171.319 268.312 171.704C267.203 172.342 266.319 173.253 265.654 174.434C264.989 175.614 264.635 176.887 264.592 178.25C264.561 179.015 264.547 179.825 264.547 180.68C264.547 181.54 264.561 182.331 264.592 183.061C264.635 184.672 264.99 185.651 265.654 186.007C266.319 186.359 267.203 186.218 268.312 185.577C268.857 185.262 269.359 184.895 269.817 184.473C270.274 184.053 270.67 183.567 271.002 183.021C271.332 182.475 271.591 181.859 271.776 181.172C271.96 180.484 272.053 179.718 272.053 178.87V178.635L269.352 180.196C269.189 180.29 269.05 180.29 268.93 180.203C268.813 180.112 268.754 179.959 268.754 179.743V177.647C268.754 177.431 268.812 177.211 268.93 176.984C269.05 176.759 269.189 176.597 269.352 176.503L274.444 173.563C274.607 173.471 274.747 173.469 274.865 173.558C274.982 173.646 275.042 173.8 275.042 174.016V177.264C275.042 178.444 274.901 179.612 274.621 180.768C274.34 181.924 273.92 183.025 273.36 184.066C272.798 185.108 272.098 186.074 271.255 186.963C270.414 187.853 269.432 188.621 268.31 189.27C267.187 189.917 266.213 190.283 265.386 190.366C264.558 190.452 263.874 190.294 263.329 189.901C262.782 189.508 262.366 188.897 262.076 188.072C261.789 187.242 261.63 186.248 261.6 185.084C261.586 184.718 261.576 184.311 261.569 183.862C261.561 183.416 261.556 182.953 261.556 182.479C261.556 182.009 261.559 181.546 261.569 181.087C261.577 180.628 261.589 180.209 261.601 179.826Z" fill="#455A64"/>
<path d="M288.151 173.828C288.312 173.735 288.453 173.733 288.572 173.822C288.691 173.913 288.75 174.064 288.75 174.281V176.376C288.75 176.595 288.691 176.815 288.572 177.041C288.455 177.265 288.313 177.427 288.151 177.519L278.43 183.132C278.27 183.225 278.128 183.227 278.01 183.138C277.893 183.051 277.832 182.896 277.832 182.681V163.607C277.832 163.392 277.892 163.17 278.01 162.946C278.127 162.719 278.268 162.559 278.43 162.466L287.976 156.955C288.139 156.861 288.278 156.86 288.396 156.949C288.513 157.038 288.573 157.192 288.573 157.406V159.505C288.573 159.72 288.514 159.943 288.396 160.166C288.279 160.393 288.139 160.552 287.976 160.646L280.824 164.775V169.47L287.488 165.621C287.651 165.528 287.791 165.527 287.909 165.614C288.026 165.705 288.086 165.857 288.086 166.074V168.171C288.086 168.387 288.028 168.609 287.909 168.833C287.792 169.058 287.651 169.218 287.488 169.31L280.824 173.159V178.061L288.151 173.828Z" fill="#455A64"/>
<path d="M296.809 151.558C297.798 150.987 298.671 150.662 299.423 150.582C300.177 150.502 300.802 150.582 301.304 150.825C301.807 151.065 302.187 151.431 302.445 151.922C302.702 152.414 302.846 152.935 302.876 153.49C302.891 153.718 302.836 153.941 302.71 154.161C302.584 154.383 302.44 154.54 302.279 154.632L300.729 155.528C300.479 155.672 300.291 155.719 300.165 155.662C300.041 155.606 299.925 155.502 299.822 155.345C299.599 154.982 299.263 154.748 298.814 154.643C298.363 154.538 297.695 154.739 296.808 155.252C296.426 155.474 296.06 155.74 295.712 156.048C295.365 156.355 295.062 156.687 294.806 157.043C294.548 157.4 294.342 157.768 294.197 158.148C294.049 158.53 293.975 158.906 293.975 159.28C293.975 159.733 294.045 160.062 294.185 160.265C294.323 160.47 294.56 160.579 294.893 160.594C295.225 160.608 295.666 160.547 296.211 160.409C296.756 160.272 297.436 160.086 298.248 159.853C299.135 159.596 299.898 159.455 300.54 159.429C301.183 159.402 301.707 159.516 302.112 159.763C302.519 160.011 302.821 160.392 303.021 160.906C303.219 161.421 303.32 162.081 303.32 162.89C303.32 163.773 303.172 164.682 302.876 165.609C302.581 166.539 302.16 167.431 301.614 168.285C301.069 169.143 300.397 169.959 299.599 170.734C298.803 171.51 297.91 172.181 296.92 172.754C296.093 173.233 295.303 173.555 294.549 173.722C293.797 173.892 293.129 173.894 292.547 173.728C291.964 173.563 291.495 173.229 291.141 172.725C290.787 172.222 290.589 171.549 290.544 170.709C290.529 170.48 290.585 170.256 290.71 170.037C290.835 169.816 290.98 169.661 291.141 169.568L292.691 168.671C292.942 168.527 293.133 168.477 293.267 168.518C293.4 168.558 293.509 168.671 293.597 168.856C293.7 169.052 293.827 169.236 293.975 169.407C294.123 169.578 294.321 169.689 294.572 169.742C294.822 169.793 295.137 169.776 295.513 169.686C295.89 169.595 296.358 169.388 296.918 169.064C297.362 168.809 297.79 168.518 298.203 168.19C298.617 167.862 298.977 167.507 299.287 167.121C299.596 166.735 299.848 166.335 300.039 165.919C300.233 165.502 300.328 165.07 300.328 164.616C300.328 164.183 300.223 163.887 300.018 163.729C299.811 163.574 299.497 163.521 299.077 163.564C298.656 163.612 298.137 163.725 297.518 163.904C296.896 164.088 296.18 164.273 295.369 164.466C294.631 164.655 293.985 164.748 293.43 164.741C292.878 164.738 292.419 164.604 292.059 164.338C291.697 164.074 291.427 163.676 291.25 163.136C291.073 162.599 290.985 161.889 290.985 161.002C290.985 160.116 291.13 159.215 291.427 158.297C291.723 157.378 292.13 156.503 292.645 155.675C293.162 154.844 293.778 154.07 294.495 153.352C295.213 152.633 295.981 152.036 296.809 151.558Z" fill="#455A64"/>
<g opacity="0.2">
<path d="M144.696 274.277L348.934 156.309C349.796 155.811 350.494 156.215 350.494 157.211V205.948C350.494 206.943 349.795 208.153 348.934 208.65L144.696 326.618C143.834 327.115 143.136 326.711 143.136 325.717V276.98C143.135 275.985 143.834 274.774 144.696 274.277Z" fill="black"/>
</g>
<path d="M359.775 162.762C359.29 162.546 358.642 162.61 357.941 163.016L156.071 279.617C154.557 280.496 153.322 282.634 153.322 284.39V330.601C153.322 331.44 153.602 332.052 154.073 332.357C153.602 332.051 149.441 329.697 148.932 329.392C148.448 329.1 148.143 328.489 148.143 327.623V281.411C148.143 279.656 149.378 277.518 150.904 276.639L352.762 160.026C353.539 159.581 354.238 159.555 354.734 159.847C355.18 160.114 358.794 162.164 359.775 162.762Z" fill="#BA48FF"/>
<g opacity="0.2">
<path d="M359.775 162.762C358.794 162.164 355.18 160.115 354.734 159.848C354.238 159.555 353.538 159.58 352.762 160.026L150.904 276.639C150.143 277.077 149.453 277.829 148.954 278.691L154.127 281.678C154.625 280.813 155.313 280.057 156.071 279.617L357.941 163.016C358.642 162.608 359.29 162.546 359.775 162.762Z" fill="white"/>
</g>
<path d="M156.072 279.619L357.937 163.016C359.459 162.138 360.693 162.85 360.693 164.608V210.822C360.693 212.579 359.459 214.715 357.937 215.594L156.072 332.196C154.55 333.075 153.317 332.362 153.317 330.605V284.392C153.317 282.634 154.55 280.497 156.072 279.619Z" fill="#FAFAFA"/>
<path d="M154.127 281.678L148.954 278.691C148.452 279.556 148.142 280.532 148.142 281.411V327.624C148.142 328.489 148.448 329.099 148.931 329.393C149.44 329.699 153.601 332.053 154.072 332.358C153.601 332.052 153.321 331.441 153.321 330.602V284.389C153.322 283.512 153.631 282.54 154.127 281.678Z" fill="#BA48FF"/>
<path opacity="0.15" d="M154.127 281.678L148.954 278.691C148.452 279.556 148.142 280.532 148.142 281.411V327.624C148.142 328.489 148.448 329.099 148.931 329.393C149.44 329.699 153.601 332.053 154.072 332.358C153.601 332.052 153.321 331.441 153.321 330.602V284.389C153.322 283.512 153.631 282.54 154.127 281.678Z" fill="black"/>
<path d="M359.168 163.913C359.413 163.913 359.42 164.535 359.42 164.608V210.822C359.42 212.125 358.429 213.84 357.301 214.492L155.436 331.095C155.115 331.28 154.914 331.3 154.841 331.3C154.597 331.3 154.59 330.677 154.59 330.605V284.392C154.59 283.09 155.58 281.373 156.709 280.722L358.574 164.119C358.895 163.933 359.096 163.913 359.168 163.913ZM359.168 162.64C358.798 162.64 358.379 162.761 357.937 163.016L156.072 279.619C154.55 280.497 153.317 282.634 153.317 284.391V330.604C153.317 331.85 153.937 332.571 154.841 332.571C155.211 332.571 155.63 332.449 156.072 332.194L357.937 215.591C359.459 214.713 360.693 212.576 360.693 210.819V164.605C360.693 163.36 360.071 162.64 359.168 162.64Z" fill="#BA48FF"/>
<path d="M192.209 275.626C194.952 277.209 196.648 280.605 196.648 285.438C196.648 295.104 189.861 306.857 181.492 311.689C177.307 314.106 173.518 314.334 170.775 312.751C169.109 311.789 167.608 310.923 165.943 309.962C163.2 308.379 161.504 304.981 161.504 300.149C161.504 290.484 168.29 278.731 176.661 273.897C180.846 271.48 184.635 271.252 187.378 272.836C189.043 273.798 190.544 274.664 192.209 275.626Z" fill="#BA48FF"/>
<path opacity="0.2" d="M192.209 275.626C194.952 277.209 196.648 280.605 196.648 285.438C196.648 295.104 189.861 306.857 181.492 311.689C177.307 314.106 173.518 314.334 170.775 312.751C169.109 311.789 167.608 310.923 165.943 309.962C163.2 308.379 161.504 304.981 161.504 300.149C161.504 290.484 168.29 278.731 176.661 273.897C180.846 271.48 184.635 271.252 187.378 272.836C189.043 273.798 190.544 274.664 192.209 275.626Z" fill="black"/>
<path d="M181.492 311.69C177.307 314.107 173.518 314.335 170.775 312.751C168.032 311.168 166.336 307.772 166.336 302.939C166.336 293.273 173.123 281.52 181.492 276.686C185.677 274.27 189.467 274.041 192.209 275.624C194.952 277.207 196.648 280.603 196.648 285.437C196.648 295.104 189.863 306.857 181.492 311.69Z" fill="#BA48FF"/>
<path d="M189.543 287.364L183.124 291.07V282.511C183.124 281.309 182.394 280.757 181.492 281.278C180.59 281.799 179.86 283.194 179.86 284.396V292.955L173.441 296.661C172.539 297.182 171.809 298.577 171.809 299.779C171.809 300.981 172.539 301.534 173.441 301.013L179.86 297.307V305.865C179.86 307.067 180.59 307.62 181.492 307.099C182.394 306.578 183.124 305.183 183.124 303.98V295.422L189.543 291.716C190.445 291.195 191.175 289.8 191.175 288.597C191.175 287.396 190.445 286.843 189.543 287.364Z" fill="#FAFAFA"/>
<path d="M207.079 271.573L349.222 189.475C351.095 188.394 352.614 185.492 352.614 182.995C352.614 180.496 351.096 179.349 349.222 180.431L207.079 262.529C205.206 263.61 203.687 266.513 203.687 269.01C203.687 271.506 205.206 272.656 207.079 271.573ZM349.222 199.469L207.079 281.566C205.206 282.648 203.687 285.55 203.687 288.047C203.687 290.544 205.206 291.693 207.079 290.61L349.222 208.513C351.095 207.431 352.614 204.529 352.614 202.032C352.614 199.535 351.096 198.387 349.222 199.469Z" fill="#E0E0E0"/>
<g opacity="0.2">
<path d="M144.696 348.501L348.934 230.534C349.796 230.036 350.494 230.44 350.494 231.435V280.172C350.494 281.168 349.795 282.378 348.934 282.875L144.696 400.842C143.834 401.34 143.136 400.936 143.136 399.941V351.204C143.135 350.21 143.834 348.999 144.696 348.501Z" fill="black"/>
</g>
<path d="M359.775 236.985C359.29 236.769 358.642 236.833 357.941 237.24L156.071 353.841C154.557 354.719 153.322 356.857 153.322 358.613V404.825C153.322 405.665 153.602 406.276 154.073 406.58C153.602 406.274 149.441 403.92 148.932 403.616C148.448 403.323 148.143 402.713 148.143 401.846V355.635C148.143 353.879 149.378 351.741 150.904 350.862L352.762 234.249C353.539 233.804 354.238 233.778 354.734 234.071C355.18 234.339 358.794 236.387 359.775 236.985Z" fill="#BA48FF"/>
<g opacity="0.2">
<path d="M359.775 236.985C358.794 236.387 355.18 234.339 354.734 234.071C354.238 233.778 353.538 233.803 352.762 234.249L150.904 350.862C150.143 351.3 149.453 352.052 148.954 352.915L154.127 355.901C154.625 355.036 155.313 354.28 156.071 353.841L357.941 237.24C358.642 236.833 359.29 236.769 359.775 236.985Z" fill="white"/>
</g>
<path d="M156.072 353.842L357.937 237.24C359.459 236.361 360.693 237.074 360.693 238.831V285.045C360.693 286.802 359.459 288.939 357.937 289.817L156.072 406.42C154.55 407.298 153.317 406.586 153.317 404.829V358.614C153.317 356.859 154.55 354.721 156.072 353.842Z" fill="#FAFAFA"/>
<path d="M154.127 355.901L148.954 352.914C148.452 353.779 148.142 354.755 148.142 355.634V401.846C148.142 402.711 148.448 403.323 148.931 403.615C149.44 403.921 153.601 406.275 154.072 406.58C153.601 406.274 153.321 405.663 153.321 404.824V358.613C153.322 357.737 153.631 356.765 154.127 355.901Z" fill="#BA48FF"/>
<path opacity="0.15" d="M154.127 355.901L148.954 352.914C148.452 353.779 148.142 354.755 148.142 355.634V401.846C148.142 402.711 148.448 403.323 148.931 403.615C149.44 403.921 153.601 406.275 154.072 406.58C153.601 406.274 153.321 405.663 153.321 404.824V358.613C153.322 357.737 153.631 356.765 154.127 355.901Z" fill="black"/>
<path d="M359.168 238.136C359.413 238.136 359.42 238.759 359.42 238.831V285.045C359.42 286.348 358.429 288.063 357.301 288.716L155.436 405.318C155.115 405.505 154.914 405.524 154.841 405.524C154.597 405.524 154.59 404.901 154.59 404.829V358.614C154.59 357.312 155.58 355.597 156.709 354.944L358.574 238.341C358.895 238.156 359.096 238.136 359.168 238.136ZM359.168 236.864C358.798 236.864 358.379 236.985 357.937 237.241L156.072 353.844C154.55 354.722 153.317 356.859 153.317 358.616V404.83C153.317 406.076 153.937 406.797 154.841 406.797C155.211 406.797 155.63 406.676 156.072 406.42L357.937 289.817C359.459 288.939 360.693 286.802 360.693 285.045V238.831C360.693 237.584 360.071 236.864 359.168 236.864Z" fill="#BA48FF"/>
<path d="M192.209 349.849C194.952 351.432 196.648 354.828 196.648 359.661C196.648 369.327 189.861 381.08 181.492 385.912C177.307 388.329 173.518 388.557 170.775 386.974C169.109 386.013 167.608 385.146 165.943 384.185C163.2 382.602 161.504 379.205 161.504 374.372C161.504 364.706 168.29 352.954 176.661 348.12C180.846 345.704 184.635 345.475 187.378 347.06C189.043 348.021 190.544 348.887 192.209 349.849Z" fill="#BA48FF"/>
<path opacity="0.2" d="M192.209 349.849C194.952 351.432 196.648 354.828 196.648 359.661C196.648 369.327 189.861 381.08 181.492 385.912C177.307 388.329 173.518 388.557 170.775 386.974C169.109 386.013 167.608 385.146 165.943 384.185C163.2 382.602 161.504 379.205 161.504 374.372C161.504 364.706 168.29 352.954 176.661 348.12C180.846 345.704 184.635 345.475 187.378 347.06C189.043 348.021 190.544 348.887 192.209 349.849Z" fill="black"/>
<path d="M181.492 385.914C177.307 388.33 173.518 388.559 170.775 386.974C168.032 385.391 166.336 381.995 166.336 377.162C166.336 367.496 173.123 355.743 181.492 350.91C185.677 348.493 189.467 348.265 192.209 349.849C194.952 351.432 196.648 354.828 196.648 359.661C196.648 369.327 189.863 381.081 181.492 385.914Z" fill="#BA48FF"/>
<path d="M189.543 361.587L183.124 365.293V356.735C183.124 355.532 182.394 354.98 181.492 355.501C180.59 356.022 179.86 357.417 179.86 358.62V367.178L173.441 370.884C172.539 371.405 171.809 372.8 171.809 374.003C171.809 375.205 172.539 375.757 173.441 375.236L179.86 371.53V380.089C179.86 381.291 180.59 381.843 181.492 381.322C182.394 380.801 183.124 379.406 183.124 378.204V369.645L189.543 365.939C190.445 365.418 191.175 364.023 191.175 362.821C191.175 361.618 190.445 361.068 189.543 361.587Z" fill="#FAFAFA"/>
<path d="M207.079 345.798L349.222 263.7C351.095 262.619 352.614 259.716 352.614 257.219C352.614 254.721 351.096 253.573 349.222 254.656L207.079 336.754C205.206 337.835 203.687 340.737 203.687 343.234C203.687 345.731 205.206 346.879 207.079 345.798ZM349.222 273.692L207.079 355.79C205.206 356.871 203.687 359.773 203.687 362.27C203.687 364.767 205.206 365.916 207.079 364.834L349.222 282.736C351.095 281.655 352.614 278.752 352.614 276.255C352.614 273.758 351.096 272.611 349.222 273.692Z" fill="#E0E0E0"/>
<g opacity="0.2">
<path d="M144.696 422.725L348.934 304.757C349.796 304.259 350.494 304.663 350.494 305.659V354.396C350.494 355.391 349.795 356.601 348.934 357.099L144.696 475.067C143.834 475.565 143.136 475.161 143.136 474.165V425.428C143.135 424.433 143.834 423.222 144.696 422.725Z" fill="black"/>
</g>
<path d="M359.775 311.209C359.29 310.992 358.642 311.056 357.941 311.463L156.071 428.064C154.557 428.943 153.322 431.081 153.322 432.836V479.048C153.322 479.887 153.602 480.499 154.073 480.804C153.602 480.498 149.441 478.144 148.932 477.839C148.448 477.547 148.143 476.936 148.143 476.07V429.858C148.143 428.102 149.378 425.964 150.904 425.086L352.762 308.472C353.539 308.028 354.238 308.002 354.734 308.294C355.18 308.562 358.794 310.612 359.775 311.209Z" fill="#BA48FF"/>
<g opacity="0.2">
<path d="M359.775 311.209C358.794 310.61 355.18 308.562 354.734 308.294C354.238 308.002 353.538 308.026 352.762 308.472L150.904 425.086C150.143 425.524 149.453 426.276 148.954 427.138L154.127 430.125C154.625 429.26 155.313 428.503 156.071 428.064L357.941 311.463C358.642 311.056 359.29 310.993 359.775 311.209Z" fill="white"/>
</g>
<path d="M156.072 428.067L357.937 311.464C359.459 310.586 360.693 311.299 360.693 313.056V359.27C360.693 361.027 359.459 363.164 357.937 364.042L156.072 480.645C154.55 481.523 153.317 480.81 153.317 479.053V432.839C153.317 431.082 154.55 428.945 156.072 428.067Z" fill="#FAFAFA"/>
<path d="M154.127 430.126L148.954 427.139C148.452 428.004 148.142 428.979 148.142 429.859V476.071C148.142 476.936 148.448 477.546 148.931 477.84C149.44 478.146 153.601 480.5 154.072 480.805C153.601 480.499 153.321 479.888 153.321 479.049V432.838C153.322 431.96 153.631 430.988 154.127 430.126Z" fill="#BA48FF"/>
<path opacity="0.15" d="M154.127 430.126L148.954 427.139C148.452 428.004 148.142 428.979 148.142 429.859V476.071C148.142 476.936 148.448 477.546 148.931 477.84C149.44 478.146 153.601 480.5 154.072 480.805C153.601 480.499 153.321 479.888 153.321 479.049V432.838C153.322 431.96 153.631 430.988 154.127 430.126Z" fill="black"/>
<path d="M359.168 312.361C359.413 312.361 359.42 312.984 359.42 313.056V359.27C359.42 360.573 358.429 362.288 357.301 362.941L155.436 479.543C155.115 479.73 154.914 479.749 154.841 479.749C154.597 479.749 154.59 479.126 154.59 479.054V432.839C154.59 431.536 155.58 429.821 156.709 429.169L358.574 312.566C358.895 312.381 359.096 312.361 359.168 312.361ZM359.168 311.088C358.798 311.088 358.379 311.209 357.937 311.465L156.072 428.067C154.55 428.946 153.317 431.082 153.317 432.839V479.054C153.317 480.299 153.937 481.02 154.841 481.02C155.211 481.02 155.63 480.899 156.072 480.643L357.937 364.041C359.459 363.162 360.693 361.026 360.693 359.269V313.054C360.693 311.809 360.071 311.088 359.168 311.088Z" fill="#BA48FF"/>
<path d="M192.209 424.074C194.952 425.657 196.648 429.053 196.648 433.886C196.648 443.552 189.861 455.305 181.492 460.138C177.307 462.555 173.518 462.783 170.775 461.2C169.109 460.239 167.608 459.373 165.943 458.411C163.2 456.828 161.504 453.431 161.504 448.599C161.504 438.933 168.29 427.18 176.661 422.347C180.846 419.93 184.635 419.701 187.378 421.286C189.043 422.245 190.544 423.112 192.209 424.074Z" fill="#BA48FF"/>
<path opacity="0.2" d="M192.209 424.074C194.952 425.657 196.648 429.053 196.648 433.886C196.648 443.552 189.861 455.305 181.492 460.138C177.307 462.555 173.518 462.783 170.775 461.2C169.109 460.239 167.608 459.373 165.943 458.411C163.2 456.828 161.504 453.431 161.504 448.599C161.504 438.933 168.29 427.18 176.661 422.347C180.846 419.93 184.635 419.701 187.378 421.286C189.043 422.245 190.544 423.112 192.209 424.074Z" fill="black"/>
<path d="M181.492 460.137C177.307 462.554 173.518 462.782 170.775 461.198C168.032 459.615 166.336 456.219 166.336 451.385C166.336 441.72 173.123 429.967 181.492 425.133C185.677 422.716 189.467 422.488 192.209 424.071C194.952 425.655 196.648 429.05 196.648 433.883C196.648 443.552 189.863 455.305 181.492 460.137Z" fill="#BA48FF"/>
<path d="M189.543 435.812L183.124 439.518V430.959C183.124 429.757 182.394 429.205 181.492 429.726C180.59 430.247 179.86 431.642 179.86 432.844V441.403L173.441 445.109C172.539 445.63 171.809 447.025 171.809 448.227C171.809 449.43 172.539 449.982 173.441 449.461L179.86 445.755V454.313C179.86 455.516 180.59 456.068 181.492 455.547C182.394 455.026 183.124 453.631 183.124 452.428V443.87L189.543 440.164C190.445 439.643 191.175 438.248 191.175 437.045C191.175 435.843 190.445 435.291 189.543 435.812Z" fill="#FAFAFA"/>
<path d="M207.079 420.021L349.222 337.923C351.095 336.842 352.614 333.94 352.614 331.443C352.614 328.946 351.096 327.798 349.222 328.879L207.079 410.977C205.206 412.058 203.687 414.961 203.687 417.457C203.687 419.954 205.206 421.102 207.079 420.021ZM349.222 347.916L207.079 430.014C205.206 431.096 203.687 433.998 203.687 436.495C203.687 438.993 205.206 440.141 207.079 439.058L349.222 356.961C351.095 355.879 352.614 352.977 352.614 350.48C352.614 347.983 351.096 346.834 349.222 347.916Z" fill="#E0E0E0"/>
<g opacity="0.2">
<path d="M144.696 496.949L348.934 378.981C349.796 378.484 350.494 378.887 350.494 379.883V428.62C350.494 429.615 349.795 430.826 348.934 431.324L144.696 549.291C143.834 549.789 143.136 549.385 143.136 548.39V499.653C143.135 498.656 143.834 497.447 144.696 496.949Z" fill="black"/>
</g>
<path d="M359.775 385.433C359.29 385.217 358.642 385.281 357.941 385.688L156.071 502.289C154.557 503.167 153.322 505.305 153.322 507.061V553.273C153.322 554.113 153.602 554.724 154.073 555.028C153.602 554.722 149.441 552.368 148.932 552.064C148.448 551.771 148.143 551.161 148.143 550.294V504.083C148.143 502.327 149.378 500.189 150.904 499.31L352.762 382.697C353.539 382.252 354.238 382.226 354.734 382.519C355.18 382.787 358.794 384.835 359.775 385.433Z" fill="#BA48FF"/>
<g opacity="0.2">
<path d="M359.775 385.433C358.794 384.835 355.18 382.787 354.734 382.519C354.238 382.227 353.538 382.251 352.762 382.697L150.904 499.31C150.143 499.748 149.453 500.5 148.954 501.363L154.127 504.349C154.625 503.484 155.313 502.728 156.071 502.289L357.941 385.688C358.642 385.281 359.29 385.217 359.775 385.433Z" fill="white"/>
</g>
<path d="M156.072 502.29L357.937 385.688C359.459 384.809 360.693 385.522 360.693 387.279V433.493C360.693 435.25 359.459 437.387 357.937 438.265L156.072 554.868C154.55 555.746 153.317 555.034 153.317 553.277V507.064C153.317 505.305 154.55 503.169 156.072 502.29Z" fill="#FAFAFA"/>
<path d="M154.127 504.349L148.954 501.362C148.452 502.227 148.142 503.203 148.142 504.082V550.294C148.142 551.159 148.448 551.77 148.931 552.063C149.44 552.369 153.601 554.724 154.072 555.028C153.601 554.722 153.321 554.111 153.321 553.272V507.061C153.322 506.184 153.631 505.211 154.127 504.349Z" fill="#BA48FF"/>
<path opacity="0.15" d="M154.127 504.349L148.954 501.362C148.452 502.227 148.142 503.203 148.142 504.082V550.294C148.142 551.159 148.448 551.77 148.931 552.063C149.44 552.369 153.601 554.724 154.072 555.028C153.601 554.722 153.321 554.111 153.321 553.272V507.061C153.322 506.184 153.631 505.211 154.127 504.349Z" fill="black"/>
<path d="M359.168 386.584C359.413 386.584 359.42 387.207 359.42 387.279V433.493C359.42 434.796 358.429 436.511 357.301 437.164L155.436 553.766C155.115 553.953 154.914 553.972 154.841 553.972C154.597 553.972 154.59 553.349 154.59 553.277V507.064C154.59 505.761 155.58 504.046 156.709 503.393L358.574 386.791C358.895 386.604 359.096 386.584 359.168 386.584ZM359.168 385.311C358.798 385.311 358.379 385.432 357.937 385.688L156.072 502.29C154.55 503.169 153.317 505.305 153.317 507.063V553.275C153.317 554.523 153.937 555.242 154.841 555.242C155.211 555.242 155.63 555.121 156.072 554.865L357.937 438.263C359.459 437.384 360.693 435.248 360.693 433.491V387.276C360.693 386.032 360.071 385.311 359.168 385.311Z" fill="#BA48FF"/>
<path d="M192.209 498.297C194.952 499.88 196.648 503.276 196.648 508.109C196.648 517.775 189.861 529.528 181.492 534.36C177.307 536.777 173.518 537.005 170.775 535.422C169.109 534.461 167.608 533.594 165.943 532.633C163.2 531.05 161.504 527.653 161.504 522.82C161.504 513.154 168.29 501.402 176.661 496.568C180.846 494.152 184.635 493.925 187.378 495.508C189.043 496.469 190.544 497.335 192.209 498.297Z" fill="#BA48FF"/>
<path opacity="0.2" d="M192.209 498.297C194.952 499.88 196.648 503.276 196.648 508.109C196.648 517.775 189.861 529.528 181.492 534.36C177.307 536.777 173.518 537.005 170.775 535.422C169.109 534.461 167.608 533.594 165.943 532.633C163.2 531.05 161.504 527.653 161.504 522.82C161.504 513.154 168.29 501.402 176.661 496.568C180.846 494.152 184.635 493.925 187.378 495.508C189.043 496.469 190.544 497.335 192.209 498.297Z" fill="black"/>
<path d="M181.492 534.362C177.307 536.778 173.518 537.007 170.775 535.422C168.032 533.839 166.336 530.443 166.336 525.61C166.336 515.945 173.123 504.191 181.492 499.358C185.677 496.941 189.467 496.713 192.209 498.297C194.952 499.88 196.648 503.276 196.648 508.11C196.648 517.775 189.863 529.528 181.492 534.362Z" fill="#BA48FF"/>
<path d="M189.543 510.035L183.124 513.741V505.183C183.124 503.981 182.394 503.428 181.492 503.949C180.59 504.47 179.86 505.866 179.86 507.068V515.626L173.441 519.332C172.539 519.853 171.809 521.249 171.809 522.451C171.809 523.653 172.539 524.205 173.441 523.684L179.86 519.978V528.537C179.86 529.739 180.59 530.291 181.492 529.77C182.394 529.249 183.124 527.854 183.124 526.652V518.093L189.543 514.387C190.445 513.866 191.175 512.471 191.175 511.269C191.175 510.068 190.445 509.516 189.543 510.035Z" fill="#FAFAFA"/>
<path d="M207.079 494.246L349.222 412.148C351.095 411.067 352.614 408.164 352.614 405.667C352.614 403.169 351.096 402.021 349.222 403.104L207.079 485.202C205.206 486.283 203.687 489.185 203.687 491.682C203.687 494.179 205.206 495.327 207.079 494.246ZM349.222 422.14L207.079 504.238C205.206 505.319 203.687 508.221 203.687 510.718C203.687 513.215 205.206 514.364 207.079 513.282L349.222 431.184C351.095 430.103 352.614 427.2 352.614 424.703C352.614 422.206 351.096 421.059 349.222 422.14Z" fill="#E0E0E0"/>
<path d="M396.333 520.927L405.611 526.283L420.881 517.467V344.505L431.062 338.629L413.596 325.202L404.319 319.846L386.153 353.843L395.431 359.199L396.334 358.678L396.333 520.927Z" fill="#BA68C8"/>
<path opacity="0.8" d="M396.333 520.927L405.611 526.283L420.881 517.467V344.505L431.062 338.629L413.596 325.202L404.319 319.846L386.153 353.843L395.431 359.199L396.334 358.678L396.333 520.927Z" fill="white"/>
<path d="M405.61 526.283L420.881 517.468V344.506L431.061 338.629L413.596 325.202L395.431 359.199L405.61 353.322V526.283Z" fill="#BA68C8"/>
<path opacity="0.7" d="M405.61 526.283L420.881 517.468V344.506L431.061 338.629L413.596 325.202L395.431 359.199L405.61 353.322V526.283Z" fill="white"/>
<path d="M396.333 520.928L405.61 526.284V353.323L396.334 358.678L396.333 520.928Z" fill="#BA68C8"/>
<path opacity="0.5" d="M396.333 520.928L405.61 526.284V353.323L396.334 358.678L396.333 520.928Z" fill="white"/>
<path d="M439.744 498.504L446.696 502.517L458.141 495.912V395.13L465.77 390.725L452.681 380.664L445.729 376.649L432.116 402.127L439.068 406.142L439.744 405.75V498.504Z" fill="#F5F5F5"/>
<path d="M446.696 502.517L458.14 495.912V395.13L465.77 390.725L452.681 380.664L439.068 406.142L446.696 401.737V502.517Z" fill="#EBEBEB"/>
<path d="M439.744 498.504L446.696 502.517V401.737L439.744 405.75V498.504Z" fill="#E0E0E0"/>
<path d="M592.616 509.555C592.616 509.555 599.263 510.787 602.982 515.721C606.699 520.655 614.854 535.392 616.489 537.048C616.489 537.048 614.935 539.666 612.616 540.939L608.196 535.717C607.094 534.77 605.29 532.411 605.271 535.429C605.252 538.446 605.571 541.264 605.889 547.115C606.082 550.667 607.26 557.692 601.008 564.382C595.164 570.635 588.207 574.821 583.939 575.327C581.396 575.629 575.695 574.981 576.086 569.93C576.294 567.25 579.711 557.16 580.251 552.274C580.812 547.199 592.616 509.555 592.616 509.555Z" fill="#263238"/>
<path d="M593.629 510.965C592.8 509.863 590.214 505.258 588.966 503.113C587.717 500.967 582.555 489.704 576.202 472.403C568.024 450.131 553.973 433.528 549.688 425.134C545.185 416.312 540.555 406.128 537.755 396.63L519.564 408.184L495.968 407.236C495.652 410.736 496.985 415.43 499.501 420.929L499.497 420.932C499.518 420.978 499.544 421.027 499.565 421.074C499.793 421.571 500.045 422.083 500.292 422.593C505.324 433.046 514.027 445.741 523.766 458.588C523.843 458.692 523.921 458.795 524 458.899C524.115 459.05 524.23 459.202 524.344 459.353C533.728 471.776 544.067 484.43 553.092 495.393L553.104 495.134C562.801 506.874 570.645 516.398 573.413 521.157C581.503 535.065 580.259 548.486 580.152 555.813C580.085 560.392 583.639 561.339 588.514 557.451C598.45 549.529 599.381 538.446 599.432 535.662C599.76 518.053 598.431 517.338 593.629 510.965Z" fill="#FFBDA7"/>
<path d="M496.033 278.284C494.176 292.49 492.355 305.706 490.764 343.35C489.426 374.999 488.04 391.95 490.425 407.568C491.275 413.133 494.144 419.622 499.562 427.794C516.535 453.389 549.807 493.562 549.807 493.562C549.807 493.562 557.231 493.319 566.129 485.782C574.725 478.499 574.97 467.917 574.97 467.917C574.97 467.917 574.019 462.027 559.98 438.418C545.939 414.81 543.852 389.059 543.852 389.059L551.481 287.832C530.195 290.121 506.076 286.37 496.033 278.284Z" fill="#455A64"/>
<path d="M566.13 485.78C574.727 478.497 574.971 467.915 574.971 467.915C574.971 467.915 574.021 462.025 559.981 438.417C545.942 414.809 543.853 389.057 543.853 389.057L549.694 311.563C532.981 309.168 509.712 309.754 509.712 309.754C509.417 320.833 511.971 334.512 527.528 342.517C527.528 342.517 525.387 396.993 525.233 412.924C525.116 425.077 528.948 455.951 530.773 469.921C541.341 483.335 549.809 493.559 549.809 493.559C549.809 493.559 557.233 493.317 566.13 485.78Z" fill="#37474F"/>
<path d="M562.835 541.687C562.835 541.687 567.74 546.682 568.17 553.317C568.601 559.953 567.415 578.049 567.884 580.502C567.884 580.502 565.155 581.964 562.516 581.765L561.654 574.459C561.246 572.959 561.428 571.762 559.768 574.482C558.107 577.202 556.721 580.247 554.135 584.2C552.082 587.336 549.188 594.738 540.302 597.145C531.994 599.394 522.418 598.321 518.564 596.289C516.267 595.078 512.15 593.165 515.229 588.823C516.863 586.518 526.085 577.244 529.198 573.137C532.433 568.868 562.835 541.687 562.835 541.687Z" fill="#263238"/>
<path d="M540.411 540.982C541.2 523.673 526.614 444.124 531.816 407.012L578.321 407.465C575.498 417.697 573.833 429.614 572.806 440.226C571.828 450.324 574.572 473.55 569.302 498.481C565.208 517.847 563.403 531.054 563.282 533.725C563.16 536.396 562.82 542.073 562.916 543.552C563.473 552.123 562.065 556.966 552.375 570.318C550.502 572.9 545.958 581.27 533.31 582.641C527.103 583.315 524.638 580.385 527.189 576.278C531.269 569.71 539.622 558.292 540.411 540.982Z" fill="#FFBDA7"/>
<path d="M572.806 440.228C572.622 444.157 572.773 448.081 572.9 452.01C573.006 455.939 573.096 459.872 573.122 463.809C573.137 471.685 572.738 479.58 571.759 487.41C571.265 491.325 570.538 495.206 569.739 499.056L567.351 510.562C566.568 514.4 565.831 518.248 565.141 522.108C564.437 525.964 563.738 529.826 563.281 533.727C563.795 525.869 565.127 518.106 566.449 510.366C567.752 502.606 569.703 495.005 570.576 487.236C571.125 483.366 571.447 479.46 571.729 475.554C571.983 471.644 572.087 467.724 572.205 463.802C572.292 459.879 572.302 455.951 572.316 452.018C572.389 448.09 572.353 444.138 572.806 440.228Z" fill="#F0997A"/>
<path d="M496.033 278.284C496.033 278.284 501.403 296.613 507.398 313.21C512.606 327.629 522.349 335.642 532.537 338.884C532.537 338.884 530.018 404.042 529.232 413.116C528.444 422.19 530.979 454.994 533.166 476.58C535.353 498.166 536.022 505.556 536.022 505.556C536.022 505.556 540.556 510.356 553.086 510.408C565.616 510.459 569.518 505.057 569.518 505.057C569.518 505.057 577.108 479.952 577.185 460.338C577.23 449.095 574.766 443.551 576.694 432.38C578.623 421.211 593.275 371.369 595.556 347.815C597.837 324.261 593.69 303.66 577.168 279.851C559.89 291.869 512.051 289.569 496.033 278.284Z" fill="#455A64"/>
<path d="M570.075 283.595C579.019 295.964 592.007 321.559 583.509 358.648C581.093 369.194 578.679 379.374 576.342 389.219C570.872 412.274 566.553 430.483 566.028 437.416C565.737 441.251 566.199 444.882 566.734 449.086C567.573 455.675 568.617 463.876 567.094 476.554C565.673 488.405 563.554 500.871 562.013 509.308C562.541 509.16 563.037 509.002 563.501 508.838C565.032 500.399 567.079 488.266 568.465 476.719C570.006 463.871 568.95 455.577 568.102 448.913C567.577 444.784 567.123 441.217 567.401 437.522C567.918 430.698 572.228 412.533 577.683 389.54C580.02 379.692 582.436 369.51 584.853 358.959C593.411 321.601 580.457 295.707 571.381 283.044C570.952 283.232 570.517 283.417 570.075 283.595Z" fill="#37474F"/>
<path d="M495.689 274.339C495.689 274.339 515.456 283.275 538.718 283.53C564.971 283.816 577.431 275.614 577.431 275.614C577.431 275.614 577.454 279.973 579.953 284.014C579.953 284.014 564.891 293.048 538.799 292.284C512.706 291.518 495.391 282.582 495.391 282.582C495.391 282.582 496.011 278.296 495.689 274.339Z" fill="#37474F"/>
<path d="M521.528 193.444C510.65 195.403 505.462 198.792 497.288 211.906C489.115 225.019 464.368 259.84 464.368 259.84C464.368 259.84 469.949 273.941 490.245 277.599C499.719 264.068 518.428 237.24 518.428 237.24L521.528 193.444Z" fill="#BA68C8"/>
<path opacity="0.3" d="M521.528 193.444C510.65 195.403 505.462 198.792 497.288 211.906C489.115 225.019 464.368 259.84 464.368 259.84C464.368 259.84 469.949 273.941 490.245 277.599C499.719 264.068 518.428 237.24 518.428 237.24L521.528 193.444Z" fill="black"/>
<path d="M580.852 271.049C580.855 273.865 588.015 288.014 591.92 303.268C568.452 333.521 498.951 317.013 493.865 299.987C494.958 279.753 495.893 228.653 500.324 219.41C508.251 202.879 521.612 194.056 521.612 194.056C527.929 192.716 534.521 192.282 536.438 192.088C540.327 191.692 548.284 191.068 558.666 192.657C565.247 193.665 576.057 196.527 576.057 196.527C580.173 200.008 591.597 214.677 588.954 232.356C587.742 240.472 580.836 251.063 580.852 271.049Z" fill="#FAFAFA"/>
<path d="M561.202 191.628L561.107 194.117C561.107 194.117 551.284 219.076 550.964 239.327C550.645 259.579 557.184 338.735 557.184 338.735C557.184 338.735 573.767 336.597 583.015 332.291L583.653 313.133L587.959 330.537C587.959 330.537 593.54 328.782 596.41 324.637C596.41 317.142 594.497 301.516 587.959 284.932C581.421 268.348 581.102 265.318 585.726 248.895C590.35 232.472 594.018 224.817 588.597 213.017C583.175 201.217 576.822 195.837 576.822 195.837L561.202 191.628Z" fill="#BA68C8"/>
<path d="M533.518 191.628L533.43 194.551C533.43 194.551 524.442 203.76 516.353 214.903C508.263 226.045 508.429 230.502 505.127 247.835C501.825 265.168 500.613 322.963 500.613 322.963C500.613 322.963 493.159 320.882 490.766 319.644C490.766 319.644 492.829 285.6 493.571 273.94C494.314 262.281 495.387 235.538 497.121 227.862C498.853 220.187 498.358 218.452 504.963 209.456C511.565 200.46 521.529 193.444 521.529 193.444L533.518 191.628Z" fill="#BA68C8"/>
<path d="M521.083 289.265C520.438 287.373 514.756 283.794 513.526 279.959C512.798 277.686 514.295 274.394 516.714 276.654C521.786 281.394 525.509 282.059 528.843 284.409" fill="#FFBDA7"/>
<path d="M393.047 253.667C391.79 257.94 395.208 266.839 400.763 268.473C400.763 268.473 397.922 271.816 396.414 276.945C394.592 283.141 398.752 291.097 407.298 293.611C415.845 296.126 472.68 312.843 472.68 312.843L482.048 315.724L503.856 241.583L494.425 238.915C494.425 238.915 484.27 207.142 483.819 202.365C483.367 197.589 490.607 179.289 491.612 175.87C492.617 172.451 476.755 166.392 467.982 177.277C459.208 188.161 455.765 198.292 455.361 210.71L415.84 199.085C407.5 196.631 401.819 203.317 400.436 208.019C398.487 214.642 401.692 219.531 403.452 221.442C403.452 221.442 394.981 221.039 392.278 230.227C390.77 235.356 392.768 241.979 398.374 245.021C398.375 245.019 394.932 247.256 393.047 253.667Z" fill="#FAFAFA"/>
<path d="M491.613 175.868C492.618 172.449 476.756 166.391 467.983 177.276C459.209 188.16 455.766 198.291 455.362 210.709L455.857 211.392L462.888 213.376C468.848 175.123 484.082 173.858 491.613 175.868Z" fill="#E0E0E0"/>
<path d="M479.127 325.567L507.617 333.947L532.925 247.907L504.435 239.527L479.127 325.567Z" fill="#BA68C8"/>
<path opacity="0.2" d="M479.127 325.567L507.617 333.947L532.925 247.907L504.435 239.527L479.127 325.567Z" fill="black"/>
<path d="M398.377 245.02C398.377 245.02 394.933 247.257 393.047 253.667C392.954 253.983 392.89 254.327 392.847 254.695C392.306 259.216 395.619 266.96 400.763 268.473C400.763 268.473 397.922 271.816 396.414 276.945C396.231 277.569 396.11 278.202 396.048 278.852C395.466 284.679 399.606 291.349 407.298 293.61L420.426 297.471C412.734 295.208 408.596 288.54 409.176 282.713C409.238 282.063 409.359 281.429 409.542 280.806C411.051 275.677 413.892 272.335 413.892 272.335C408.747 270.821 405.434 263.077 405.975 258.556C406.018 258.188 406.082 257.845 406.175 257.528C408.06 251.119 411.505 248.881 411.505 248.881C405.899 245.839 403.901 239.216 405.409 234.087C405.43 234.019 405.453 233.942 405.481 233.876C408.239 224.91 416.584 225.302 416.584 225.302C414.825 223.391 411.62 218.502 413.568 211.878C413.648 211.605 413.741 211.325 413.853 211.034C415.626 206.429 421.119 200.635 428.974 202.945L415.846 199.084C407.992 196.773 402.499 202.568 400.725 207.173C400.611 207.464 400.52 207.744 400.44 208.017C398.491 214.641 401.696 219.53 403.456 221.441C403.456 221.441 395.113 221.048 392.353 230.015C392.325 230.081 392.302 230.158 392.282 230.226C390.773 235.355 392.771 241.978 398.377 245.02Z" fill="#E0E0E0"/>
<path d="M472.535 313.337L407.154 294.105C403.035 292.893 399.616 290.345 397.527 286.927C395.557 283.707 394.973 280.014 395.919 276.799C397.094 272.808 399.034 269.905 399.915 268.721C397.539 267.746 395.368 265.442 393.883 262.28C392.423 259.171 391.9 255.733 392.552 253.521C394 248.597 396.341 246.069 397.461 245.085C391.917 241.641 390.372 234.89 391.785 230.081C393.98 222.617 399.928 221.23 402.39 220.978C400.774 218.899 398.076 214.223 399.943 207.872C400.58 205.705 402.303 202.618 405.223 200.454C407.441 198.811 411.106 197.155 415.986 198.59L454.871 210.027C455.403 197.245 459.224 187.318 467.58 176.954C473.815 169.219 484.061 169.63 489.34 172.395C491.45 173.499 492.459 174.818 492.107 176.015C491.86 176.853 491.251 178.553 490.48 180.706C488.216 187.03 484 198.803 484.332 202.316C484.75 206.754 493.854 235.424 494.832 238.492L504.496 241.228L482.393 316.368L472.535 313.337ZM494.019 239.335L493.936 239.071C493.521 237.771 483.758 207.189 483.306 202.413C482.952 198.673 487.058 187.208 489.512 180.358C490.277 178.22 490.881 176.532 491.119 175.723C491.307 175.082 490.4 174.113 488.864 173.307C483.891 170.706 474.253 170.319 468.385 177.6C460.038 187.955 456.296 197.862 455.88 210.725L455.858 211.391L415.698 199.578C411.221 198.263 407.867 199.78 405.839 201.283C403.123 203.295 401.522 206.155 400.933 208.163C398.911 215.04 402.642 219.796 403.833 221.091L404.682 222.012L403.432 221.957C403.088 221.925 395.327 221.7 392.775 230.372C391.42 234.979 393.01 241.521 398.621 244.567L399.376 244.979L398.658 245.453C398.626 245.474 395.342 247.691 393.542 253.814C392.958 255.798 393.459 258.949 394.818 261.841C396.324 265.046 398.544 267.283 400.909 267.98L401.671 268.204L401.159 268.809C401.131 268.841 398.37 272.139 396.911 277.092C396.047 280.028 396.592 283.418 398.409 286.391C400.365 289.59 403.573 291.978 407.445 293.118L472.831 312.351L481.701 315.078L503.215 241.938L494.019 239.335Z" fill="#455A64"/>
<path opacity="0.2" d="M479.125 325.567L507.615 333.947L520.269 290.927L491.779 282.546L479.125 325.567Z" fill="black"/>
<path d="M500.79 319.873C501.461 317.592 500.156 315.2 497.876 314.529C495.595 313.859 493.203 315.163 492.531 317.444C491.86 319.725 493.165 322.117 495.445 322.789C497.727 323.459 500.12 322.154 500.79 319.873Z" fill="#F0F0F0"/>
<path d="M528.843 284.409C532.175 286.759 535.61 287.573 542.235 287.869C549.271 288.181 577.173 276.729 577.173 276.729L572.032 239.624C572.032 239.624 566.133 211.573 576.961 196.723C594.225 200.391 595.586 205.486 597.731 212.666C599.375 218.171 601.286 225.328 603.778 249.325C606.013 270.851 606.254 276.496 606.012 287.348C605.804 296.719 598.321 299.731 585.328 302.748C572.336 305.766 563.985 306.885 545.537 309.603C536.666 310.91 531.643 310.307 523.944 310.137C520.122 310.053 517.869 309.682 515.328 308.878C512.788 308.074 510.34 306.822 508.477 304.918C508.126 304.56 507.844 304.178 507.401 303.932C506.978 303.696 506.528 303.519 506.076 303.349C505.221 303.027 504.333 302.739 503.597 302.179C502.818 301.584 502.282 300.749 501.64 300.022C501.341 299.682 501.107 299.31 500.763 299.006C500.415 298.697 500.026 298.439 499.627 298.198C498.602 297.578 497.454 297.016 496.699 296.063C495.996 295.174 496.382 294.25 496.382 294.25C496.382 294.25 494.928 293.661 494.444 293.434C493.766 293.115 493.122 292.722 492.529 292.264C492.295 292.083 492.051 291.856 492.043 291.561C492.038 291.388 492.117 291.225 492.204 291.074C493.597 288.672 496.423 288.689 498.856 288.905C505.188 289.465 509.041 291.139 515.437 290.998C518.915 290.922 519.863 290.837 520.813 290.17C521.14 289.94 521.206 289.635 521.08 289.267" fill="#FFBDA7"/>
<path d="M577.173 276.729C584.556 273.048 591.151 271.486 591.151 271.486C591.151 271.486 586.745 269.752 576.822 274.199L577.173 276.729Z" fill="#F0997A"/>
<path d="M496.611 294.512C498.059 295.166 499.563 295.685 501.065 296.19C502.565 296.702 504.08 297.16 505.579 297.657C506.328 297.89 507.071 298.172 507.85 298.384C508.624 298.588 509.397 298.777 510.179 298.921C511.739 299.227 513.307 299.476 514.889 299.627L512.583 299.051C511.813 298.868 511.044 298.679 510.281 298.477C509.52 298.267 508.754 298.078 508.006 297.846C507.261 297.627 506.522 297.342 505.762 297.095C504.249 296.609 502.727 296.166 501.197 295.758L496.611 294.512Z" fill="#F0997A"/>
<path d="M500.612 298.874C501.609 299.586 502.717 300.231 503.83 300.733C504.944 301.237 506.083 301.679 507.231 302.094C508.383 302.497 509.544 302.876 510.722 303.2C511.897 303.529 513.091 303.81 514.303 303.979C513.146 303.587 512.009 303.159 510.861 302.758L507.43 301.535L504.004 300.306C502.868 299.879 501.722 299.386 500.612 298.874Z" fill="#F0997A"/>
<path d="M576.823 195.837C588.657 198.889 593.942 200.958 596.411 206.799C598.879 212.64 600.096 216.29 602.773 232.109C605.449 247.928 607.397 275.793 607.276 284.433C607.153 293.073 608.127 296.699 598.514 300.241C588.902 303.782 567.12 306.945 567.12 306.945C567.12 306.945 567.972 301.47 566.756 295.021C565.539 288.572 561.524 282.244 561.524 282.244L576.126 276.402C576.126 276.402 571.015 243.304 570.285 237.463C569.553 231.623 567.543 208.239 576.823 195.837Z" fill="#BA68C8"/>
<path opacity="0.3" d="M576.823 195.837C588.657 198.889 593.942 200.958 596.411 206.799C598.879 212.64 600.096 216.29 602.773 232.109C605.449 247.928 607.397 275.793 607.276 284.433C607.153 293.073 608.127 296.699 598.514 300.241C588.902 303.782 567.12 306.945 567.12 306.945C567.12 306.945 567.972 301.47 566.756 295.021C565.539 288.572 561.524 282.244 561.524 282.244L576.126 276.402C576.126 276.402 571.015 243.304 570.285 237.463C569.553 231.623 567.543 208.239 576.823 195.837Z" fill="black"/>
<path d="M515.996 157.802L513.838 157.137C504.144 151.931 504.632 139.286 506.986 132.697C512.241 117.987 528.14 112.48 537.978 111.943C556.633 110.923 565.745 115.741 567.669 125.404C570.198 125.189 573.671 127.225 575.768 130.08C580.357 136.326 585.815 158.086 561.63 181.038L515.996 157.802Z" fill="#37474F"/>
<path d="M566.124 173.737C569.503 174.234 572.11 172.466 574.057 170.145C578.379 164.996 578.6 159.92 576.361 156.632C574.521 153.932 570.185 152.329 567.269 154.32C564.151 156.45 564.114 158.089 562.995 160.401C561.846 162.773 557.196 162.697 555.722 153.608C554.347 145.13 554.733 136.224 550.414 132.541C543.965 127.042 535.9 128.942 533.548 132.43C530.853 128.558 526.108 127.558 521.942 130.006C517.857 132.407 514.784 138.927 513.952 155.146C513.104 171.68 517.377 181.809 521.262 184.432C524.209 186.422 527.457 187.243 533.65 187.281L533.429 194.552C533.429 194.552 525.05 210.377 525.624 224.498C525.624 224.498 529.045 222.145 544.411 208.711C554.647 199.761 561.109 194.118 561.109 194.118L561.978 171.306C561.978 171.306 562.913 173.265 566.124 173.737Z" fill="#FFBDA7"/>
<path d="M518.272 147.184L524.347 144.855C523.762 143.14 521.927 142.269 520.249 142.914C518.572 143.557 517.685 145.47 518.272 147.184Z" fill="#263238"/>
<path d="M540.833 144.815L546.851 148.317C547.888 146.679 547.382 144.567 545.719 143.6C544.059 142.633 541.869 143.178 540.833 144.815Z" fill="#263238"/>
<path d="M548.922 133.642C550.382 135.493 551.447 137.354 551.226 143.999C551.133 146.768 551.343 153.222 553.196 157.072C554.819 160.439 556.501 162.44 560.087 163.068C561.881 163.382 564.907 163.179 566.56 162.414C567.831 161.825 571.405 159.306 570.97 155.611C570.399 156.25 569.357 157.059 568.349 157.459C567.589 157.76 566.791 157.983 565.975 158.028C563.545 158.162 561.231 156.658 559.868 154.64C557.457 151.069 557.618 146.25 556.881 142.154C555.944 136.946 555.039 131.039 550.339 128.457C544.783 125.407 534.752 126.761 533.547 132.431C537.346 128.805 545.16 128.873 548.922 133.642Z" fill="#37474F"/>
<path d="M540.573 169.125L531.485 171.641C532.09 174.198 534.873 175.687 537.724 174.784C540.207 173.997 541.179 171.68 540.573 169.125Z" fill="#B16668"/>
<path d="M535.127 174.943C535.516 172.456 537.71 170.612 540.278 170.752C540.434 170.76 540.58 170.801 540.731 170.823C540.642 172.656 539.637 174.176 537.724 174.783C536.827 175.067 535.946 175.092 535.127 174.943Z" fill="#F0997A"/>
<path d="M533.548 149.302L531.632 165.487L522.853 162.071L533.548 149.302Z" fill="#F0997A"/>
<path d="M533.65 187.281C539.371 186.686 545.394 185.843 551.116 183.337C553.139 182.451 555.843 178.723 558.038 174.579C558.038 174.579 556.549 182.712 552.182 185.552C545.542 189.868 533.548 190.892 533.548 190.892L533.65 187.281Z" fill="#F0997A"/>
<path d="M519.787 152.022C519.311 153.345 520.234 153.793 521.508 154.247C522.783 154.703 523.928 154.991 524.404 153.668C524.88 152.344 524.232 150.904 522.958 150.449C521.682 149.994 520.264 150.699 519.787 152.022Z" fill="#263238"/>
<path d="M524.163 150.949C523.61 150.612 522.957 150.413 522.328 150.264C521.711 150.117 521.058 150.057 520.431 150.143C519.379 150.287 518.814 150.53 518.489 150.688C518.447 150.708 518.401 150.851 518.478 150.843C518.999 150.789 519.457 150.708 520.211 150.692C520.845 150.678 521.723 150.814 522.337 150.972C523.301 151.22 523.675 151.349 524.74 151.897C524.989 152.025 525.47 152.297 525.518 152.333C525.587 152.389 525.651 152.197 525.614 152.138C525.31 151.63 524.657 151.25 524.163 150.949Z" fill="#263238"/>
<path d="M544.505 152.911C544.797 154.286 543.822 154.605 542.497 154.883C541.173 155.161 540 155.293 539.708 153.917C539.415 152.542 540.253 151.201 541.578 150.923C542.901 150.646 544.212 151.537 544.505 152.911Z" fill="#263238"/>
<path d="M540.313 151.255C540.907 150.995 541.581 150.888 542.224 150.825C542.855 150.764 543.51 150.793 544.118 150.963C545.142 151.248 545.669 151.566 545.969 151.766C546.009 151.792 546.035 151.94 545.958 151.921C545.45 151.798 545.006 151.655 544.263 151.538C543.636 151.437 542.747 151.455 542.119 151.527C541.129 151.641 540.743 151.719 539.614 152.117C539.35 152.211 538.836 152.414 538.784 152.445C538.708 152.491 538.672 152.293 538.715 152.238C539.085 151.776 539.784 151.486 540.313 151.255Z" fill="#263238"/>
<path d="M436.07 305.603C432.269 305.577 432.058 305.171 431.486 303.274C430.913 301.378 430.386 297.683 432.857 294.485C434.519 292.334 436.088 290.084 437.497 289.374C438.906 288.665 440.59 291.362 439.152 294.693C436.886 299.942 438.133 300.803 438.133 300.803C438.133 300.803 440.225 295.971 441.343 294.234C442.462 292.496 445.469 290.026 447.152 288.341C448.834 286.656 451.563 288.064 450.065 291.903C450.065 291.903 452.193 289.78 453.156 288.82C455.32 286.662 457.222 286.775 457.341 289.791C457.369 290.508 457.324 291.441 456.566 292.605C456.566 292.605 458.452 290.002 459.356 290.577C461.948 292.224 461.43 294.304 459.14 300.667C457.19 306.085 457.946 308.848 460.096 309.674L461.487 310.082C461.487 310.082 458.846 311.248 456.299 312.143C454.433 312.798 452.601 313.172 450.976 311.086C450.976 311.086 448.952 313.99 447.054 312.879C445.156 311.767 443.76 309.43 443.76 309.43C443.76 309.43 441.71 310.508 439.676 308.873C437.641 307.24 437.32 305.571 437.32 305.571L436.07 305.603Z" fill="#FFBDA7"/>
<path d="M450.063 291.906C449.141 292.843 448.193 293.663 447.421 294.823C446.685 296.054 446.465 297.356 446.166 298.597C445.643 301.12 445.204 303.663 445.11 306.271C446.091 303.846 446.727 301.358 447.279 298.85C447.55 297.596 447.745 296.311 448.202 295.248C448.733 294.188 449.513 293.077 450.063 291.906Z" fill="#F0997A"/>
<path d="M456.564 292.607C455.45 293.459 454.545 294.652 453.972 295.959C453.366 297.254 452.977 298.617 452.631 299.971C451.992 302.692 451.55 305.444 451.489 308.256C452.438 305.611 453.079 302.917 453.74 300.242C454.409 297.563 454.95 294.923 456.564 292.607Z" fill="#F0997A"/>
<path d="M472.721 77.2684C480.296 84.2506 484.461 93.5598 485.169 103.106L485.243 107.576C484.885 116.512 481.489 125.378 474.961 132.46C460.365 148.293 435.609 149.301 419.776 134.705C412.696 128.179 408.59 119.617 407.508 110.739L407.217 106.278C407.149 96.7055 410.542 87.0889 417.525 79.5151C432.126 63.6752 456.882 62.6675 472.721 77.2684Z" fill="white"/>
<path d="M415.046 77.3242C399.242 94.5296 400.382 121.388 417.587 137.193C433.024 151.372 456.22 151.899 472.243 139.433L484.498 144.232C486.591 145.052 488.597 142.868 487.603 140.853L481.782 129.048C492.841 112.027 490.351 88.9617 474.915 74.7824C457.71 58.9792 430.851 60.1188 415.046 77.3242ZM472.676 77.2209C480.263 84.1895 484.443 93.4906 485.169 103.036L485.25 107.507C484.907 116.443 481.527 125.316 475.012 132.408C460.445 148.267 435.689 149.317 419.831 134.75C412.739 128.236 408.619 119.683 407.52 110.806L407.222 106.345C407.137 96.7722 410.514 87.1502 417.484 79.5641C432.056 63.6984 456.811 62.6484 472.676 77.2209Z" fill="#455A64"/>
<path d="M440.429 130.128C438.777 130.128 437.191 129.445 436.057 128.232L422.479 113.734C420.217 111.32 420.342 107.53 422.756 105.267C425.171 103.005 428.962 103.132 431.223 105.544L440.042 114.961L460.905 88.5361C462.952 85.9385 466.718 85.4937 469.318 87.546C471.916 89.5955 472.358 93.3641 470.308 95.9589L445.131 127.85C444.05 129.22 442.426 130.049 440.682 130.122C440.598 130.126 440.512 130.128 440.429 130.128Z" fill="#BA68C8"/>
<path d="M649.893 89.6486C649.313 88.4259 648.639 87.6222 648.08 87.1135C649.573 85.2938 649.638 82.7846 648.826 81.0765C647.855 79.027 646.249 78.215 644.9 77.9825C645.265 76.8605 645.44 75.2598 644.587 73.4618C643.599 71.3756 640.551 69.0228 637.181 70.633L624.571 76.6021C623.536 72.2922 621.534 69.0201 618.024 65.8404C614.814 62.9313 610.702 64.0125 608.859 65.3807C607.394 66.466 607.644 67.4452 607.82 67.8165C607.958 68.1102 608.282 68.7032 608.697 69.4593C609.688 71.275 612.013 75.5277 612.082 76.6538C612.159 77.8723 611.073 85.5142 610.326 90.3544C610.298 90.5448 610.326 90.742 610.408 90.9175L622.555 116.57C622.761 117.002 623.246 117.213 623.691 117.088C623.743 117.073 623.793 117.055 623.845 117.029L646.535 106.287C650.188 104.554 651.176 100.798 650 98.3091C649.539 97.3367 648.976 96.5601 648.519 96.0202C650.19 94.361 650.626 91.2044 649.893 89.6486ZM646.644 95.0179C646.347 95.1579 646.143 95.4395 646.1 95.7618C646.055 96.0855 646.177 96.4105 646.422 96.6254C646.433 96.6349 647.513 97.5842 648.248 99.1414C649.03 100.795 648.195 103.359 645.704 104.539L623.888 114.866L612.283 90.3571C612.612 88.207 614.119 78.2518 614.013 76.5354C613.923 75.0979 612.251 71.9305 610.393 68.5318C610.094 67.9851 609.845 67.5295 609.686 67.2235C609.955 66.9175 610.793 66.3327 612.063 66.0716C613.075 65.8621 615.022 65.7411 616.721 67.2779C620.217 70.4453 622.073 73.7066 622.928 78.1838C622.985 78.4789 623.173 78.7291 623.442 78.8651C623.706 78.9998 624.021 79.0106 624.295 78.8774L638.009 72.3833C640.416 71.2437 642.307 73.1721 642.836 74.2914C643.79 76.307 642.876 77.9417 642.574 78.3959C642.358 78.7223 642.358 79.1494 642.579 79.4744C642.796 79.7994 643.189 79.9599 643.575 79.8797C643.669 79.8606 645.904 79.4336 647.075 81.9047C647.703 83.2266 647.536 85.268 645.992 86.4526C645.724 86.6566 645.59 86.9871 645.624 87.3203C645.656 87.6548 645.868 87.9513 646.17 88.0982C646.214 88.1186 647.276 88.6517 648.138 90.4755C648.643 91.539 648.013 94.3705 646.644 95.0179ZM608.545 90.893C608.315 90.4102 607.746 90.1926 607.255 90.4333L597.37 95.1131C597.137 95.2219 596.959 95.4191 596.872 95.6611C596.787 95.9032 596.8 96.1698 596.91 96.4023L611.046 126.257C611.251 126.69 611.737 126.9 612.183 126.775C612.234 126.76 612.285 126.743 612.336 126.718L622.222 122.038C622.455 121.93 622.633 121.731 622.72 121.489C622.804 121.247 622.791 120.98 622.682 120.748L608.545 90.893ZM612.38 124.553L599.074 96.4472L607.209 92.5971L620.515 120.701L612.38 124.553Z" fill="#E0E0E0"/>
<path d="M38.9328 221.798C38.6852 222.304 38.4037 223.012 38.2378 223.853C37.8162 226.002 39.3136 228.707 42.4688 229.33L62.0677 233.181C62.1126 233.191 62.1547 233.195 62.1983 233.196C62.5668 233.206 62.9 232.949 62.9735 232.575L67.3295 210.415C67.3595 210.264 67.3431 210.106 67.2833 209.965C65.7615 206.377 63.4304 200.696 63.2509 199.742C63.0836 198.86 64.0465 195.126 64.4559 193.532C64.6272 192.867 64.7605 192.347 64.8108 192.093C64.8734 191.772 64.8747 190.968 63.5338 190.417C61.846 189.722 58.4623 189.692 56.5543 192.562C54.468 195.701 53.5636 198.615 53.6071 202.142L42.7149 200.001C39.8004 199.418 37.91 201.828 37.5551 203.63C37.2491 205.183 37.6979 206.382 38.197 207.177C37.2015 207.619 36.1203 208.558 35.7735 210.329C35.4811 211.806 36.0224 213.728 37.5292 214.839C37.1988 215.341 36.8356 216.093 36.6262 217.148C36.3651 218.493 37.3184 220.843 38.9328 221.798ZM38.1385 217.446C38.4472 215.871 39.1626 215.252 39.1925 215.228C39.3965 215.055 39.5026 214.786 39.4618 214.521C39.4237 214.257 39.2551 214.028 39.0089 213.924C37.5864 213.312 37.0587 211.769 37.2858 210.627C37.706 208.492 39.5121 208.386 39.5883 208.382C39.9011 208.368 40.1731 208.168 40.2778 207.874C40.3839 207.581 40.3009 207.251 40.0697 207.042C39.7474 206.751 38.7233 205.668 39.0674 203.928C39.2564 202.961 40.3376 201.103 42.4171 201.512L54.264 203.841C54.5007 203.89 54.7427 203.82 54.9195 203.665C55.1004 203.509 55.197 203.278 55.182 203.04C54.9671 199.421 55.76 196.541 57.8381 193.415C58.8472 191.897 60.3731 191.61 61.1946 191.573C62.2255 191.527 62.9857 191.814 63.2536 191.998C63.1911 192.264 63.0877 192.664 62.9639 193.144C62.1955 196.128 61.5237 198.898 61.7359 200.024C61.9902 201.368 65.0978 208.753 65.771 210.347L61.6107 231.518L42.7666 227.816C40.6137 227.392 39.4686 225.577 39.7488 224.149C40.0126 222.804 40.66 221.862 40.6668 221.852C40.8136 221.639 40.8449 221.364 40.747 221.123C40.6504 220.883 40.4383 220.706 40.1826 220.656C38.998 220.424 37.9604 218.363 38.1385 217.446ZM63.6915 235.818C63.6535 236.018 63.6943 236.228 63.8071 236.398C63.9214 236.568 64.0968 236.685 64.2981 236.724L72.8375 238.402C72.8811 238.412 72.9246 238.416 72.9667 238.417C73.3353 238.427 73.6685 238.17 73.7419 237.796L78.8106 212.007C78.8487 211.807 78.8079 211.598 78.695 211.428C78.5808 211.258 78.404 211.141 78.2041 211.102L69.6647 209.423C69.239 209.334 68.8432 209.614 68.7603 210.03L63.6915 235.818ZM65.3521 235.36L70.123 211.084L77.1501 212.463L72.3792 236.74L65.3521 235.36Z" fill="#E0E0E0"/>
<path d="M622.925 326.381C622.632 326.753 622.271 327.284 621.983 327.944C621.249 329.635 621.99 332.126 624.47 333.207L639.881 339.911C639.916 339.926 639.95 339.938 639.985 339.946C640.286 340.021 640.607 339.87 640.735 339.575L648.315 322.153C648.367 322.033 648.382 321.902 648.359 321.775C647.756 318.553 646.866 313.463 646.891 312.647C646.913 311.892 648.378 308.998 649.003 307.762C649.265 307.246 649.469 306.844 649.554 306.644C649.663 306.392 649.81 305.731 648.808 305.036C647.546 304.16 644.771 303.525 642.686 305.539C640.406 307.741 639.135 309.973 638.535 312.879L629.972 309.154C627.683 308.148 625.694 309.788 625.077 311.205C624.545 312.425 624.696 313.493 624.964 314.237C624.066 314.42 623.008 314.998 622.403 316.39C621.896 317.551 621.994 319.226 623.031 320.412C622.67 320.765 622.235 321.317 621.873 322.148C621.413 323.203 621.772 325.306 622.925 326.381ZM623.06 322.663C623.599 321.424 624.298 321.046 624.326 321.031C624.525 320.926 624.661 320.724 624.676 320.499C624.692 320.275 624.594 320.057 624.411 319.927C623.352 319.168 623.197 317.805 623.589 316.908C624.319 315.229 625.824 315.467 625.887 315.478C626.147 315.523 626.407 315.408 626.546 315.186C626.686 314.963 626.678 314.679 626.525 314.465C626.313 314.167 625.667 313.093 626.263 311.725C626.593 310.964 627.816 309.633 629.451 310.344L638.765 314.396C638.95 314.479 639.162 314.465 639.335 314.37C639.512 314.273 639.633 314.102 639.664 313.903C640.14 310.89 641.313 308.669 643.585 306.475C644.688 305.41 645.994 305.45 646.675 305.568C647.531 305.716 648.103 306.089 648.291 306.289C648.192 306.497 648.034 306.807 647.846 307.178C646.675 309.492 645.624 311.647 645.594 312.61C645.56 313.761 646.781 320.389 647.046 321.82L639.804 338.465L624.989 332.021C623.297 331.284 622.683 329.587 623.172 328.464C623.631 327.407 624.333 326.749 624.34 326.742C624.499 326.594 624.575 326.373 624.537 326.157C624.502 325.942 624.359 325.757 624.158 325.67C623.229 325.265 622.747 323.384 623.06 322.663ZM640.74 342.374C640.672 342.531 640.669 342.711 640.731 342.87C640.794 343.031 640.917 343.158 641.075 343.226L647.789 346.146C647.824 346.161 647.858 346.174 647.892 346.182C648.193 346.256 648.514 346.106 648.642 345.812L657.463 325.535C657.531 325.378 657.533 325.198 657.472 325.039C657.408 324.879 657.286 324.751 657.128 324.683L650.414 321.763C650.081 321.612 649.704 321.771 649.561 322.099L640.74 342.374ZM642.187 342.296L650.49 323.209L656.016 325.61L647.713 344.698L642.187 342.296Z" fill="#E0E0E0"/>
<path d="M550.437 52.6632C550.482 51.5304 552.754 47.4735 553.099 46.7037C553.443 45.934 549.918 44.015 547.52 46.2876C545.122 48.5601 543.996 50.8232 543.509 53.72L534.62 49.7501C532.745 48.9124 531.203 50.2996 530.731 51.3563C530.066 52.8455 530.661 54.0926 531.013 54.5958C531.013 54.5958 529.043 54.234 528.119 56.3012C527.604 57.4545 527.864 59.0688 529.08 59.9583C529.08 59.9583 528.202 60.3744 527.559 61.816C527.129 62.7775 527.649 64.9698 528.899 65.5274C528.899 65.5274 528.128 66.221 527.612 67.3743C526.991 68.7683 527.713 70.7621 529.636 71.6216C531.559 72.4797 544.342 78.189 544.342 78.189L551.767 61.5603C551.767 61.5603 550.394 53.7975 550.437 52.6632ZM554.097 62.0241L545.453 81.3755L551.87 84.2356L560.502 64.8842L554.097 62.0241ZM549.996 81.0464C549.3 81.0464 548.742 80.4888 548.742 79.7938C548.742 79.0975 549.3 78.5413 549.996 78.5413C550.693 78.5413 551.249 79.0989 551.249 79.7938C551.249 80.4901 550.693 81.0464 549.996 81.0464Z" fill="#EBEBEB"/>
<path d="M64.5306 88.6802L81.2831 124.63C81.2831 124.63 108.921 111.753 113.077 109.815C117.233 107.878 118.737 103.508 117.335 100.496C116.172 98.0016 114.47 96.5193 114.47 96.5193C117.172 95.2599 118.226 90.4686 117.258 88.3905C115.805 85.2734 113.881 84.4003 113.881 84.4003C116.5 82.4215 117.008 78.8963 115.845 76.4035C113.763 71.9359 109.483 72.7927 109.483 72.7927C110.232 71.6856 111.486 68.9507 109.986 65.7302C108.921 63.4454 105.514 60.4792 101.459 62.3682L82.2419 71.3239C81.0818 65.0352 78.5495 60.1446 73.2482 55.2813C67.9456 50.4165 60.3391 54.7196 61.1143 56.3829C61.8895 58.0462 66.9814 66.8018 67.1187 69.2662C67.2547 71.7305 64.5306 88.6802 64.5306 88.6802ZM45.6307 96.2282L65.1032 138.067L78.9765 131.614L59.4769 89.775L45.6307 96.2282ZM66.3 128.37C66.2755 126.855 67.4682 125.623 68.9846 125.599C70.4997 125.574 71.7332 126.768 71.7577 128.283C71.7821 129.8 70.5881 131.032 69.073 131.056C67.5566 131.08 66.3245 129.887 66.3 128.37Z" fill="#EBEBEB"/>
<path d="M626.354 209.977C624.99 209.977 623.683 209.414 622.746 208.413L611.541 196.449C609.675 194.457 609.779 191.329 611.771 189.463C613.765 187.596 616.893 187.7 618.757 189.693L626.033 197.463L643.25 175.655C644.939 173.512 648.046 173.144 650.192 174.838C652.336 176.529 652.702 179.638 651.01 181.78L630.233 208.096C629.341 209.227 628.001 209.912 626.562 209.972C626.493 209.976 626.422 209.977 626.354 209.977Z" fill="#EBEBEB"/>
<path d="M56.2728 333.178C54.9087 333.178 53.6018 332.615 52.6647 331.614L41.4597 319.65C39.5937 317.658 39.6971 314.53 41.6895 312.664C43.6833 310.797 46.8113 310.901 48.6772 312.894L55.9532 320.663L73.1695 298.856C74.8586 296.712 77.9662 296.345 80.1123 298.038C82.2557 299.73 82.6215 302.839 80.9297 304.981L60.1529 331.297C59.2607 332.427 57.9198 333.113 56.4822 333.173C56.4115 333.177 56.3422 333.178 56.2728 333.178Z" fill="#EBEBEB"/>
<path d="M185.66 93.6021C183.811 93.6021 182.024 92.8282 180.76 91.4778L167.856 77.7009C165.328 75 165.467 70.7432 168.168 68.2122C169.476 66.9868 171.195 66.3436 172.977 66.402C174.768 66.4619 176.43 67.2153 177.655 68.5236L185.224 76.6061L204.317 52.4226C205.427 51.0163 207.018 50.1255 208.799 49.9147C210.574 49.7012 212.335 50.2031 213.744 51.3128C215.152 52.4239 216.043 54.0165 216.252 55.7981C216.462 57.5783 215.965 59.3341 214.855 60.7417L190.928 91.048C189.716 92.5848 187.899 93.5137 185.942 93.5939C185.856 93.6007 185.758 93.6021 185.66 93.6021ZM172.752 68.4393C171.562 68.4393 170.436 68.884 169.563 69.7014C167.682 71.464 167.586 74.4274 169.347 76.3069L182.251 90.0838C183.129 91.0222 184.372 91.5621 185.66 91.5621L185.851 91.558C187.22 91.5009 188.485 90.8549 189.328 89.7859L213.256 59.4783C214.03 58.4977 214.375 57.2764 214.23 56.0375C214.084 54.7985 213.464 53.6887 212.484 52.9163C211.502 52.1424 210.282 51.7997 209.041 51.9411C207.804 52.0867 206.695 52.7068 205.923 53.6874L185.361 79.7301L176.169 69.9176C175.316 69.0064 174.159 68.4815 172.912 68.4407C172.857 68.4407 172.806 68.4393 172.752 68.4393Z" fill="#E0E0E0"/>
<g clip-path="url(#clip0_203_995)">
<path d="M726.65 468.136C726.159 467.944 725.636 467.852 725.111 467.864C724.585 467.877 724.069 467.994 723.591 468.209C723.112 468.424 722.682 468.733 722.325 469.118C721.968 469.502 721.69 469.955 721.509 470.449C721.328 470.943 721.246 471.47 721.269 471.998C721.292 472.526 721.419 473.045 721.642 473.525C721.865 474.004 722.181 474.436 722.57 474.793C722.96 475.151 723.415 475.428 723.911 475.608L748.229 484.775L741.644 509.916C741.504 510.424 741.467 510.956 741.533 511.481C741.6 512.005 741.769 512.512 742.031 512.972C742.294 513.431 742.644 513.835 743.061 514.159C743.479 514.483 743.955 514.721 744.463 514.859C744.972 514.997 745.501 515.032 746.022 514.963C746.542 514.894 747.043 514.722 747.495 514.456C747.947 514.19 748.341 513.837 748.655 513.416C748.969 512.994 749.196 512.514 749.323 512.003L756.821 483.362C757.072 482.404 756.958 481.383 756.501 480.5C756.044 479.616 755.278 478.933 754.351 478.583L726.65 468.136Z" fill="#E4B200"/>
<path d="M734.344 488.844L706.643 478.397C705.658 478.039 704.576 478.084 703.63 478.524C702.685 478.963 701.952 479.761 701.592 480.744C701.231 481.727 701.272 482.816 701.705 483.776C702.138 484.735 702.928 485.487 703.904 485.869L728.223 495.036L721.637 520.177C721.498 520.685 721.46 521.217 721.527 521.742C721.593 522.266 721.763 522.773 722.025 523.233C722.287 523.692 722.637 524.096 723.055 524.42C723.472 524.744 723.949 524.982 724.457 525.12C724.965 525.258 725.495 525.293 726.015 525.224C726.535 525.155 727.036 524.983 727.488 524.717C727.94 524.451 728.335 524.098 728.648 523.677C728.962 523.256 729.19 522.775 729.317 522.264L736.815 493.623C737.065 492.665 736.951 491.644 736.494 490.761C736.037 489.877 735.271 489.194 734.344 488.844Z" fill="#E4B200"/>
<path d="M714.37 499.168L686.669 488.721C685.684 488.363 684.602 488.409 683.656 488.848C682.711 489.287 681.978 490.085 681.618 491.068C681.257 492.051 681.298 493.141 681.731 494.1C682.164 495.059 682.954 495.811 683.93 496.193L708.249 505.36L701.663 530.501C701.524 531.01 701.486 531.541 701.553 532.066C701.619 532.59 701.789 533.097 702.051 533.557C702.313 534.017 702.663 534.42 703.081 534.744C703.498 535.068 703.975 535.306 704.483 535.444C704.991 535.582 705.521 535.618 706.041 535.549C706.561 535.479 707.062 535.307 707.514 535.041C707.966 534.776 708.361 534.422 708.674 534.001C708.988 533.58 709.216 533.099 709.343 532.588L716.841 503.948C717.091 502.989 716.977 501.969 716.52 501.085C716.063 500.201 715.297 499.518 714.37 499.168Z" fill="#E4B200"/>
<path d="M694.396 509.492L666.695 499.045C665.71 498.687 664.628 498.733 663.682 499.172C662.737 499.611 662.004 500.409 661.644 501.392C661.283 502.375 661.324 503.465 661.757 504.424C662.19 505.383 662.98 506.136 663.956 506.517L688.275 515.684L681.689 540.825C681.55 541.334 681.512 541.865 681.579 542.39C681.645 542.914 681.815 543.421 682.077 543.881C682.339 544.341 682.689 544.744 683.107 545.068C683.524 545.392 684.001 545.63 684.509 545.768C685.017 545.906 685.547 545.942 686.067 545.873C686.587 545.804 687.088 545.631 687.54 545.365C687.992 545.1 688.387 544.746 688.701 544.325C689.014 543.904 689.242 543.424 689.369 542.912L696.867 514.272C697.117 513.313 697.003 512.293 696.546 511.409C696.089 510.525 695.323 509.842 694.396 509.492Z" fill="#E4B200"/>
</g>
<defs>
<clipPath id="clip0_203_995">
<rect width="112" height="64" fill="white" transform="translate(649.754 499.763) rotate(-27.3335)"/>
</clipPath>
</defs>
</svg>
