<svg width="60" height="60" viewBox="0 0 60 60" fill="none" xmlns="http://www.w3.org/2000/svg">
<g clip-path="url(#clip0_56_2146)">
<path d="M58.2844 8.20251C57.4017 7.31833 55.9696 7.3168 55.0869 8.19876L27.9588 35.2552L18.1711 24.6248C17.3254 23.7068 15.8954 23.6472 14.9759 24.4929C14.057 25.3386 13.9982 26.7692 14.8439 27.6881L26.2259 40.0491C26.4321 40.2733 26.6815 40.4534 26.959 40.5786C27.2366 40.7039 27.5367 40.7717 27.8412 40.778C27.8577 40.7788 27.8736 40.7788 27.8895 40.7788C28.4879 40.7786 29.0618 40.5414 29.4859 40.1192L58.2799 11.4007C59.1648 10.5188 59.1663 9.08669 58.2844 8.20251Z" fill="url(#paint0_linear_56_2146)"/>
<path d="M57.7386 27.7386C56.4896 27.7386 55.4774 28.7509 55.4774 30C55.4774 44.0488 44.0488 55.4774 30 55.4774C15.952 55.4774 4.52262 44.0488 4.52262 30C4.52262 15.952 15.952 4.52262 30 4.52262C31.249 4.52262 32.2614 3.51035 32.2614 2.26137C32.2614 1.01227 31.249 0 30 0C13.4578 0 0 13.4578 0 30C0 46.5415 13.4578 60 30 60C46.5415 60 60 46.5415 60 30C60 28.751 58.9877 27.7386 57.7386 27.7386Z" fill="url(#paint1_linear_56_2146)"/>
</g>
<defs>
<linearGradient id="paint0_linear_56_2146" x1="36.5955" y1="7.53833" x2="36.5955" y2="40.7788" gradientUnits="userSpaceOnUse">
<stop stop-color="#4C6DED"/>
<stop offset="1" stop-color="#841ECB"/>
</linearGradient>
<linearGradient id="paint1_linear_56_2146" x1="30" y1="0" x2="30" y2="60" gradientUnits="userSpaceOnUse">
<stop stop-color="#4C6DED"/>
<stop offset="1" stop-color="#841ECB"/>
</linearGradient>
<clipPath id="clip0_56_2146">
<rect width="60" height="60" fill="white"/>
</clipPath>
</defs>
</svg>
