<svg width="314" height="314" viewBox="0 0 314 314" fill="none" xmlns="http://www.w3.org/2000/svg">
<circle cx="156.795" cy="156.904" r="134.081" stroke="#6050E0" stroke-width="45"/>
<mask id="path-2-inside-1_60_5" fill="white">
<path d="M313.376 156.904C313.376 136.341 309.326 115.98 301.457 96.9826C293.588 77.9853 282.055 60.724 267.515 46.1841C252.975 31.6442 235.713 20.1105 216.716 12.2415C197.719 4.3726 177.358 0.322509 156.795 0.32251V45.1283C171.474 45.1283 186.008 48.0195 199.57 53.6367C213.131 59.254 225.453 67.4873 235.832 77.8666C246.211 88.2459 254.445 100.568 260.062 114.129C265.679 127.69 268.57 142.225 268.57 156.904H313.376Z"/>
</mask>
<path d="M313.376 156.904C313.376 136.341 309.326 115.98 301.457 96.9826C293.588 77.9853 282.055 60.724 267.515 46.1841C252.975 31.6442 235.713 20.1105 216.716 12.2415C197.719 4.3726 177.358 0.322509 156.795 0.32251V45.1283C171.474 45.1283 186.008 48.0195 199.57 53.6367C213.131 59.254 225.453 67.4873 235.832 77.8666C246.211 88.2459 254.445 100.568 260.062 114.129C265.679 127.69 268.57 142.225 268.57 156.904H313.376Z" stroke="#4576F1" stroke-width="90" mask="url(#path-2-inside-1_60_5)"/>
</svg>
