<svg width="1836" height="817" viewBox="0 0 1836 817" fill="none" xmlns="http://www.w3.org/2000/svg">
<rect x="1671" y="443" width="30" height="374" fill="#6648DD"/>
<rect x="1716" y="405" width="30" height="412" fill="#5D3CE0"/>
<rect x="1761" y="367" width="30" height="450" fill="#5735DC"/>
<rect x="1806" y="337" width="30" height="480" fill="#4576F1"/>
<path d="M87.9378 655.375L126.438 600.25L173.688 620.375L207.813 571.375L276.062 636.125L332.062 670.25L376.687 655.375L419.562 700H0.437988L87.9378 655.375Z" fill="#BA48FF"/>
<path d="M207.813 571.375L275.187 634.375L332.937 553L375.812 637.875L419.562 700H117.688L173.21 642.879L207.813 571.375Z" fill="#6A9DFF" fill-opacity="0.65"/>
<circle cx="928" cy="105" r="90" stroke="#6050E0" stroke-width="30"/>
<mask id="path-8-inside-1_203_52" fill="white">
<path d="M1033 105C1033 91.2112 1030.28 77.5574 1025.01 64.8182C1019.73 52.0791 1012 40.5039 1002.25 30.7538C992.496 21.0036 980.921 13.2694 968.182 7.99265C955.443 2.7159 941.789 -6.02727e-07 928 0L928 30.0458C937.843 30.0458 947.59 31.9846 956.684 35.7514C965.778 39.5182 974.04 45.0393 981.001 51.9994C987.961 58.9595 993.482 67.2224 997.249 76.3163C1001.02 85.4101 1002.95 95.1569 1002.95 105H1033Z"/>
</mask>
<path d="M1033 105C1033 91.2112 1030.28 77.5574 1025.01 64.8182C1019.73 52.0791 1012 40.5039 1002.25 30.7538C992.496 21.0036 980.921 13.2694 968.182 7.99265C955.443 2.7159 941.789 -6.02727e-07 928 0L928 30.0458C937.843 30.0458 947.59 31.9846 956.684 35.7514C965.778 39.5182 974.04 45.0393 981.001 51.9994C987.961 58.9595 993.482 67.2224 997.249 76.3163C1001.02 85.4101 1002.95 95.1569 1002.95 105H1033Z" stroke="#4576F1" stroke-width="60" mask="url(#path-8-inside-1_203_52)"/>
</svg>
